League Gothic Condensed Regular.ufo
<glyph name="exclam" format="1">
  <advance width="143"/>
  <unicode hex="0021"/>
  <outline>
    <contour>
      <point x="29" y="198" type="line"/>
      <point x="85" y="198" type="line"/>
      <point x="101" y="735" type="line"/>
      <point x="13" y="735" type="line"/>
    </contour>
    <contour>
      <point x="16" y="0" type="line"/>
      <point x="97" y="0" type="line"/>
      <point x="97" y="111" type="line"/>
      <point x="16" y="111" type="line"/>
    </contour>
  </outline>
</glyph>
<glyph name="quotedbl" format="1">
  <advance width="204"/>
  <unicode hex="0022"/>
  <outline>
    <contour>
      <point x="82" y="466" type="line"/>
      <point x="91" y="735" type="line"/>
      <point x="10" y="735" type="line"/>
      <point x="19" y="466" type="line"/>
    </contour>
    <contour>
      <point x="183" y="466" type="line"/>
      <point x="192" y="735" type="line"/>
      <point x="111" y="735" type="line"/>
      <point x="120" y="466" type="line"/>
    </contour>
  </outline>
</glyph>
<glyph name="numbersign" format="1">
  <advance width="391"/>
  <unicode hex="0023"/>
  <outline>
    <contour>
      <point x="5" y="214" type="line"/>
      <point x="64" y="214" type="line"/>
      <point x="46" y="0" type="line"/>
      <point x="122" y="0" type="line"/>
      <point x="124" y="35"/>
      <point x="127" y="71"/>
      <point x="130" y="107" type="curve" smooth="yes"/>
      <point x="139" y="214" type="line"/>
      <point x="197" y="214" type="line"/>
      <point x="180" y="0" type="line"/>
      <point x="256" y="0" type="line"/>
      <point x="258" y="35"/>
      <point x="261" y="71"/>
      <point x="264" y="107" type="curve" smooth="yes"/>
      <point x="273" y="214" type="line"/>
      <point x="329" y="214" type="line"/>
      <point x="337" y="309" type="line"/>
      <point x="281" y="309" type="line"/>
      <point x="282" y="329"/>
      <point x="284" y="351"/>
      <point x="286" y="372" type="curve" smooth="yes"/>
      <point x="292" y="435" type="line"/>
      <point x="348" y="435" type="line"/>
      <point x="356" y="530" type="line"/>
      <point x="299" y="530" type="line"/>
      <point x="316" y="735" type="line"/>
      <point x="241" y="735" type="line"/>
      <point x="232" y="632" type="line" smooth="yes"/>
      <point x="229" y="598"/>
      <point x="226" y="562"/>
      <point x="224" y="530" type="curve"/>
      <point x="166" y="530" type="line"/>
      <point x="182" y="735" type="line"/>
      <point x="107" y="735" type="line"/>
      <point x="98" y="632" type="line" smooth="yes"/>
      <point x="95" y="598"/>
      <point x="92" y="562"/>
      <point x="90" y="530" type="curve"/>
      <point x="32" y="530" type="line"/>
      <point x="25" y="435" type="line"/>
      <point x="82" y="435" type="line"/>
      <point x="76" y="372" type="line" smooth="yes"/>
      <point x="74" y="352"/>
      <point x="72" y="328"/>
      <point x="71" y="309" type="curve"/>
      <point x="13" y="309" type="line"/>
    </contour>
    <contour>
      <point x="158" y="435" type="line"/>
      <point x="216" y="435" type="line"/>
      <point x="210" y="372" type="line" smooth="yes"/>
      <point x="208" y="352"/>
      <point x="206" y="328"/>
      <point x="205" y="309" type="curve"/>
      <point x="147" y="309" type="line"/>
    </contour>
  </outline>
</glyph>
<glyph name="dollar" format="1">
  <advance width="234"/>
  <unicode hex="0024"/>
  <outline>
    <contour>
      <point x="88" y="795" type="line"/>
      <point x="88" y="731" type="line"/>
      <point x="60" y="722"/>
      <point x="41" y="698"/>
      <point x="30" y="667" type="curve" smooth="yes"/>
      <point x="19" y="636"/>
      <point x="14" y="600"/>
      <point x="14" y="564" type="curve" smooth="yes"/>
      <point x="14" y="543"/>
      <point x="17" y="523"/>
      <point x="21" y="503" type="curve" smooth="yes"/>
      <point x="30" y="463"/>
      <point x="45" y="427"/>
      <point x="61" y="392" type="curve" smooth="yes"/>
      <point x="78" y="357"/>
      <point x="91" y="332"/>
      <point x="105" y="306" type="curve" smooth="yes"/>
      <point x="112" y="293"/>
      <point x="118" y="279"/>
      <point x="124" y="265" type="curve" smooth="yes"/>
      <point x="136" y="237"/>
      <point x="144" y="208"/>
      <point x="144" y="180" type="curve" smooth="yes"/>
      <point x="144" y="156"/>
      <point x="142" y="134"/>
      <point x="137" y="118" type="curve" smooth="yes"/>
      <point x="132" y="101"/>
      <point x="124" y="90"/>
      <point x="112" y="90" type="curve" smooth="yes"/>
      <point x="96" y="90"/>
      <point x="87" y="101"/>
      <point x="80" y="118" type="curve" smooth="yes"/>
      <point x="73" y="134"/>
      <point x="69" y="157"/>
      <point x="68" y="181" type="curve"/>
      <point x="3" y="175" type="line"/>
      <point x="3" y="134"/>
      <point x="10" y="95"/>
      <point x="24" y="64" type="curve" smooth="yes"/>
      <point x="37" y="33"/>
      <point x="57" y="11"/>
      <point x="88" y="3" type="curve"/>
      <point x="88" y="-105" type="line"/>
      <point x="130" y="-105" type="line"/>
      <point x="130" y="1" type="line"/>
      <point x="161" y="6"/>
      <point x="182" y="30"/>
      <point x="196" y="63" type="curve" smooth="yes"/>
      <point x="209" y="95"/>
      <point x="214" y="137"/>
      <point x="214" y="181" type="curve" smooth="yes"/>
      <point x="214" y="202"/>
      <point x="212" y="223"/>
      <point x="208" y="243" type="curve" smooth="yes"/>
      <point x="199" y="282"/>
      <point x="184" y="319"/>
      <point x="167" y="353" type="curve" smooth="yes"/>
      <point x="159" y="370"/>
      <point x="151" y="386"/>
      <point x="143" y="401" type="curve" smooth="yes"/>
      <point x="130" y="426"/>
      <point x="115" y="454"/>
      <point x="104" y="482" type="curve" smooth="yes"/>
      <point x="93" y="509"/>
      <point x="84" y="538"/>
      <point x="84" y="566" type="curve" smooth="yes"/>
      <point x="84" y="586"/>
      <point x="87" y="605"/>
      <point x="91" y="620" type="curve"/>
      <point x="96" y="635"/>
      <point x="102" y="645"/>
      <point x="113" y="645" type="curve" smooth="yes"/>
      <point x="135" y="646"/>
      <point x="142" y="617"/>
      <point x="145" y="584" type="curve"/>
      <point x="210" y="596" type="line"/>
      <point x="208" y="629"/>
      <point x="201" y="662"/>
      <point x="189" y="687" type="curve" smooth="yes"/>
      <point x="176" y="712"/>
      <point x="158" y="730"/>
      <point x="130" y="734" type="curve"/>
      <point x="130" y="795" type="line"/>
    </contour>
  </outline>
</glyph>
<glyph name="percent" format="1">
  <advance width="409"/>
  <unicode hex="0025"/>
  <outline>
    <contour>
      <point x="170" y="658" type="line"/>
      <point x="167" y="700"/>
      <point x="149" y="743"/>
      <point x="96" y="743" type="curve" smooth="yes"/>
      <point x="50" y="743"/>
      <point x="21" y="706"/>
      <point x="21" y="658" type="curve" smooth="yes"/>
      <point x="21" y="445" type="line" smooth="yes"/>
      <point x="21" y="401"/>
      <point x="45" y="359"/>
      <point x="96" y="359" type="curve" smooth="yes"/>
      <point x="143" y="359"/>
      <point x="168" y="397"/>
      <point x="170" y="445" type="curve"/>
    </contour>
    <contour>
      <point x="144" y="0" type="line"/>
      <point x="351" y="735" type="line"/>
      <point x="287" y="735" type="line"/>
      <point x="77" y="0" type="line"/>
    </contour>
    <contour>
      <point x="110" y="445" type="line" smooth="yes"/>
      <point x="110" y="434"/>
      <point x="111" y="418"/>
      <point x="96" y="418" type="curve" smooth="yes"/>
      <point x="79" y="418"/>
      <point x="80" y="434"/>
      <point x="81" y="445" type="curve"/>
      <point x="81" y="658" type="line" smooth="yes"/>
      <point x="81" y="669"/>
      <point x="83" y="685"/>
      <point x="96" y="685" type="curve" smooth="yes"/>
      <point x="108" y="685"/>
      <point x="110" y="671"/>
      <point x="110" y="658" type="curve" smooth="yes"/>
    </contour>
    <contour>
      <point x="406" y="290" type="line"/>
      <point x="403" y="332"/>
      <point x="383" y="376"/>
      <point x="332" y="376" type="curve" smooth="yes"/>
      <point x="286" y="376"/>
      <point x="257" y="338"/>
      <point x="257" y="290" type="curve" smooth="yes"/>
      <point x="257" y="77" type="line" smooth="yes"/>
      <point x="257" y="33"/>
      <point x="282" y="-8"/>
      <point x="332" y="-8" type="curve" smooth="yes"/>
      <point x="378" y="-8"/>
      <point x="404" y="30"/>
      <point x="406" y="77" type="curve"/>
    </contour>
    <contour>
      <point x="346" y="77" type="line" smooth="yes"/>
      <point x="346" y="67"/>
      <point x="346" y="49"/>
      <point x="332" y="49" type="curve" smooth="yes"/>
      <point x="319" y="49"/>
      <point x="316" y="65"/>
      <point x="317" y="77" type="curve"/>
      <point x="317" y="290" type="line" smooth="yes"/>
      <point x="317" y="302"/>
      <point x="319" y="317"/>
      <point x="332" y="317" type="curve" smooth="yes"/>
      <point x="344" y="317"/>
      <point x="346" y="303"/>
      <point x="346" y="290" type="curve" smooth="yes"/>
    </contour>
  </outline>
</glyph>
<glyph name="ampersand" format="1">
  <advance width="280"/>
  <unicode hex="0026"/>
  <outline>
    <contour>
      <point x="191" y="329" type="line"/>
      <point x="191" y="305"/>
      <point x="183" y="261"/>
      <point x="175" y="239" type="curve"/>
      <point x="166" y="264"/>
      <point x="153" y="319"/>
      <point x="139" y="371" type="curve"/>
      <point x="167" y="438"/>
      <point x="198" y="507"/>
      <point x="198" y="586" type="curve" smooth="yes"/>
      <point x="198" y="638"/>
      <point x="189" y="743"/>
      <point x="112" y="743" type="curve" smooth="yes"/>
      <point x="36" y="743"/>
      <point x="25" y="645"/>
      <point x="24" y="583" type="curve"/>
      <point x="24" y="509"/>
      <point x="36" y="436"/>
      <point x="55" y="367" type="curve"/>
      <point x="33" y="309"/>
      <point x="-4" y="217"/>
      <point x="-4" y="142" type="curve" smooth="yes"/>
      <point x="-4" y="89"/>
      <point x="18" y="-8"/>
      <point x="103" y="-8" type="curve" smooth="yes"/>
      <point x="136" y="-8"/>
      <point x="168" y="7"/>
      <point x="182" y="45" type="curve"/>
      <point x="197" y="20"/>
      <point x="203" y="5"/>
      <point x="247" y="-8" type="curve"/>
      <point x="247" y="96" type="line"/>
      <point x="232" y="104"/>
      <point x="216" y="117"/>
      <point x="212" y="126" type="curve"/>
      <point x="232" y="186"/>
      <point x="255" y="250"/>
      <point x="257" y="317" type="curve"/>
    </contour>
    <contour>
      <point x="128" y="586" type="curve"/>
      <point x="128" y="555"/>
      <point x="117" y="508"/>
      <point x="106" y="476" type="curve"/>
      <point x="96" y="508"/>
      <point x="92" y="567"/>
      <point x="92" y="586" type="curve" smooth="yes"/>
      <point x="92" y="614"/>
      <point x="96" y="657"/>
      <point x="110" y="657" type="curve" smooth="yes"/>
      <point x="124" y="657"/>
      <point x="129" y="617"/>
    </contour>
    <contour>
      <point x="146" y="127" type="curve"/>
      <point x="133" y="80"/>
      <point x="115" y="79"/>
      <point x="107" y="79" type="curve" smooth="yes"/>
      <point x="87" y="79"/>
      <point x="77" y="113"/>
      <point x="77" y="143" type="curve" smooth="yes"/>
      <point x="77" y="177"/>
      <point x="85" y="206"/>
      <point x="97" y="264" type="curve"/>
      <point x="106" y="233"/>
      <point x="124" y="175"/>
    </contour>
  </outline>
</glyph>
<glyph name="quotesingle" format="1">
  <advance width="121"/>
  <unicode hex="0027"/>
  <outline>
    <contour>
      <point x="80" y="466" type="line"/>
      <point x="89" y="735" type="line"/>
      <point x="8" y="735" type="line"/>
      <point x="17" y="466" type="line"/>
    </contour>
  </outline>
</glyph>
<glyph name="parenleft" format="1">
  <advance width="194"/>
  <unicode hex="0028"/>
  <outline>
    <contour>
      <point x="99" y="786" type="line"/>
      <point x="84" y="745"/>
      <point x="66" y="688"/>
      <point x="53" y="639" type="curve" smooth="yes"/>
      <point x="31" y="555"/>
      <point x="10" y="436"/>
      <point x="10" y="315" type="curve" smooth="yes"/>
      <point x="10" y="253"/>
      <point x="14" y="192"/>
      <point x="23" y="138" type="curve" smooth="yes"/>
      <point x="41" y="29"/>
      <point x="65" y="-65"/>
      <point x="100" y="-154" type="curve"/>
      <point x="160" y="-102" type="line"/>
      <point x="147" y="-69"/>
      <point x="135" y="-32"/>
      <point x="124" y="12" type="curve" smooth="yes"/>
      <point x="104" y="87"/>
      <point x="86" y="190"/>
      <point x="86" y="315" type="curve" smooth="yes"/>
      <point x="86" y="378"/>
      <point x="90" y="435"/>
      <point x="98" y="486" type="curve" smooth="yes"/>
      <point x="113" y="588"/>
      <point x="133" y="666"/>
      <point x="160" y="733" type="curve"/>
    </contour>
  </outline>
</glyph>
<glyph name="parenright" format="1">
  <advance width="194"/>
  <unicode hex="0029"/>
  <outline>
    <contour>
      <point x="4" y="733" type="line"/>
      <point x="16" y="704"/>
      <point x="30" y="658"/>
      <point x="41" y="618" type="curve" smooth="yes"/>
      <point x="59" y="544"/>
      <point x="79" y="434"/>
      <point x="79" y="315" type="curve" smooth="yes"/>
      <point x="79" y="254"/>
      <point x="74" y="195"/>
      <point x="67" y="145" type="curve" smooth="yes"/>
      <point x="50" y="47"/>
      <point x="31" y="-38"/>
      <point x="4" y="-102" type="curve"/>
      <point x="64" y="-154" type="line"/>
      <point x="83" y="-103"/>
      <point x="99" y="-55"/>
      <point x="111" y="-9" type="curve" smooth="yes"/>
      <point x="133" y="75"/>
      <point x="154" y="190"/>
      <point x="154" y="315" type="curve" smooth="yes"/>
      <point x="154" y="377"/>
      <point x="150" y="438"/>
      <point x="141" y="493" type="curve" smooth="yes"/>
      <point x="123" y="604"/>
      <point x="98" y="698"/>
      <point x="65" y="786" type="curve"/>
    </contour>
  </outline>
</glyph>
<glyph name="asterisk" format="1">
  <advance width="229"/>
  <unicode hex="002A"/>
  <outline>
    <contour>
      <point x="73" y="659" type="line"/>
      <point x="25" y="682" type="line"/>
      <point x="11" y="613" type="line"/>
      <point x="67" y="594" type="line"/>
      <point x="20" y="529" type="line"/>
      <point x="69" y="480" type="line"/>
      <point x="99" y="541" type="line"/>
      <point x="130" y="480" type="line"/>
      <point x="178" y="529" type="line"/>
      <point x="135" y="594" type="line"/>
      <point x="188" y="613" type="line"/>
      <point x="173" y="682" type="line"/>
      <point x="126" y="658" type="line"/>
      <point x="131" y="735" type="line"/>
      <point x="68" y="735" type="line"/>
    </contour>
  </outline>
</glyph>
<glyph name="plus" format="1">
  <advance width="341"/>
  <unicode hex="002B"/>
  <outline>
    <contour>
      <point x="13" y="317" type="line"/>
      <point x="121" y="317" type="line"/>
      <point x="121" y="148" type="line"/>
      <point x="190" y="148" type="line"/>
      <point x="190" y="317" type="line"/>
      <point x="298" y="317" type="line"/>
      <point x="298" y="401" type="line"/>
      <point x="190" y="401" type="line"/>
      <point x="190" y="570" type="line"/>
      <point x="121" y="570" type="line"/>
      <point x="121" y="401" type="line"/>
      <point x="13" y="401" type="line"/>
    </contour>
  </outline>
</glyph>
<glyph name="comma" format="1">
  <advance width="121"/>
  <unicode hex="002C"/>
  <outline>
    <contour>
      <point x="85" y="111" type="line"/>
      <point x="4" y="111" type="line"/>
      <point x="4" y="0" type="line"/>
      <point x="29" y="0" type="line"/>
      <point x="4" y="-130" type="line"/>
      <point x="52" y="-130" type="line"/>
      <point x="85" y="0" type="line"/>
    </contour>
  </outline>
</glyph>
<glyph name="hyphen" format="1">
  <advance width="160"/>
  <unicode hex="002D"/>
  <outline>
    <contour>
      <point x="13" y="222" type="line"/>
      <point x="118" y="222" type="line"/>
      <point x="118" y="317" type="line"/>
      <point x="13" y="317" type="line"/>
    </contour>
  </outline>
</glyph>
<glyph name="period" format="1">
  <advance width="124"/>
  <unicode hex="002E"/>
  <outline>
    <contour>
      <point x="7" y="0" type="line"/>
      <point x="88" y="0" type="line"/>
      <point x="88" y="111" type="line"/>
      <point x="7" y="111" type="line"/>
    </contour>
  </outline>
</glyph>
<glyph name="slash" format="1">
  <advance width="241"/>
  <unicode hex="002F"/>
  <outline>
    <contour>
      <point x="-7" y="-72" type="line"/>
      <point x="61" y="-72" type="line"/>
      <point x="218" y="735" type="line"/>
      <point x="152" y="735" type="line"/>
    </contour>
  </outline>
</glyph>
<glyph name="one" format="1">
  <advance width="169"/>
  <unicode hex="0031"/>
  <outline>
    <contour>
      <point x="41" y="576" type="line"/>
      <point x="41" y="0" type="line"/>
      <point x="124" y="0" type="line"/>
      <point x="124" y="735" type="line"/>
      <point x="67" y="735" type="line"/>
      <point x="64" y="722"/>
      <point x="59" y="707"/>
      <point x="54" y="697" type="curve"/>
      <point x="42" y="677"/>
      <point x="22" y="652"/>
      <point x="-2" y="643" type="curve"/>
      <point x="-2" y="576" type="line"/>
    </contour>
  </outline>
</glyph>
<glyph name="two" format="1">
  <advance width="244"/>
  <unicode hex="0032"/>
  <outline>
    <contour>
      <point x="92" y="502" type="line"/>
      <point x="92" y="553" type="line" smooth="yes"/>
      <point x="92" y="565"/>
      <point x="93" y="643"/>
      <point x="109" y="643" type="curve" smooth="yes"/>
      <point x="123" y="643"/>
      <point x="126" y="576"/>
      <point x="126" y="553" type="curve" smooth="yes"/>
      <point x="123" y="409"/>
      <point x="66" y="263"/>
      <point x="7" y="107" type="curve"/>
      <point x="7" y="0" type="line"/>
      <point x="201" y="0" type="line"/>
      <point x="201" y="107" type="line"/>
      <point x="98" y="107" type="line"/>
      <point x="143" y="228"/>
      <point x="206" y="427"/>
      <point x="206" y="560" type="curve" smooth="yes"/>
      <point x="206" y="624"/>
      <point x="202" y="743"/>
      <point x="109" y="743" type="curve" smooth="yes"/>
      <point x="19" y="743"/>
      <point x="10" y="626"/>
      <point x="9" y="553" type="curve" smooth="yes"/>
      <point x="9" y="502" type="line"/>
    </contour>
  </outline>
</glyph>
<glyph name="three" format="1">
  <advance width="231"/>
  <unicode hex="0033"/>
  <outline>
    <contour>
      <point x="112" y="329"/>
      <point x="121" y="298"/>
      <point x="123" y="187" type="curve" smooth="yes"/>
      <point x="123" y="155"/>
      <point x="122" y="87"/>
      <point x="106" y="87" type="curve" smooth="yes"/>
      <point x="89" y="87"/>
      <point x="88" y="168"/>
      <point x="88" y="212" type="curve"/>
      <point x="7" y="212" type="line"/>
      <point x="7" y="151"/>
      <point x="8" y="-8"/>
      <point x="106" y="-8" type="curve" smooth="yes"/>
      <point x="191" y="-8"/>
      <point x="204" y="92"/>
      <point x="204" y="188" type="curve" smooth="yes"/>
      <point x="204" y="295"/>
      <point x="186" y="352"/>
      <point x="152" y="375" type="curve"/>
      <point x="191" y="422"/>
      <point x="202" y="472"/>
      <point x="202" y="579" type="curve" smooth="yes"/>
      <point x="202" y="636"/>
      <point x="184" y="743"/>
      <point x="103" y="743" type="curve" smooth="yes"/>
      <point x="11" y="743"/>
      <point x="4" y="597"/>
      <point x="4" y="523" type="curve"/>
      <point x="86" y="523" type="line"/>
      <point x="86" y="565"/>
      <point x="88" y="645"/>
      <point x="104" y="645" type="curve" smooth="yes"/>
      <point x="119" y="645"/>
      <point x="119" y="577"/>
      <point x="119" y="548" type="curve" smooth="yes"/>
      <point x="119" y="487"/>
      <point x="122" y="425"/>
      <point x="64" y="421" type="curve"/>
      <point x="64" y="332" type="line"/>
    </contour>
  </outline>
</glyph>
<glyph name="four" format="1">
  <advance width="234"/>
  <unicode hex="0034"/>
  <outline>
    <contour>
      <point x="114" y="0" type="line"/>
      <point x="185" y="0" type="line"/>
      <point x="185" y="160" type="line"/>
      <point x="215" y="160" type="line"/>
      <point x="215" y="255" type="line"/>
      <point x="185" y="255" type="line"/>
      <point x="185" y="735" type="line"/>
      <point x="104" y="735" type="line"/>
      <point x="1" y="255" type="line"/>
      <point x="1" y="160" type="line"/>
      <point x="114" y="160" type="line"/>
    </contour>
    <contour>
      <point x="116" y="255" type="line"/>
      <point x="71" y="255" type="line"/>
      <point x="116" y="482" type="line"/>
    </contour>
  </outline>
</glyph>
<glyph name="five" format="1">
  <advance width="236"/>
  <unicode hex="0035"/>
  <outline>
    <contour>
      <point x="128" y="164" type="line" smooth="yes"/>
      <point x="128" y="106"/>
      <point x="120" y="86"/>
      <point x="110" y="86" type="curve" smooth="yes"/>
      <point x="100" y="86"/>
      <point x="95" y="128"/>
      <point x="95" y="165" type="curve" smooth="yes"/>
      <point x="95" y="214" type="line"/>
      <point x="13" y="214" type="line"/>
      <point x="13" y="152"/>
      <point x="6" y="-8"/>
      <point x="106" y="-8" type="curve" smooth="yes"/>
      <point x="195" y="-8"/>
      <point x="208" y="100"/>
      <point x="209" y="174" type="curve" smooth="yes"/>
      <point x="209" y="348" type="line" smooth="yes"/>
      <point x="209" y="402"/>
      <point x="205" y="500"/>
      <point x="134" y="500" type="curve" smooth="yes"/>
      <point x="118" y="500"/>
      <point x="93" y="484"/>
      <point x="91" y="471" type="curve"/>
      <point x="91" y="628" type="line"/>
      <point x="191" y="628" type="line"/>
      <point x="191" y="735" type="line"/>
      <point x="17" y="735" type="line"/>
      <point x="17" y="348" type="line"/>
      <point x="89" y="348" type="line"/>
      <point x="89" y="358"/>
      <point x="94" y="402"/>
      <point x="110" y="402" type="curve" smooth="yes"/>
      <point x="120" y="402"/>
      <point x="128" y="379"/>
      <point x="128" y="348" type="curve" smooth="yes"/>
    </contour>
  </outline>
</glyph>
<glyph name="six" format="1">
  <advance width="235"/>
  <unicode hex="0036"/>
  <outline>
    <contour>
      <point x="210" y="321" type="line" smooth="yes"/>
      <point x="210" y="373"/>
      <point x="205" y="456"/>
      <point x="128" y="456" type="curve" smooth="yes"/>
      <point x="113" y="456"/>
      <point x="95" y="445"/>
      <point x="93" y="439" type="curve"/>
      <point x="93" y="575" type="line" smooth="yes"/>
      <point x="93" y="584"/>
      <point x="93" y="649"/>
      <point x="109" y="649" type="curve" smooth="yes"/>
      <point x="127" y="649"/>
      <point x="127" y="556"/>
      <point x="127" y="523" type="curve"/>
      <point x="207" y="523" type="line"/>
      <point x="207" y="575" type="line" smooth="yes"/>
      <point x="207" y="635"/>
      <point x="197" y="743"/>
      <point x="109" y="743" type="curve" smooth="yes"/>
      <point x="24" y="743"/>
      <point x="11" y="647"/>
      <point x="10" y="575" type="curve"/>
      <point x="10" y="141" type="line" smooth="yes"/>
      <point x="10" y="89"/>
      <point x="24" y="-8"/>
      <point x="104" y="-8" type="curve" smooth="yes"/>
      <point x="182" y="-8"/>
      <point x="209" y="75"/>
      <point x="210" y="141" type="curve" smooth="yes"/>
    </contour>
    <contour>
      <point x="93" y="342" type="line"/>
      <point x="94" y="353"/>
      <point x="96" y="372"/>
      <point x="111" y="372" type="curve" smooth="yes"/>
      <point x="127" y="372"/>
      <point x="130" y="348"/>
      <point x="130" y="339" type="curve" smooth="yes"/>
      <point x="130" y="129" type="line" smooth="yes"/>
      <point x="130" y="115"/>
      <point x="127" y="86"/>
      <point x="111" y="86" type="curve" smooth="yes"/>
      <point x="96" y="86"/>
      <point x="93" y="115"/>
      <point x="93" y="129" type="curve" smooth="yes"/>
    </contour>
  </outline>
</glyph>
<glyph name="seven" format="1">
  <advance width="203"/>
  <unicode hex="0037"/>
  <outline>
    <contour>
      <point x="26" y="0" type="line"/>
      <point x="111" y="0" type="line"/>
      <point x="176" y="627" type="line"/>
      <point x="176" y="735" type="line"/>
      <point x="-6" y="735" type="line"/>
      <point x="-6" y="628" type="line"/>
      <point x="92" y="628" type="line"/>
    </contour>
  </outline>
</glyph>
<glyph name="eight" format="1">
  <advance width="234"/>
  <unicode hex="0038"/>
  <outline>
    <contour>
      <point x="207" y="625" type="line" smooth="yes"/>
      <point x="207" y="678"/>
      <point x="182" y="743"/>
      <point x="112" y="743" type="curve" smooth="yes"/>
      <point x="47" y="743"/>
      <point x="17" y="682"/>
      <point x="17" y="625" type="curve" smooth="yes"/>
      <point x="17" y="483" type="line" smooth="yes"/>
      <point x="17" y="435"/>
      <point x="33" y="411"/>
      <point x="56" y="388" type="curve"/>
      <point x="33" y="365"/>
      <point x="14" y="335"/>
      <point x="14" y="283" type="curve" smooth="yes"/>
      <point x="14" y="127" type="line" smooth="yes"/>
      <point x="14" y="71"/>
      <point x="39" y="-8"/>
      <point x="112" y="-8" type="curve" smooth="yes"/>
      <point x="183" y="-8"/>
      <point x="210" y="65"/>
      <point x="210" y="127" type="curve" smooth="yes"/>
      <point x="210" y="283" type="line" smooth="yes"/>
      <point x="210" y="335"/>
      <point x="194" y="373"/>
      <point x="168" y="388" type="curve"/>
      <point x="194" y="410"/>
      <point x="207" y="435"/>
      <point x="207" y="483" type="curve" smooth="yes"/>
    </contour>
    <contour>
      <point x="129" y="530" type="curve" smooth="yes"/>
      <point x="129" y="496"/>
      <point x="129" y="481"/>
      <point x="129" y="462" type="curve" smooth="yes"/>
      <point x="129" y="443"/>
      <point x="120" y="429"/>
      <point x="112" y="429" type="curve" smooth="yes"/>
      <point x="104" y="429"/>
      <point x="95" y="443"/>
      <point x="95" y="462" type="curve" smooth="yes"/>
      <point x="95" y="481"/>
      <point x="95" y="496"/>
      <point x="95" y="530" type="curve" smooth="yes"/>
      <point x="95" y="574"/>
      <point x="95" y="589"/>
      <point x="95" y="610" type="curve" smooth="yes"/>
      <point x="95" y="631"/>
      <point x="100" y="651"/>
      <point x="112" y="651" type="curve" smooth="yes"/>
      <point x="124" y="651"/>
      <point x="129" y="631"/>
      <point x="129" y="610" type="curve" smooth="yes"/>
      <point x="129" y="589"/>
      <point x="129" y="574"/>
    </contour>
    <contour>
      <point x="129" y="200" type="curve" smooth="yes"/>
      <point x="129" y="166"/>
      <point x="129" y="141"/>
      <point x="129" y="122" type="curve" smooth="yes"/>
      <point x="129" y="103"/>
      <point x="120" y="89"/>
      <point x="112" y="89" type="curve" smooth="yes"/>
      <point x="104" y="89"/>
      <point x="95" y="103"/>
      <point x="95" y="122" type="curve" smooth="yes"/>
      <point x="95" y="141"/>
      <point x="95" y="166"/>
      <point x="95" y="200" type="curve" smooth="yes"/>
      <point x="95" y="244"/>
      <point x="95" y="269"/>
      <point x="95" y="290" type="curve" smooth="yes"/>
      <point x="95" y="311"/>
      <point x="100" y="332"/>
      <point x="112" y="332" type="curve" smooth="yes"/>
      <point x="124" y="332"/>
      <point x="129" y="311"/>
      <point x="129" y="290" type="curve" smooth="yes"/>
      <point x="129" y="269"/>
      <point x="129" y="244"/>
    </contour>
  </outline>
</glyph>
<glyph name="nine" format="1">
  <advance width="235"/>
  <unicode hex="0039"/>
  <outline>
    <contour>
      <point x="2" y="414" type="line" smooth="yes"/>
      <point x="2" y="362"/>
      <point x="7" y="279"/>
      <point x="84" y="279" type="curve" smooth="yes"/>
      <point x="99" y="279"/>
      <point x="117" y="290"/>
      <point x="119" y="296" type="curve"/>
      <point x="119" y="160" type="line" smooth="yes"/>
      <point x="119" y="151"/>
      <point x="119" y="86"/>
      <point x="103" y="86" type="curve" smooth="yes"/>
      <point x="85" y="86"/>
      <point x="85" y="179"/>
      <point x="85" y="212" type="curve"/>
      <point x="5" y="212" type="line"/>
      <point x="5" y="160" type="line" smooth="yes"/>
      <point x="5" y="100"/>
      <point x="15" y="-8"/>
      <point x="103" y="-8" type="curve" smooth="yes"/>
      <point x="188" y="-8"/>
      <point x="201" y="88"/>
      <point x="202" y="160" type="curve" smooth="yes"/>
      <point x="202" y="594" type="line" smooth="yes"/>
      <point x="202" y="646"/>
      <point x="188" y="743"/>
      <point x="108" y="743" type="curve" smooth="yes"/>
      <point x="30" y="743"/>
      <point x="3" y="660"/>
      <point x="2" y="594" type="curve"/>
    </contour>
    <contour>
      <point x="119" y="393" type="line"/>
      <point x="118" y="382"/>
      <point x="116" y="363"/>
      <point x="101" y="363" type="curve" smooth="yes"/>
      <point x="85" y="363"/>
      <point x="82" y="387"/>
      <point x="82" y="396" type="curve" smooth="yes"/>
      <point x="82" y="606" type="line" smooth="yes"/>
      <point x="82" y="620"/>
      <point x="85" y="649"/>
      <point x="101" y="649" type="curve" smooth="yes"/>
      <point x="116" y="649"/>
      <point x="119" y="620"/>
      <point x="119" y="606" type="curve" smooth="yes"/>
    </contour>
  </outline>
</glyph>
<glyph name="semicolon" format="1">
  <advance width="136"/>
  <unicode hex="003B"/>
  <outline>
    <contour>
      <point x="13" y="436" type="line"/>
      <point x="94" y="436" type="line"/>
      <point x="94" y="547" type="line"/>
      <point x="13" y="547" type="line"/>
    </contour>
    <contour>
      <point x="94" y="111" type="line"/>
      <point x="13" y="111" type="line"/>
      <point x="13" y="0" type="line"/>
      <point x="38" y="0" type="line"/>
      <point x="13" y="-130" type="line"/>
      <point x="61" y="-130" type="line"/>
      <point x="94" y="0" type="line"/>
    </contour>
  </outline>
</glyph>
<glyph name="less" format="1">
  <advance width="340"/>
  <unicode hex="003C"/>
  <outline>
    <contour>
      <point x="13" y="320" type="line"/>
      <point x="298" y="72" type="line"/>
      <point x="298" y="179" type="line"/>
      <point x="193" y="268" type="line" smooth="yes"/>
      <point x="159" y="297"/>
      <point x="122" y="328"/>
      <point x="90" y="356" type="curve"/>
      <point x="298" y="533" type="line"/>
      <point x="298" y="640" type="line"/>
      <point x="13" y="392" type="line"/>
    </contour>
  </outline>
</glyph>
<glyph name="equal" format="1">
  <advance width="340"/>
  <unicode hex="003D"/>
  <outline>
    <contour>
      <point x="13" y="422" type="line"/>
      <point x="298" y="422" type="line"/>
      <point x="298" y="506" type="line"/>
      <point x="13" y="506" type="line"/>
    </contour>
    <contour>
      <point x="13" y="233" type="line"/>
      <point x="298" y="233" type="line"/>
      <point x="298" y="317" type="line"/>
      <point x="13" y="317" type="line"/>
    </contour>
  </outline>
</glyph>
<glyph name="greater" format="1">
  <advance width="340"/>
  <unicode hex="003E"/>
  <outline>
    <contour>
      <point x="298" y="392" type="line"/>
      <point x="13" y="640" type="line"/>
      <point x="13" y="533" type="line"/>
      <point x="220" y="356" type="line"/>
      <point x="13" y="179" type="line"/>
      <point x="13" y="72" type="line"/>
      <point x="298" y="320" type="line"/>
    </contour>
  </outline>
</glyph>
<glyph name="question" format="1">
  <advance width="153"/>
  <unicode hex="003F"/>
  <outline>
    <contour>
      <point x="116" y="198" type="line"/>
      <point x="116" y="323" type="line" smooth="yes"/>
      <point x="116" y="342"/>
      <point x="116" y="359"/>
      <point x="119" y="376" type="curve" smooth="yes"/>
      <point x="124" y="408"/>
      <point x="133" y="436"/>
      <point x="143" y="460" type="curve" smooth="yes"/>
      <point x="148" y="471"/>
      <point x="152" y="482"/>
      <point x="156" y="492" type="curve" smooth="yes"/>
      <point x="171" y="528"/>
      <point x="185" y="568"/>
      <point x="185" y="609" type="curve" smooth="yes"/>
      <point x="185" y="663"/>
      <point x="172" y="739"/>
      <point x="93" y="739" type="curve" smooth="yes"/>
      <point x="60" y="739"/>
      <point x="35" y="717"/>
      <point x="18" y="690" type="curve" smooth="yes"/>
      <point x="1" y="662"/>
      <point x="-11" y="631"/>
      <point x="-14" y="615" type="curve"/>
      <point x="46" y="574" type="line"/>
      <point x="49" y="583"/>
      <point x="53" y="602"/>
      <point x="61" y="618" type="curve" smooth="yes"/>
      <point x="69" y="633"/>
      <point x="78" y="645"/>
      <point x="91" y="645" type="curve" smooth="yes"/>
      <point x="135" y="645"/>
      <point x="105" y="565"/>
      <point x="96" y="544" type="curve" smooth="yes"/>
      <point x="86" y="519"/>
      <point x="74" y="491"/>
      <point x="65" y="455" type="curve" smooth="yes"/>
      <point x="56" y="419"/>
      <point x="45" y="376"/>
      <point x="45" y="323" type="curve" smooth="yes"/>
      <point x="45" y="198" type="line"/>
    </contour>
    <contour>
      <point x="41" y="0" type="line"/>
      <point x="122" y="0" type="line"/>
      <point x="122" y="111" type="line"/>
      <point x="41" y="111" type="line"/>
    </contour>
  </outline>
</glyph>
<glyph name="at" format="1">
  <advance width="338"/>
  <unicode hex="0040"/>
  <outline>
    <contour>
      <point x="309" y="578" type="line" smooth="yes"/>
      <point x="309" y="602"/>
      <point x="304" y="645"/>
      <point x="282" y="681" type="curve"/>
      <point x="257" y="717"/>
      <point x="220" y="746"/>
      <point x="158" y="746" type="curve" smooth="yes"/>
      <point x="98" y="746"/>
      <point x="60" y="717"/>
      <point x="36" y="681" type="curve" smooth="yes"/>
      <point x="13" y="644"/>
      <point x="8" y="602"/>
      <point x="8" y="578" type="curve" smooth="yes"/>
      <point x="8" y="152" type="line" smooth="yes"/>
      <point x="8" y="129"/>
      <point x="13" y="88"/>
      <point x="36" y="53" type="curve" smooth="yes"/>
      <point x="60" y="19"/>
      <point x="99" y="-11"/>
      <point x="158" y="-11" type="curve" smooth="yes"/>
      <point x="229" y="-11"/>
      <point x="266" y="26"/>
      <point x="292" y="69" type="curve"/>
      <point x="221" y="119" type="line"/>
      <point x="207" y="97"/>
      <point x="190" y="84"/>
      <point x="158" y="84" type="curve" smooth="yes"/>
      <point x="131" y="84"/>
      <point x="115" y="97"/>
      <point x="107" y="111" type="curve"/>
      <point x="98" y="123"/>
      <point x="93" y="140"/>
      <point x="93" y="152" type="curve" smooth="yes"/>
      <point x="93" y="578" type="line" smooth="yes"/>
      <point x="93" y="589"/>
      <point x="98" y="608"/>
      <point x="107" y="622" type="curve"/>
      <point x="115" y="637"/>
      <point x="131" y="648"/>
      <point x="158" y="648" type="curve" smooth="yes"/>
      <point x="185" y="648"/>
      <point x="203" y="637"/>
      <point x="211" y="622" type="curve"/>
      <point x="219" y="611"/>
      <point x="222" y="595"/>
      <point x="223" y="584" type="curve"/>
      <point x="215" y="591"/>
      <point x="204" y="598"/>
      <point x="188" y="598" type="curve" smooth="yes"/>
      <point x="140" y="598"/>
      <point x="125" y="557"/>
      <point x="125" y="508" type="curve" smooth="yes"/>
      <point x="125" y="275" type="line" smooth="yes"/>
      <point x="125" y="224"/>
      <point x="144" y="183"/>
      <point x="178" y="183" type="curve" smooth="yes"/>
      <point x="200" y="183"/>
      <point x="224" y="203"/>
      <point x="229" y="221" type="curve"/>
      <point x="242" y="190" type="line"/>
      <point x="309" y="190" type="line"/>
    </contour>
    <contour>
      <point x="226" y="281" type="line" smooth="yes"/>
      <point x="226" y="269"/>
      <point x="221" y="264"/>
      <point x="214" y="264" type="curve" smooth="yes"/>
      <point x="209" y="264"/>
      <point x="202" y="271"/>
      <point x="202" y="281" type="curve" smooth="yes"/>
      <point x="202" y="500" type="line" smooth="yes"/>
      <point x="202" y="510"/>
      <point x="208" y="517"/>
      <point x="213" y="517" type="curve" smooth="yes"/>
      <point x="220" y="517"/>
      <point x="226" y="510"/>
      <point x="226" y="500" type="curve" smooth="yes"/>
    </contour>
  </outline>
</glyph>
<glyph name="A" format="1">
  <advance width="254"/>
  <unicode hex="0041"/>
  <outline>
    <contour>
      <point x="78" y="0" type="line"/>
      <point x="89" y="150" type="line"/>
      <point x="135" y="150" type="line"/>
      <point x="146" y="0" type="line"/>
      <point x="227" y="0" type="line"/>
      <point x="161" y="735" type="line"/>
      <point x="64" y="735" type="line"/>
      <point x="-3" y="0" type="line"/>
    </contour>
    <contour>
      <point x="128" y="264" type="line"/>
      <point x="97" y="264" type="line"/>
      <point x="112" y="556" type="line"/>
    </contour>
    <contour>
      <point x="127" y="735" type="move" name="top"/>
    </contour>
    <contour>
      <point x="229" y="10" type="move" name="ogonek"/>
    </contour>
  </outline>
</glyph>
<glyph name="B" format="1">
  <advance width="248"/>
  <unicode hex="0042"/>
  <outline>
    <contour>
      <point x="124" y="0" type="line" smooth="yes"/>
      <point x="167" y="0"/>
      <point x="188" y="39"/>
      <point x="197" y="63" type="curve" smooth="yes"/>
      <point x="206" y="87"/>
      <point x="213" y="153"/>
      <point x="213" y="208" type="curve" smooth="yes"/>
      <point x="213" y="244"/>
      <point x="211" y="293"/>
      <point x="206" y="316" type="curve" smooth="yes"/>
      <point x="197" y="357"/>
      <point x="182" y="372"/>
      <point x="165" y="388" type="curve"/>
      <point x="184" y="402"/>
      <point x="193" y="423"/>
      <point x="200" y="445" type="curve"/>
      <point x="206" y="469"/>
      <point x="208" y="505"/>
      <point x="208" y="540" type="curve" smooth="yes"/>
      <point x="208" y="611"/>
      <point x="195" y="660"/>
      <point x="174" y="692" type="curve" smooth="yes"/>
      <point x="154" y="721"/>
      <point x="130" y="735"/>
      <point x="88" y="735" type="curve" smooth="yes"/>
      <point x="15" y="735" type="line"/>
      <point x="15" y="0" type="line"/>
    </contour>
    <contour>
      <point x="98" y="628" type="line"/>
      <point x="104" y="628"/>
      <point x="112" y="628"/>
      <point x="118" y="622" type="curve"/>
      <point x="126" y="611"/>
      <point x="129" y="583"/>
      <point x="129" y="530" type="curve" smooth="yes"/>
      <point x="129" y="477"/>
      <point x="126" y="449"/>
      <point x="118" y="438" type="curve" smooth="yes"/>
      <point x="114" y="432"/>
      <point x="103" y="432"/>
      <point x="98" y="432" type="curve"/>
    </contour>
    <contour>
      <point x="98" y="333" type="line"/>
      <point x="103" y="333"/>
      <point x="112" y="334"/>
      <point x="118" y="328" type="curve" smooth="yes"/>
      <point x="128" y="318"/>
      <point x="129" y="282"/>
      <point x="129" y="220" type="curve" smooth="yes"/>
      <point x="129" y="157"/>
      <point x="126" y="123"/>
      <point x="118" y="112" type="curve"/>
      <point x="113" y="106"/>
      <point x="102" y="107"/>
      <point x="98" y="107" type="curve"/>
    </contour>
  </outline>
</glyph>
<glyph name="D" format="1">
  <advance width="253"/>
  <unicode hex="0044"/>
  <outline>
    <contour>
      <point x="95" y="0" type="line" smooth="yes"/>
      <point x="161" y="0"/>
      <point x="185" y="26"/>
      <point x="198" y="65" type="curve" smooth="yes"/>
      <point x="213" y="109"/>
      <point x="213" y="223"/>
      <point x="213" y="367" type="curve" smooth="yes"/>
      <point x="213" y="511"/>
      <point x="211" y="603"/>
      <point x="194" y="659" type="curve" smooth="yes"/>
      <point x="176" y="715"/>
      <point x="150" y="735"/>
      <point x="84" y="735" type="curve" smooth="yes"/>
      <point x="15" y="735" type="line"/>
      <point x="15" y="0" type="line"/>
    </contour>
    <contour>
      <point x="98" y="627" type="line"/>
      <point x="110" y="626"/>
      <point x="125" y="629"/>
      <point x="128" y="603" type="curve" smooth="yes"/>
      <point x="133" y="558"/>
      <point x="131" y="487"/>
      <point x="131" y="336" type="curve"/>
      <point x="131" y="164"/>
      <point x="131" y="164"/>
      <point x="131" y="164" type="curve"/>
      <point x="131" y="105"/>
      <point x="111" y="108"/>
      <point x="98" y="108" type="curve"/>
    </contour>
    <contour>
      <point x="127" y="368" type="move" name="center"/>
    </contour>
    <contour>
      <point x="127" y="735" type="move" name="top"/>
    </contour>
  </outline>
</glyph>
<glyph name="E" format="1">
  <advance width="214"/>
  <unicode hex="0045"/>
  <outline>
    <contour>
      <point x="15" y="0" type="line"/>
      <point x="181" y="0" type="line"/>
      <point x="181" y="111" type="line"/>
      <point x="98" y="111" type="line"/>
      <point x="98" y="313" type="line"/>
      <point x="158" y="313" type="line"/>
      <point x="158" y="431" type="line"/>
      <point x="98" y="431" type="line"/>
      <point x="98" y="624" type="line"/>
      <point x="181" y="624" type="line"/>
      <point x="181" y="735" type="line"/>
      <point x="15" y="735" type="line"/>
    </contour>
    <contour>
      <point x="193" y="10" type="move" name="ogonek"/>
    </contour>
    <contour>
      <point x="107" y="0" type="move" name="bottom"/>
    </contour>
    <contour>
      <point x="107" y="735" type="move" name="top"/>
    </contour>
  </outline>
</glyph>
<glyph name="F" format="1">
  <advance width="211"/>
  <unicode hex="0046"/>
  <outline>
    <contour>
      <point x="187" y="735" type="line"/>
      <point x="15" y="735" type="line"/>
      <point x="15" y="0" type="line"/>
      <point x="98" y="0" type="line"/>
      <point x="98" y="320" type="line"/>
      <point x="158" y="320" type="line"/>
      <point x="158" y="431" type="line"/>
      <point x="98" y="431" type="line"/>
      <point x="98" y="624" type="line"/>
      <point x="187" y="624" type="line"/>
    </contour>
  </outline>
</glyph>
<glyph name="H" format="1">
  <advance width="258"/>
  <unicode hex="0048"/>
  <outline>
    <contour>
      <point x="130" y="0" type="line"/>
      <point x="213" y="0" type="line"/>
      <point x="213" y="735" type="line"/>
      <point x="130" y="735" type="line"/>
      <point x="130" y="431" type="line"/>
      <point x="98" y="431" type="line"/>
      <point x="98" y="735" type="line"/>
      <point x="15" y="735" type="line"/>
      <point x="15" y="0" type="line"/>
      <point x="98" y="0" type="line"/>
      <point x="98" y="320" type="line"/>
      <point x="130" y="320" type="line"/>
    </contour>
    <contour>
      <point x="129" y="368" type="move" name="center"/>
    </contour>
    <contour>
      <point x="129" y="735" type="move" name="top"/>
    </contour>
  </outline>
</glyph>
<glyph name="I" format="1">
  <advance width="143"/>
  <unicode hex="0049"/>
  <outline>
    <contour>
      <point x="15" y="0" type="line"/>
      <point x="98" y="0" type="line"/>
      <point x="98" y="735" type="line"/>
      <point x="15" y="735" type="line"/>
    </contour>
  </outline>
</glyph>
<glyph name="J" format="1">
  <advance width="154"/>
  <unicode hex="004A"/>
  <outline>
    <contour>
      <point x="-4" y="-6" type="line"/>
      <point x="90" y="-15"/>
      <point x="116" y="51"/>
      <point x="116" y="136" type="curve" smooth="yes"/>
      <point x="116" y="735" type="line"/>
      <point x="33" y="735" type="line"/>
      <point x="33" y="153" type="line" smooth="yes"/>
      <point x="33" y="133"/>
      <point x="29" y="95"/>
      <point x="-4" y="102" type="curve"/>
    </contour>
  </outline>
</glyph>
<glyph name="K" format="1">
  <advance width="255"/>
  <unicode hex="004B"/>
  <outline>
    <contour>
      <point x="15" y="735" type="line"/>
      <point x="15" y="0" type="line"/>
      <point x="95" y="0" type="line"/>
      <point x="95" y="350" type="line"/>
      <point x="147" y="0" type="line"/>
      <point x="228" y="0" type="line"/>
      <point x="157" y="466" type="line"/>
      <point x="230" y="735" type="line"/>
      <point x="149" y="735" type="line"/>
      <point x="95" y="524" type="line"/>
      <point x="95" y="735" type="line"/>
    </contour>
    <contour>
      <point x="128" y="735" type="move" name="top"/>
    </contour>
    <contour>
      <point x="128" y="0" type="move" name="bottom"/>
    </contour>
  </outline>
</glyph>
<glyph name="L" format="1">
  <advance width="207"/>
  <unicode hex="004C"/>
  <outline>
    <contour>
      <point x="15" y="0" type="line"/>
      <point x="184" y="0" type="line"/>
      <point x="184" y="100" type="line"/>
      <point x="98" y="100" type="line"/>
      <point x="98" y="735" type="line"/>
      <point x="15" y="735" type="line"/>
    </contour>
    <contour>
      <point x="104" y="735" type="move" name="top"/>
    </contour>
    <contour>
      <point x="104" y="0" type="move" name="bottom"/>
    </contour>
  </outline>
</glyph>
<glyph name="M" format="1">
  <advance width="320"/>
  <unicode hex="004D"/>
  <outline>
    <contour>
      <point x="168" y="0" type="line"/>
      <point x="196" y="362" type="line"/>
      <point x="196" y="0" type="line"/>
      <point x="275" y="0" type="line"/>
      <point x="275" y="735" type="line"/>
      <point x="183" y="735" type="line"/>
      <point x="145" y="388" type="line"/>
      <point x="107" y="735" type="line"/>
      <point x="15" y="735" type="line"/>
      <point x="15" y="0" type="line"/>
      <point x="92" y="0" type="line"/>
      <point x="92" y="362" type="line"/>
      <point x="123" y="0" type="line"/>
    </contour>
  </outline>
</glyph>
<glyph name="N" format="1">
  <advance width="267"/>
  <unicode hex="004E"/>
  <outline>
    <contour>
      <point x="152" y="0" type="line"/>
      <point x="222" y="0" type="line"/>
      <point x="222" y="735" type="line"/>
      <point x="145" y="735" type="line"/>
      <point x="145" y="388" type="line"/>
      <point x="85" y="735" type="line"/>
      <point x="15" y="735" type="line"/>
      <point x="15" y="0" type="line"/>
      <point x="92" y="0" type="line"/>
      <point x="92" y="357" type="line"/>
    </contour>
    <contour>
      <point x="134" y="735" type="move" name="top"/>
    </contour>
    <contour>
      <point x="134" y="0" type="move" name="bottom"/>
    </contour>
  </outline>
</glyph>
<glyph name="P" format="1">
  <advance width="241"/>
  <unicode hex="0050"/>
  <outline>
    <contour>
      <point x="15" y="0" type="line"/>
      <point x="98" y="0" type="line"/>
      <point x="98" y="294" type="line"/>
      <point x="128" y="295"/>
      <point x="158" y="306"/>
      <point x="177" y="336" type="curve" smooth="yes"/>
      <point x="199" y="371"/>
      <point x="212" y="432"/>
      <point x="212" y="515" type="curve" smooth="yes"/>
      <point x="212" y="598"/>
      <point x="199" y="656"/>
      <point x="177" y="691" type="curve" smooth="yes"/>
      <point x="155" y="725"/>
      <point x="132" y="735"/>
      <point x="99" y="735" type="curve" smooth="yes"/>
      <point x="15" y="735" type="line"/>
    </contour>
    <contour>
      <point x="98" y="627" type="line"/>
      <point x="107" y="627"/>
      <point x="119" y="627"/>
      <point x="124" y="616" type="curve" smooth="yes"/>
      <point x="132" y="598"/>
      <point x="132" y="552"/>
      <point x="132" y="511" type="curve" smooth="yes"/>
      <point x="132" y="470"/>
      <point x="132" y="432"/>
      <point x="124" y="416" type="curve" smooth="yes"/>
      <point x="119" y="406"/>
      <point x="106" y="404"/>
      <point x="98" y="404" type="curve"/>
    </contour>
  </outline>
</glyph>
<glyph name="Q" format="1">
  <advance width="244"/>
  <unicode hex="0051"/>
  <outline>
    <contour>
      <point x="206" y="594" type="line" smooth="yes"/>
      <point x="206" y="654"/>
      <point x="186" y="743"/>
      <point x="106" y="743" type="curve" smooth="yes"/>
      <point x="31" y="743"/>
      <point x="9" y="670"/>
      <point x="9" y="594" type="curve" smooth="yes"/>
      <point x="9" y="141" type="line" smooth="yes"/>
      <point x="9" y="77"/>
      <point x="26" y="-2"/>
      <point x="99" y="-7" type="curve"/>
      <point x="100" y="-7"/>
      <point x="101" y="-8"/>
      <point x="103" y="-8" type="curve" smooth="yes"/>
      <point x="111" y="-8" type="line"/>
      <point x="123" y="-6" type="line"/>
      <point x="126" y="-6"/>
      <point x="129" y="-5"/>
      <point x="132" y="-4" type="curve"/>
      <point x="133" y="-4" type="line"/>
      <point x="144" y="-32"/>
      <point x="167" y="-56"/>
      <point x="214" y="-56" type="curve"/>
      <point x="214" y="34" type="line"/>
      <point x="204" y="37"/>
      <point x="197" y="43"/>
      <point x="191" y="52" type="curve"/>
      <point x="191" y="53" type="line"/>
      <point x="192" y="52"/>
      <point x="191" y="53"/>
      <point x="191" y="54" type="curve"/>
      <point x="200" y="80"/>
      <point x="206" y="111"/>
      <point x="206" y="141" type="curve" smooth="yes"/>
    </contour>
    <contour>
      <point x="121" y="141" type="line" smooth="yes"/>
      <point x="121" y="121"/>
      <point x="117" y="97"/>
      <point x="107" y="97" type="curve" smooth="yes"/>
      <point x="98" y="97"/>
      <point x="94" y="118"/>
      <point x="94" y="141" type="curve" smooth="yes"/>
      <point x="94" y="594" type="line" smooth="yes"/>
      <point x="94" y="618"/>
      <point x="96" y="638"/>
      <point x="107" y="638" type="curve" smooth="yes"/>
      <point x="118" y="638"/>
      <point x="121" y="617"/>
      <point x="121" y="594" type="curve" smooth="yes"/>
    </contour>
  </outline>
</glyph>
<glyph name="T" format="1">
  <advance width="220"/>
  <unicode hex="0054"/>
  <outline>
    <contour>
      <point x="53" y="624" type="line"/>
      <point x="53" y="0" type="line"/>
      <point x="136" y="0" type="line"/>
      <point x="136" y="624" type="line"/>
      <point x="197" y="624" type="line"/>
      <point x="197" y="735" type="line"/>
      <point x="-8" y="735" type="line"/>
      <point x="-8" y="624" type="line"/>
    </contour>
    <contour>
      <point x="110" y="368" type="move" name="center"/>
    </contour>
    <contour>
      <point x="110" y="0" type="move" name="bottom"/>
    </contour>
    <contour>
      <point x="110" y="735" type="move" name="top"/>
    </contour>
  </outline>
</glyph>
<glyph name="U" format="1">
  <advance width="250"/>
  <unicode hex="0055"/>
  <outline>
    <contour>
      <point x="122" y="735" type="line"/>
      <point x="122" y="141" type="line" smooth="yes"/>
      <point x="122" y="117"/>
      <point x="119" y="97"/>
      <point x="107" y="97" type="curve" smooth="yes"/>
      <point x="94" y="97"/>
      <point x="91" y="113"/>
      <point x="91" y="141" type="curve" smooth="yes"/>
      <point x="91" y="735" type="line"/>
      <point x="8" y="735" type="line"/>
      <point x="8" y="141" type="line" smooth="yes"/>
      <point x="8" y="66"/>
      <point x="27" y="-8"/>
      <point x="107" y="-8" type="curve" smooth="yes"/>
      <point x="182" y="-8"/>
      <point x="205" y="58"/>
      <point x="205" y="141" type="curve" smooth="yes"/>
      <point x="205" y="735" type="line"/>
    </contour>
    <contour>
      <point x="225" y="10" type="move" name="ogonek"/>
    </contour>
    <contour>
      <point x="125" y="735" type="move" name="top"/>
    </contour>
  </outline>
</glyph>
<glyph name="V" format="1">
  <advance width="240"/>
  <unicode hex="0056"/>
  <outline>
    <contour>
      <point x="-4" y="735" type="line"/>
      <point x="64" y="0" type="line"/>
      <point x="146" y="0" type="line"/>
      <point x="214" y="735" type="line"/>
      <point x="133" y="735" type="line"/>
      <point x="105" y="359" type="line"/>
      <point x="77" y="735" type="line"/>
    </contour>
  </outline>
</glyph>
<glyph name="W" format="1">
  <advance width="334"/>
  <unicode hex="0057"/>
  <outline>
    <contour>
      <point x="180" y="0" type="line"/>
      <point x="251" y="0" type="line"/>
      <point x="305" y="735" type="line"/>
      <point x="227" y="735" type="line"/>
      <point x="221" y="627"/>
      <point x="213" y="499"/>
      <point x="207" y="391" type="curve"/>
      <point x="182" y="735" type="line"/>
      <point x="121" y="735" type="line"/>
      <point x="97" y="390" type="line"/>
      <point x="76" y="735" type="line"/>
      <point x="-2" y="735" type="line"/>
      <point x="54" y="0" type="line"/>
      <point x="124" y="0" type="line"/>
      <point x="152" y="352" type="line"/>
    </contour>
    <contour>
      <point x="167" y="735" type="move" name="top"/>
    </contour>
  </outline>
</glyph>
<glyph name="X" format="1">
  <advance width="246"/>
  <unicode hex="0058"/>
  <outline>
    <contour>
      <point x="139" y="0" type="line"/>
      <point x="220" y="0" type="line"/>
      <point x="172" y="260" type="line" smooth="yes"/>
      <point x="164" y="302"/>
      <point x="157" y="345"/>
      <point x="149" y="386" type="curve"/>
      <point x="219" y="735" type="line"/>
      <point x="137" y="735" type="line"/>
      <point x="128" y="676"/>
      <point x="117" y="616"/>
      <point x="108" y="557" type="curve"/>
      <point x="79" y="735" type="line"/>
      <point x="-3" y="735" type="line"/>
      <point x="32" y="560" type="line" smooth="yes"/>
      <point x="42" y="505"/>
      <point x="56" y="441"/>
      <point x="67" y="386" type="curve"/>
      <point x="-4" y="0" type="line"/>
      <point x="77" y="0" type="line"/>
      <point x="108" y="203" type="line"/>
    </contour>
  </outline>
</glyph>
<glyph name="Y" format="1">
  <advance width="235"/>
  <unicode hex="0059"/>
  <outline>
    <contour>
      <point x="80" y="735" type="line"/>
      <point x="-2" y="735" type="line"/>
      <point x="67" y="313" type="line"/>
      <point x="67" y="0" type="line"/>
      <point x="150" y="0" type="line"/>
      <point x="150" y="313" type="line"/>
      <point x="219" y="735" type="line"/>
      <point x="137" y="735" type="line"/>
      <point x="128" y="663"/>
      <point x="117" y="592"/>
      <point x="108" y="521" type="curve"/>
    </contour>
    <contour>
      <point x="118" y="735" type="move" name="top"/>
    </contour>
  </outline>
</glyph>
<glyph name="Z" format="1">
  <advance width="214"/>
  <unicode hex="005A"/>
  <outline>
    <contour>
      <point x="-3" y="0" type="line"/>
      <point x="187" y="0" type="line"/>
      <point x="187" y="107" type="line"/>
      <point x="83" y="107" type="line"/>
      <point x="187" y="628" type="line"/>
      <point x="187" y="735" type="line"/>
      <point x="11" y="735" type="line"/>
      <point x="11" y="628" type="line"/>
      <point x="98" y="628" type="line"/>
      <point x="-3" y="116" type="line"/>
    </contour>
  </outline>
</glyph>
<glyph name="bracketleft" format="1">
  <advance width="188"/>
  <unicode hex="005B"/>
  <outline>
    <contour>
      <point x="150" y="735" type="line"/>
      <point x="15" y="735" type="line"/>
      <point x="15" y="-104" type="line"/>
      <point x="150" y="-104" type="line"/>
      <point x="150" y="-8" type="line"/>
      <point x="91" y="-8" type="line"/>
      <point x="91" y="639" type="line"/>
      <point x="150" y="639" type="line"/>
    </contour>
  </outline>
</glyph>
<glyph name="backslash" format="1">
  <advance width="262"/>
  <unicode hex="005C"/>
  <outline>
    <contour>
      <point x="59" y="826" type="line"/>
      <point x="-7" y="826" type="line"/>
      <point x="172" y="-88" type="line"/>
      <point x="239" y="-88" type="line"/>
    </contour>
  </outline>
</glyph>
<glyph name="bracketright" format="1">
  <advance width="188"/>
  <unicode hex="005D"/>
  <outline>
    <contour>
      <point x="8" y="639" type="line"/>
      <point x="67" y="639" type="line"/>
      <point x="67" y="-8" type="line"/>
      <point x="8" y="-8" type="line"/>
      <point x="8" y="-104" type="line"/>
      <point x="143" y="-104" type="line"/>
      <point x="143" y="735" type="line"/>
      <point x="8" y="735" type="line"/>
    </contour>
  </outline>
</glyph>
<glyph name="asciicircum" format="1">
  <advance width="353"/>
  <unicode hex="005E"/>
  <outline>
    <contour>
      <point x="118" y="735" type="line"/>
      <point x="7" y="395" type="line"/>
      <point x="83" y="395" type="line"/>
      <point x="161" y="633" type="line"/>
      <point x="240" y="395" type="line"/>
      <point x="316" y="395" type="line"/>
      <point x="205" y="735" type="line"/>
    </contour>
  </outline>
</glyph>
<glyph name="underscore" format="1">
  <advance width="354"/>
  <unicode hex="005F"/>
  <outline>
    <contour>
      <point x="13" y="-159" type="line"/>
      <point x="312" y="-159" type="line"/>
      <point x="312" y="-75" type="line"/>
      <point x="13" y="-75" type="line"/>
    </contour>
  </outline>
</glyph>
<glyph name="grave" format="1">
  <advance width="330"/>
  <unicode hex="0060"/>
  <outline>
    <contour>
      <point x="78" y="727" type="line"/>
      <point x="125" y="637" type="line"/>
      <point x="189" y="637" type="line"/>
      <point x="158" y="727" type="line"/>
    </contour>
    <contour>
      <point x="133.5" y="547" type="move" name="_top"/>
    </contour>
  </outline>
</glyph>
<glyph name="b" format="1">
  <advance width="231"/>
  <unicode hex="0062"/>
  <outline>
    <contour>
      <point x="15" y="0" type="line"/>
      <point x="94" y="0" type="line"/>
      <point x="94" y="30" type="line"/>
      <point x="99" y="18"/>
      <point x="125" y="-8"/>
      <point x="151" y="-8" type="curve" smooth="yes"/>
      <point x="200" y="-8"/>
      <point x="195" y="60"/>
      <point x="196" y="99" type="curve" smooth="yes"/>
      <point x="196" y="448" type="line" smooth="yes"/>
      <point x="196" y="493"/>
      <point x="186" y="555"/>
      <point x="135" y="555" type="curve" smooth="yes"/>
      <point x="121" y="555"/>
      <point x="97" y="537"/>
      <point x="94" y="524" type="curve"/>
      <point x="94" y="735" type="line"/>
      <point x="15" y="735" type="line"/>
    </contour>
    <contour>
      <point x="94" y="431" type="line" smooth="yes"/>
      <point x="94" y="447"/>
      <point x="98" y="467"/>
      <point x="108" y="467" type="curve" smooth="yes"/>
      <point x="117" y="467"/>
      <point x="122" y="450"/>
      <point x="122" y="431" type="curve" smooth="yes"/>
      <point x="122" y="125" type="line" smooth="yes"/>
      <point x="122" y="105"/>
      <point x="119" y="87"/>
      <point x="108" y="87" type="curve" smooth="yes"/>
      <point x="98" y="87"/>
      <point x="94" y="106"/>
      <point x="94" y="125" type="curve" smooth="yes"/>
    </contour>
  </outline>
</glyph>
<glyph name="d" format="1">
  <advance width="231"/>
  <unicode hex="0064"/>
  <outline>
    <contour>
      <point x="202" y="735" type="line"/>
      <point x="123" y="735" type="line"/>
      <point x="123" y="524" type="line"/>
      <point x="120" y="537"/>
      <point x="96" y="555"/>
      <point x="82" y="555" type="curve" smooth="yes"/>
      <point x="31" y="555"/>
      <point x="21" y="493"/>
      <point x="21" y="448" type="curve" smooth="yes"/>
      <point x="21" y="99" type="line" smooth="yes"/>
      <point x="22" y="60"/>
      <point x="17" y="-8"/>
      <point x="66" y="-8" type="curve" smooth="yes"/>
      <point x="92" y="-8"/>
      <point x="118" y="18"/>
      <point x="123" y="30" type="curve"/>
      <point x="123" y="0" type="line"/>
      <point x="202" y="0" type="line"/>
    </contour>
    <contour>
      <point x="123" y="125" type="line" smooth="yes"/>
      <point x="123" y="106"/>
      <point x="119" y="87"/>
      <point x="109" y="87" type="curve" smooth="yes"/>
      <point x="98" y="87"/>
      <point x="95" y="105"/>
      <point x="95" y="125" type="curve" smooth="yes"/>
      <point x="95" y="431" type="line" smooth="yes"/>
      <point x="95" y="450"/>
      <point x="100" y="467"/>
      <point x="109" y="467" type="curve" smooth="yes"/>
      <point x="119" y="467"/>
      <point x="123" y="447"/>
      <point x="123" y="431" type="curve" smooth="yes"/>
    </contour>
  </outline>
</glyph>
<glyph name="e" format="1">
  <advance width="223"/>
  <unicode hex="0065"/>
  <outline>
    <contour>
      <point x="121" y="196" type="line"/>
      <point x="121" y="136" type="line" smooth="yes"/>
      <point x="121" y="117"/>
      <point x="118" y="81"/>
      <point x="102" y="81" type="curve" smooth="yes"/>
      <point x="91" y="81"/>
      <point x="87" y="114"/>
      <point x="87" y="136" type="curve" smooth="yes"/>
      <point x="87" y="255" type="line"/>
      <point x="196" y="255" type="line"/>
      <point x="196" y="418" type="line" smooth="yes"/>
      <point x="196" y="481"/>
      <point x="186" y="555"/>
      <point x="102" y="555" type="curve" smooth="yes"/>
      <point x="35" y="555"/>
      <point x="10" y="480"/>
      <point x="10" y="415" type="curve" smooth="yes"/>
      <point x="10" y="130" type="line" smooth="yes"/>
      <point x="10" y="67"/>
      <point x="27" y="-8"/>
      <point x="97" y="-8" type="curve" smooth="yes"/>
      <point x="174" y="-8"/>
      <point x="196" y="56"/>
      <point x="196" y="127" type="curve" smooth="yes"/>
      <point x="196" y="196" type="line"/>
    </contour>
    <contour>
      <point x="87" y="411" type="line" smooth="yes"/>
      <point x="87" y="427"/>
      <point x="88" y="467"/>
      <point x="101" y="467" type="curve" smooth="yes"/>
      <point x="118" y="467"/>
      <point x="121" y="438"/>
      <point x="121" y="411" type="curve" smooth="yes"/>
      <point x="121" y="334" type="line"/>
      <point x="87" y="334" type="line"/>
    </contour>
    <contour>
      <point x="201" y="10" type="move" name="ogonek"/>
    </contour>
    <contour>
      <point x="112" y="0" type="move" name="bottom"/>
    </contour>
    <contour>
      <point x="112" y="547" type="move" name="top"/>
    </contour>
  </outline>
</glyph>
<glyph name="h" format="1">
  <advance width="229"/>
  <unicode hex="0068"/>
  <outline>
    <contour>
      <point x="94" y="431" type="line" smooth="yes"/>
      <point x="94" y="444"/>
      <point x="96" y="467"/>
      <point x="107" y="467" type="curve" smooth="yes"/>
      <point x="119" y="467"/>
      <point x="120" y="443"/>
      <point x="120" y="431" type="curve" smooth="yes"/>
      <point x="120" y="0" type="line"/>
      <point x="195" y="0" type="line"/>
      <point x="195" y="448" type="line" smooth="yes"/>
      <point x="195" y="481"/>
      <point x="187" y="555"/>
      <point x="137" y="555" type="curve" smooth="yes"/>
      <point x="120" y="555"/>
      <point x="96" y="537"/>
      <point x="94" y="524" type="curve"/>
      <point x="94" y="735" type="line"/>
      <point x="15" y="735" type="line"/>
      <point x="15" y="0" type="line"/>
      <point x="94" y="0" type="line"/>
    </contour>
    <contour>
      <point x="115" y="274" type="move" name="center"/>
    </contour>
    <contour>
      <point x="115" y="547" type="move" name="top"/>
    </contour>
  </outline>
</glyph>
<glyph name="i" format="1">
  <advance width="132"/>
  <unicode hex="0069"/>
  <outline>
    <contour>
      <point x="15" y="634" type="line"/>
      <point x="94" y="634" type="line"/>
      <point x="94" y="735" type="line"/>
      <point x="15" y="735" type="line"/>
    </contour>
    <contour>
      <point x="94" y="0" type="line"/>
      <point x="94" y="547" type="line"/>
      <point x="15" y="547" type="line"/>
      <point x="15" y="0" type="line"/>
    </contour>
  </outline>
</glyph>
<glyph name="j" format="1">
  <advance width="137"/>
  <unicode hex="006A"/>
  <outline>
    <contour>
      <point x="13" y="634" type="line"/>
      <point x="92" y="634" type="line"/>
      <point x="92" y="735" type="line"/>
      <point x="13" y="735" type="line"/>
    </contour>
    <contour>
      <point x="13" y="547" type="line"/>
      <point x="13" y="-36" type="line" smooth="yes"/>
      <point x="13" y="-59"/>
      <point x="16" y="-101"/>
      <point x="-20" y="-89" type="curve"/>
      <point x="-22" y="-180" type="line"/>
      <point x="-7" y="-187"/>
      <point x="2" y="-188"/>
      <point x="13" y="-188" type="curve" smooth="yes"/>
      <point x="51" y="-188"/>
      <point x="74" y="-157"/>
      <point x="83" y="-122" type="curve" smooth="yes"/>
      <point x="92" y="-86"/>
      <point x="92" y="-42"/>
      <point x="92" y="-14" type="curve" smooth="yes"/>
      <point x="92" y="547" type="line"/>
    </contour>
  </outline>
</glyph>
<glyph name="k" format="1">
  <advance width="218"/>
  <unicode hex="006B"/>
  <outline>
    <contour>
      <point x="15" y="735" type="line"/>
      <point x="15" y="0" type="line"/>
      <point x="91" y="0" type="line"/>
      <point x="91" y="232" type="line"/>
      <point x="126" y="0" type="line"/>
      <point x="202" y="0" type="line"/>
      <point x="137" y="359" type="line"/>
      <point x="204" y="547" type="line"/>
      <point x="128" y="547" type="line"/>
      <point x="91" y="433" type="line"/>
      <point x="91" y="735" type="line"/>
    </contour>
  </outline>
</glyph>
<glyph name="l" format="1">
  <advance width="137"/>
  <unicode hex="006C"/>
  <outline>
    <contour>
      <point x="94" y="0" type="line"/>
      <point x="94" y="735" type="line"/>
      <point x="15" y="735" type="line"/>
      <point x="15" y="0" type="line"/>
    </contour>
    <contour>
      <point x="69" y="547" type="move" name="top"/>
    </contour>
    <contour>
      <point x="69" y="0" type="move" name="bottom"/>
    </contour>
    <contour>
      <point x="117" y="547" type="move" name="topright"/>
    </contour>
  </outline>
</glyph>
<glyph name="m" format="1">
  <advance width="329"/>
  <unicode hex="006D"/>
  <outline>
    <contour>
      <point x="195" y="431" type="line" smooth="yes"/>
      <point x="195" y="443"/>
      <point x="199" y="467"/>
      <point x="210" y="467" type="curve" smooth="yes"/>
      <point x="221" y="467"/>
      <point x="225" y="452"/>
      <point x="225" y="431" type="curve" smooth="yes"/>
      <point x="225" y="0" type="line"/>
      <point x="298" y="0" type="line"/>
      <point x="298" y="448" type="line" smooth="yes"/>
      <point x="298" y="481"/>
      <point x="298" y="555"/>
      <point x="248" y="555" type="curve" smooth="yes"/>
      <point x="226" y="555"/>
      <point x="196" y="537"/>
      <point x="186" y="515" type="curve"/>
      <point x="184" y="535"/>
      <point x="170" y="555"/>
      <point x="148" y="555" type="curve" smooth="yes"/>
      <point x="129" y="555"/>
      <point x="106" y="538"/>
      <point x="94" y="518" type="curve"/>
      <point x="94" y="547" type="line"/>
      <point x="15" y="547" type="line"/>
      <point x="15" y="0" type="line"/>
      <point x="94" y="0" type="line"/>
      <point x="94" y="431" type="line" smooth="yes"/>
      <point x="94" y="450"/>
      <point x="99" y="467"/>
      <point x="108" y="467" type="curve" smooth="yes"/>
      <point x="118" y="467"/>
      <point x="123" y="454"/>
      <point x="123" y="433" type="curve" smooth="yes"/>
      <point x="123" y="0" type="line"/>
      <point x="195" y="0" type="line"/>
    </contour>
  </outline>
</glyph>
<glyph name="o" format="1">
  <advance width="223"/>
  <unicode hex="006F"/>
  <outline>
    <contour>
      <point x="195" y="414" type="line" smooth="yes"/>
      <point x="195" y="491"/>
      <point x="184" y="555"/>
      <point x="104" y="555" type="curve" smooth="yes"/>
      <point x="30" y="555"/>
      <point x="10" y="487"/>
      <point x="10" y="411" type="curve" smooth="yes"/>
      <point x="10" y="136" type="line" smooth="yes"/>
      <point x="10" y="68"/>
      <point x="23" y="-8"/>
      <point x="102" y="-8" type="curve" smooth="yes"/>
      <point x="174" y="-8"/>
      <point x="195" y="49"/>
      <point x="195" y="133" type="curve" smooth="yes"/>
    </contour>
    <contour>
      <point x="120" y="126" type="line"/>
      <point x="121" y="117"/>
      <point x="118" y="81"/>
      <point x="102" y="81" type="curve" smooth="yes"/>
      <point x="88" y="81"/>
      <point x="84" y="104"/>
      <point x="85" y="126" type="curve" smooth="yes"/>
      <point x="85" y="421" type="line" smooth="yes"/>
      <point x="85" y="448"/>
      <point x="89" y="467"/>
      <point x="103" y="467" type="curve" smooth="yes"/>
      <point x="119" y="467"/>
      <point x="121" y="446"/>
      <point x="120" y="421" type="curve"/>
    </contour>
  </outline>
</glyph>
<glyph name="p" format="1">
  <advance width="231"/>
  <unicode hex="0070"/>
  <outline>
    <contour>
      <point x="15" y="-188" type="line"/>
      <point x="94" y="-188" type="line"/>
      <point x="94" y="32" type="line"/>
      <point x="104" y="10"/>
      <point x="128" y="-8"/>
      <point x="146" y="-8" type="curve" smooth="yes"/>
      <point x="195" y="-8"/>
      <point x="200" y="60"/>
      <point x="201" y="99" type="curve" smooth="yes"/>
      <point x="201" y="448" type="line" smooth="yes"/>
      <point x="201" y="483"/>
      <point x="197" y="555"/>
      <point x="146" y="555" type="curve" smooth="yes"/>
      <point x="128" y="555"/>
      <point x="102" y="537"/>
      <point x="94" y="519" type="curve"/>
      <point x="94" y="547" type="line"/>
      <point x="15" y="547" type="line"/>
    </contour>
    <contour>
      <point x="94" y="430" type="line" smooth="yes"/>
      <point x="94" y="449"/>
      <point x="98" y="467"/>
      <point x="109" y="467" type="curve" smooth="yes"/>
      <point x="120" y="467"/>
      <point x="123" y="449"/>
      <point x="123" y="430" type="curve" smooth="yes"/>
      <point x="123" y="120" type="line" smooth="yes"/>
      <point x="123" y="98"/>
      <point x="119" y="87"/>
      <point x="109" y="87" type="curve" smooth="yes"/>
      <point x="99" y="87"/>
      <point x="94" y="97"/>
      <point x="94" y="120" type="curve" smooth="yes"/>
    </contour>
  </outline>
</glyph>
<glyph name="q" format="1">
  <advance width="231"/>
  <unicode hex="0071"/>
  <outline>
    <contour>
      <point x="201" y="547" type="line"/>
      <point x="122" y="547" type="line"/>
      <point x="122" y="519" type="line"/>
      <point x="114" y="537"/>
      <point x="88" y="555"/>
      <point x="70" y="555" type="curve" smooth="yes"/>
      <point x="19" y="555"/>
      <point x="15" y="483"/>
      <point x="15" y="448" type="curve" smooth="yes"/>
      <point x="15" y="99" type="line" smooth="yes"/>
      <point x="16" y="60"/>
      <point x="21" y="-8"/>
      <point x="70" y="-8" type="curve" smooth="yes"/>
      <point x="88" y="-8"/>
      <point x="112" y="10"/>
      <point x="122" y="32" type="curve"/>
      <point x="122" y="-188" type="line"/>
      <point x="201" y="-188" type="line"/>
    </contour>
    <contour>
      <point x="122" y="120" type="line" smooth="yes"/>
      <point x="122" y="97"/>
      <point x="117" y="87"/>
      <point x="107" y="87" type="curve" smooth="yes"/>
      <point x="97" y="87"/>
      <point x="93" y="98"/>
      <point x="93" y="120" type="curve" smooth="yes"/>
      <point x="93" y="430" type="line" smooth="yes"/>
      <point x="93" y="449"/>
      <point x="96" y="467"/>
      <point x="107" y="467" type="curve" smooth="yes"/>
      <point x="118" y="467"/>
      <point x="122" y="449"/>
      <point x="122" y="430" type="curve" smooth="yes"/>
    </contour>
  </outline>
</glyph>
<glyph name="t" format="1">
  <advance width="175"/>
  <unicode hex="0074"/>
  <outline>
    <contour>
      <point x="35" y="682" type="line"/>
      <point x="35" y="547" type="line"/>
      <point x="2" y="547" type="line"/>
      <point x="2" y="456" type="line"/>
      <point x="35" y="456" type="line"/>
      <point x="35" y="0" type="line"/>
      <point x="112" y="0" type="line"/>
      <point x="112" y="456" type="line"/>
      <point x="154" y="456" type="line"/>
      <point x="154" y="547" type="line"/>
      <point x="112" y="547" type="line"/>
      <point x="112" y="682" type="line"/>
    </contour>
  </outline>
</glyph>
<glyph name="v" format="1">
  <advance width="206"/>
  <unicode hex="0076"/>
  <outline>
    <contour>
      <point x="132" y="0" type="line"/>
      <point x="191" y="547" type="line"/>
      <point x="117" y="547" type="line"/>
      <point x="93" y="226" type="line"/>
      <point x="70" y="547" type="line"/>
      <point x="-4" y="547" type="line"/>
      <point x="54" y="0" type="line"/>
    </contour>
  </outline>
</glyph>
<glyph name="w" format="1">
  <advance width="295"/>
  <unicode hex="0077"/>
  <outline>
    <contour>
      <point x="220" y="0" type="line"/>
      <point x="268" y="547" type="line"/>
      <point x="197" y="547" type="line"/>
      <point x="178" y="296" type="line"/>
      <point x="157" y="547" type="line"/>
      <point x="109" y="547" type="line"/>
      <point x="87" y="296" type="line"/>
      <point x="68" y="547" type="line"/>
      <point x="-3" y="547" type="line"/>
      <point x="46" y="0" type="line"/>
      <point x="110" y="0" type="line"/>
      <point x="132" y="260" type="line"/>
      <point x="155" y="0" type="line"/>
    </contour>
    <contour>
      <point x="148" y="547" type="move" name="top"/>
    </contour>
  </outline>
</glyph>
<glyph name="x" format="1">
  <advance width="217"/>
  <unicode hex="0078"/>
  <outline>
    <contour>
      <point x="6" y="0" type="line"/>
      <point x="80" y="0" type="line"/>
      <point x="85" y="33"/>
      <point x="94" y="115"/>
      <point x="100" y="148" type="curve"/>
      <point x="122" y="0" type="line"/>
      <point x="195" y="0" type="line"/>
      <point x="139" y="282" type="line"/>
      <point x="201" y="547" type="line"/>
      <point x="127" y="547" type="line"/>
      <point x="100" y="410" type="line"/>
      <point x="75" y="547" type="line"/>
      <point x="1" y="547" type="line"/>
      <point x="62" y="282" type="line"/>
    </contour>
  </outline>
</glyph>
<glyph name="z" format="1">
  <advance width="186"/>
  <unicode hex="007A"/>
  <outline>
    <contour>
      <point x="-5" y="0" type="line"/>
      <point x="160" y="0" type="line"/>
      <point x="160" y="92" type="line"/>
      <point x="77" y="92" type="line"/>
      <point x="160" y="465" type="line"/>
      <point x="160" y="547" type="line"/>
      <point x="8" y="547" type="line"/>
      <point x="8" y="455" type="line"/>
      <point x="78" y="455" type="line"/>
      <point x="-5" y="82" type="line"/>
    </contour>
    <contour>
      <point x="93" y="547" type="move" name="top"/>
    </contour>
  </outline>
</glyph>
<glyph name="braceleft" format="1">
  <advance width="232"/>
  <unicode hex="007B"/>
  <outline>
    <contour>
      <point x="194" y="743" type="line"/>
      <point x="68" y="746"/>
      <point x="49" y="684"/>
      <point x="47" y="563" type="curve"/>
      <point x="47" y="369" type="line" smooth="yes"/>
      <point x="47" y="362"/>
      <point x="46" y="345"/>
      <point x="40" y="330" type="curve"/>
      <point x="35" y="314"/>
      <point x="25" y="301"/>
      <point x="9" y="301" type="curve"/>
      <point x="9" y="221" type="line"/>
      <point x="25" y="220"/>
      <point x="35" y="206"/>
      <point x="40" y="191" type="curve" smooth="yes"/>
      <point x="46" y="175"/>
      <point x="47" y="160"/>
      <point x="47" y="153" type="curve" smooth="yes"/>
      <point x="47" y="-41" type="line" smooth="yes"/>
      <point x="47" y="-157"/>
      <point x="62" y="-221"/>
      <point x="194" y="-221" type="curve"/>
      <point x="194" y="-137" type="line"/>
      <point x="130" y="-137"/>
      <point x="125" y="-104"/>
      <point x="123" y="-41" type="curve" smooth="yes"/>
      <point x="123" y="153" type="line" smooth="yes"/>
      <point x="123" y="200"/>
      <point x="102" y="242"/>
      <point x="73" y="261" type="curve"/>
      <point x="101" y="270"/>
      <point x="123" y="321"/>
      <point x="123" y="369" type="curve" smooth="yes"/>
      <point x="123" y="563" type="line" smooth="yes"/>
      <point x="123" y="618"/>
      <point x="127" y="657"/>
      <point x="194" y="659" type="curve"/>
    </contour>
  </outline>
</glyph>
<glyph name="bar" format="1">
  <advance width="134"/>
  <unicode hex="007C"/>
  <outline>
    <contour>
      <point x="89" y="-250" type="line"/>
      <point x="89" y="826" type="line"/>
      <point x="15" y="826" type="line"/>
      <point x="15" y="-250" type="line"/>
    </contour>
  </outline>
</glyph>
<glyph name="braceright" format="1">
  <advance width="232"/>
  <unicode hex="007D"/>
  <outline>
    <contour>
      <point x="8" y="659" type="line"/>
      <point x="75" y="657"/>
      <point x="79" y="618"/>
      <point x="79" y="563" type="curve" smooth="yes"/>
      <point x="79" y="369" type="line" smooth="yes"/>
      <point x="79" y="321"/>
      <point x="101" y="270"/>
      <point x="129" y="261" type="curve"/>
      <point x="100" y="242"/>
      <point x="79" y="200"/>
      <point x="79" y="153" type="curve" smooth="yes"/>
      <point x="79" y="-41" type="line"/>
      <point x="77" y="-104"/>
      <point x="72" y="-137"/>
      <point x="8" y="-137" type="curve"/>
      <point x="8" y="-221" type="line"/>
      <point x="140" y="-221"/>
      <point x="155" y="-157"/>
      <point x="155" y="-41" type="curve" smooth="yes"/>
      <point x="155" y="153" type="line" smooth="yes"/>
      <point x="155" y="160"/>
      <point x="156" y="175"/>
      <point x="162" y="191" type="curve" smooth="yes"/>
      <point x="167" y="206"/>
      <point x="177" y="220"/>
      <point x="193" y="221" type="curve"/>
      <point x="193" y="301" type="line"/>
      <point x="177" y="301"/>
      <point x="167" y="314"/>
      <point x="162" y="330" type="curve"/>
      <point x="156" y="345"/>
      <point x="155" y="362"/>
      <point x="155" y="369" type="curve" smooth="yes"/>
      <point x="155" y="563" type="line" smooth="yes"/>
      <point x="153" y="684"/>
      <point x="134" y="746"/>
      <point x="8" y="743" type="curve"/>
    </contour>
  </outline>
</glyph>
<glyph name="asciitilde" format="1">
  <advance width="405"/>
  <unicode hex="007E"/>
  <outline>
    <contour>
      <point x="80" y="623" type="line"/>
      <point x="84" y="646"/>
      <point x="90" y="662"/>
      <point x="95" y="676" type="curve"/>
      <point x="105" y="698"/>
      <point x="118" y="720"/>
      <point x="131" y="720" type="curve" smooth="yes"/>
      <point x="144" y="720"/>
      <point x="161" y="703"/>
      <point x="178" y="684" type="curve" smooth="yes"/>
      <point x="201" y="659"/>
      <point x="224" y="635"/>
      <point x="263" y="635" type="curve" smooth="yes"/>
      <point x="284" y="635"/>
      <point x="301" y="643"/>
      <point x="313" y="658" type="curve" smooth="yes"/>
      <point x="338" y="692"/>
      <point x="356" y="732"/>
      <point x="368" y="783" type="curve"/>
      <point x="311" y="822" type="line"/>
      <point x="311" y="820"/>
      <point x="309" y="814"/>
      <point x="309" y="811" type="curve"/>
      <point x="305" y="795"/>
      <point x="301" y="778"/>
      <point x="296" y="769" type="curve"/>
      <point x="287" y="746"/>
      <point x="275" y="725"/>
      <point x="263" y="725" type="curve" smooth="yes"/>
      <point x="251" y="725"/>
      <point x="235" y="741"/>
      <point x="218" y="760" type="curve"/>
      <point x="213" y="765" type="line" smooth="yes"/>
      <point x="194" y="785"/>
      <point x="165" y="810"/>
      <point x="131" y="810" type="curve" smooth="yes"/>
      <point x="110" y="810"/>
      <point x="92" y="802"/>
      <point x="79" y="787" type="curve"/>
      <point x="53" y="752"/>
      <point x="34" y="713"/>
      <point x="24" y="663" type="curve"/>
    </contour>
  </outline>
</glyph>
<glyph name="uni0093" format="1">
  <advance width="232"/>
  <unicode hex="0093"/>
  <outline>
    <contour>
      <point x="7" y="494" type="line"/>
      <point x="88" y="494" type="line"/>
      <point x="88" y="605" type="line"/>
      <point x="67" y="605" type="line"/>
      <point x="88" y="735" type="line"/>
      <point x="40" y="735" type="line"/>
      <point x="7" y="605" type="line"/>
    </contour>
    <contour>
      <point x="115" y="494" type="line"/>
      <point x="196" y="494" type="line"/>
      <point x="196" y="605" type="line"/>
      <point x="175" y="605" type="line"/>
      <point x="196" y="735" type="line"/>
      <point x="148" y="735" type="line"/>
      <point x="115" y="605" type="line"/>
    </contour>
  </outline>
</glyph>
<glyph name="exclamdown" format="1">
  <advance width="143"/>
  <unicode hex="00A1"/>
  <outline>
    <contour>
      <point x="16" y="436" type="line"/>
      <point x="97" y="436" type="line"/>
      <point x="97" y="547" type="line"/>
      <point x="16" y="547" type="line"/>
    </contour>
    <contour>
      <point x="13" y="-188" type="line"/>
      <point x="101" y="-188" type="line"/>
      <point x="85" y="349" type="line"/>
      <point x="29" y="349" type="line"/>
    </contour>
  </outline>
</glyph>
<glyph name="cent" format="1">
  <advance width="217"/>
  <unicode hex="00A2"/>
  <outline>
    <contour>
      <point x="86" y="522" type="line" smooth="yes"/>
      <point x="86" y="542"/>
      <point x="93" y="562"/>
      <point x="102" y="562" type="curve" smooth="yes"/>
      <point x="111" y="562"/>
      <point x="117" y="555"/>
      <point x="117" y="522" type="curve" smooth="yes"/>
      <point x="117" y="450" type="line"/>
      <point x="193" y="450" type="line"/>
      <point x="193" y="503" type="line" smooth="yes"/>
      <point x="193" y="566"/>
      <point x="190" y="635"/>
      <point x="125" y="648" type="curve"/>
      <point x="125" y="765" type="line"/>
      <point x="71" y="765" type="line"/>
      <point x="71" y="647" type="line"/>
      <point x="18" y="629"/>
      <point x="7" y="546"/>
      <point x="7" y="498" type="curve" smooth="yes"/>
      <point x="7" y="239" type="line" smooth="yes"/>
      <point x="7" y="193"/>
      <point x="17" y="106"/>
      <point x="72" y="87" type="curve"/>
      <point x="71" y="-60" type="line"/>
      <point x="125" y="-60" type="line"/>
      <point x="125" y="89" type="line"/>
      <point x="187" y="103"/>
      <point x="192" y="165"/>
      <point x="193" y="234" type="curve" smooth="yes"/>
      <point x="193" y="297" type="line"/>
      <point x="117" y="297" type="line"/>
      <point x="117" y="221" type="line" smooth="yes"/>
      <point x="117" y="188"/>
      <point x="111" y="178"/>
      <point x="101" y="178" type="curve" smooth="yes"/>
      <point x="91" y="178"/>
      <point x="86" y="201"/>
      <point x="86" y="221" type="curve" smooth="yes"/>
    </contour>
  </outline>
</glyph>
<glyph name="sterling" format="1">
  <advance width="269"/>
  <unicode hex="00A3"/>
  <outline>
    <contour>
      <point x="221" y="547" type="line"/>
      <point x="221" y="596"/>
      <point x="216" y="646"/>
      <point x="202" y="683" type="curve" smooth="yes"/>
      <point x="187" y="719"/>
      <point x="161" y="744"/>
      <point x="115" y="743" type="curve" smooth="yes"/>
      <point x="76" y="742"/>
      <point x="52" y="718"/>
      <point x="38" y="683" type="curve" smooth="yes"/>
      <point x="24" y="648"/>
      <point x="19" y="602"/>
      <point x="19" y="561" type="curve" smooth="yes"/>
      <point x="19" y="524"/>
      <point x="28" y="469"/>
      <point x="38" y="415" type="curve" smooth="yes"/>
      <point x="40" y="404"/>
      <point x="42" y="394"/>
      <point x="45" y="384" type="curve"/>
      <point x="1" y="384" type="line"/>
      <point x="1" y="317" type="line"/>
      <point x="56" y="317" type="line"/>
      <point x="61" y="289"/>
      <point x="65" y="255"/>
      <point x="65" y="232" type="curve" smooth="yes"/>
      <point x="65" y="204"/>
      <point x="61" y="166"/>
      <point x="54" y="135" type="curve"/>
      <point x="47" y="131"/>
      <point x="34" y="122"/>
      <point x="28" y="113" type="curve" smooth="yes"/>
      <point x="10" y="86"/>
      <point x="-1" y="62"/>
      <point x="-8" y="33" type="curve"/>
      <point x="50" y="-20" type="line"/>
      <point x="54" y="-4"/>
      <point x="57" y="8"/>
      <point x="61" y="17" type="curve" smooth="yes"/>
      <point x="66" y="29"/>
      <point x="72" y="42"/>
      <point x="77" y="42" type="curve" smooth="yes"/>
      <point x="94" y="42"/>
      <point x="123" y="-8"/>
      <point x="157" y="-8" type="curve" smooth="yes"/>
      <point x="202" y="-8"/>
      <point x="235" y="55"/>
      <point x="240" y="177" type="curve"/>
      <point x="167" y="191" type="line"/>
      <point x="166" y="155"/>
      <point x="163" y="131"/>
      <point x="158" y="118" type="curve" smooth="yes"/>
      <point x="150" y="97" type="line"/>
      <point x="136" y="110"/>
      <point x="127" y="119"/>
      <point x="120" y="125" type="curve"/>
      <point x="133" y="164"/>
      <point x="139" y="205"/>
      <point x="139" y="232" type="curve" smooth="yes"/>
      <point x="139" y="253"/>
      <point x="136" y="286"/>
      <point x="131" y="317" type="curve"/>
      <point x="182" y="317" type="line"/>
      <point x="182" y="384" type="line"/>
      <point x="121" y="384" type="line"/>
      <point x="107" y="460"/>
      <point x="98" y="515"/>
      <point x="98" y="561" type="curve" smooth="yes"/>
      <point x="98" y="567"/>
      <point x="99" y="643"/>
      <point x="119" y="643" type="curve" smooth="yes"/>
      <point x="141" y="643"/>
      <point x="140" y="567"/>
      <point x="140" y="547" type="curve"/>
    </contour>
  </outline>
</glyph>
<glyph name="yen" format="1">
  <advance width="241"/>
  <unicode hex="00A5"/>
  <outline>
    <contour>
      <point x="19" y="166" type="line"/>
      <point x="70" y="166" type="line"/>
      <point x="70" y="0" type="line"/>
      <point x="153" y="0" type="line"/>
      <point x="153" y="166" type="line"/>
      <point x="205" y="166" type="line"/>
      <point x="205" y="233" type="line"/>
      <point x="153" y="233" type="line"/>
      <point x="153" y="300" type="line"/>
      <point x="205" y="300" type="line"/>
      <point x="205" y="367" type="line"/>
      <point x="161" y="367" type="line"/>
      <point x="226" y="735" type="line"/>
      <point x="144" y="735" type="line"/>
      <point x="137" y="677"/>
      <point x="119" y="579"/>
      <point x="111" y="521" type="curve"/>
      <point x="80" y="735" type="line"/>
      <point x="-2" y="735" type="line"/>
      <point x="62" y="367" type="line"/>
      <point x="19" y="367" type="line"/>
      <point x="19" y="300" type="line"/>
      <point x="70" y="300" type="line"/>
      <point x="70" y="233" type="line"/>
      <point x="19" y="233" type="line"/>
    </contour>
  </outline>
</glyph>
<glyph name="dieresis" format="1">
  <advance width="330"/>
  <unicode hex="00A8"/>
  <outline>
    <contour>
      <point x="61" y="637" type="line"/>
      <point x="135" y="637" type="line"/>
      <point x="135" y="735" type="line"/>
      <point x="61" y="735" type="line"/>
    </contour>
    <contour>
      <point x="165" y="637" type="line"/>
      <point x="239" y="637" type="line"/>
      <point x="239" y="735" type="line"/>
      <point x="165" y="735" type="line"/>
    </contour>
    <contour>
      <point x="150" y="547" type="move" name="_top"/>
    </contour>
  </outline>
</glyph>
<glyph name="copyright" format="1">
  <advance width="512"/>
  <unicode hex="00A9"/>
  <outline>
    <contour>
      <point x="7" y="367" type="curve" smooth="yes"/>
      <point x="7" y="265"/>
      <point x="32" y="171"/>
      <point x="74" y="102" type="curve" smooth="yes"/>
      <point x="114" y="34"/>
      <point x="174" y="-8"/>
      <point x="241" y="-8" type="curve" smooth="yes"/>
      <point x="308" y="-8"/>
      <point x="367" y="34"/>
      <point x="408" y="102" type="curve" smooth="yes"/>
      <point x="450" y="171"/>
      <point x="475" y="265"/>
      <point x="475" y="367" type="curve" smooth="yes"/>
      <point x="475" y="470"/>
      <point x="450" y="564"/>
      <point x="408" y="633" type="curve" smooth="yes"/>
      <point x="367" y="701"/>
      <point x="308" y="743"/>
      <point x="241" y="743" type="curve" smooth="yes"/>
      <point x="174" y="743"/>
      <point x="114" y="701"/>
      <point x="74" y="633" type="curve" smooth="yes"/>
      <point x="32" y="564"/>
      <point x="7" y="470"/>
    </contour>
    <contour>
      <point x="59" y="367" type="curve" smooth="yes"/>
      <point x="59" y="455"/>
      <point x="80" y="535"/>
      <point x="115" y="592" type="curve" smooth="yes"/>
      <point x="150" y="650"/>
      <point x="193" y="685"/>
      <point x="241" y="685" type="curve" smooth="yes"/>
      <point x="288" y="685"/>
      <point x="333" y="650"/>
      <point x="368" y="592" type="curve" smooth="yes"/>
      <point x="401" y="535"/>
      <point x="422" y="455"/>
      <point x="422" y="367" type="curve" smooth="yes"/>
      <point x="422" y="279"/>
      <point x="401" y="201"/>
      <point x="368" y="144" type="curve" smooth="yes"/>
      <point x="333" y="86"/>
      <point x="288" y="50"/>
      <point x="241" y="50" type="curve" smooth="yes"/>
      <point x="193" y="50"/>
      <point x="150" y="86"/>
      <point x="115" y="144" type="curve" smooth="yes"/>
      <point x="80" y="201"/>
      <point x="59" y="279"/>
    </contour>
    <contour>
      <point x="246" y="299" type="line"/>
      <point x="246" y="238" type="line"/>
      <point x="247" y="234"/>
      <point x="246" y="226"/>
      <point x="245" y="222" type="curve" smooth="yes"/>
      <point x="243" y="215"/>
      <point x="243" y="207"/>
      <point x="241" y="207" type="curve"/>
      <point x="241" y="207"/>
      <point x="242" y="208"/>
      <point x="241" y="210" type="curve"/>
      <point x="237" y="217"/>
      <point x="235" y="225"/>
      <point x="235" y="238" type="curve" smooth="yes"/>
      <point x="235" y="497" type="line" smooth="yes"/>
      <point x="235" y="501"/>
      <point x="236" y="508"/>
      <point x="237" y="512" type="curve"/>
      <point x="237" y="513"/>
      <point x="238" y="514"/>
      <point x="238" y="515" type="curve"/>
      <point x="241" y="525" type="line"/>
      <point x="241" y="524"/>
      <point x="241" y="523"/>
      <point x="242" y="523" type="curve"/>
      <point x="245" y="517"/>
      <point x="247" y="508"/>
      <point x="246" y="497" type="curve"/>
      <point x="246" y="436" type="line"/>
      <point x="304" y="436" type="line"/>
      <point x="304" y="497" type="line" smooth="yes"/>
      <point x="304" y="515"/>
      <point x="301" y="531"/>
      <point x="297" y="545" type="curve" smooth="yes"/>
      <point x="290" y="569"/>
      <point x="275" y="593"/>
      <point x="240" y="593" type="curve" smooth="yes"/>
      <point x="222" y="593"/>
      <point x="208" y="588"/>
      <point x="200" y="578" type="curve" smooth="yes"/>
      <point x="183" y="556"/>
      <point x="175" y="531"/>
      <point x="175" y="497" type="curve" smooth="yes"/>
      <point x="175" y="238" type="line" smooth="yes"/>
      <point x="175" y="220"/>
      <point x="177" y="204"/>
      <point x="181" y="190" type="curve" smooth="yes"/>
      <point x="188" y="166"/>
      <point x="204" y="142"/>
      <point x="240" y="142" type="curve" smooth="yes"/>
      <point x="257" y="142"/>
      <point x="272" y="148"/>
      <point x="279" y="157" type="curve" smooth="yes"/>
      <point x="294" y="178"/>
      <point x="302" y="205"/>
      <point x="304" y="238" type="curve"/>
      <point x="304" y="299" type="line"/>
    </contour>
  </outline>
</glyph>
<glyph name="registered" format="1">
  <advance width="512"/>
  <unicode hex="00AE"/>
  <outline>
    <contour>
      <point x="7" y="367" type="curve" smooth="yes"/>
      <point x="7" y="265"/>
      <point x="32" y="171"/>
      <point x="74" y="102" type="curve" smooth="yes"/>
      <point x="114" y="34"/>
      <point x="174" y="-8"/>
      <point x="241" y="-8" type="curve" smooth="yes"/>
      <point x="308" y="-8"/>
      <point x="367" y="34"/>
      <point x="408" y="102" type="curve" smooth="yes"/>
      <point x="450" y="171"/>
      <point x="475" y="265"/>
      <point x="475" y="367" type="curve" smooth="yes"/>
      <point x="475" y="470"/>
      <point x="450" y="564"/>
      <point x="408" y="633" type="curve" smooth="yes"/>
      <point x="367" y="701"/>
      <point x="308" y="743"/>
      <point x="241" y="743" type="curve" smooth="yes"/>
      <point x="174" y="743"/>
      <point x="114" y="701"/>
      <point x="74" y="633" type="curve" smooth="yes"/>
      <point x="32" y="564"/>
      <point x="7" y="470"/>
    </contour>
    <contour>
      <point x="59" y="367" type="curve" smooth="yes"/>
      <point x="59" y="455"/>
      <point x="80" y="535"/>
      <point x="115" y="592" type="curve" smooth="yes"/>
      <point x="150" y="650"/>
      <point x="193" y="685"/>
      <point x="241" y="685" type="curve" smooth="yes"/>
      <point x="288" y="685"/>
      <point x="333" y="650"/>
      <point x="368" y="592" type="curve" smooth="yes"/>
      <point x="401" y="535"/>
      <point x="422" y="455"/>
      <point x="422" y="367" type="curve" smooth="yes"/>
      <point x="422" y="279"/>
      <point x="401" y="201"/>
      <point x="368" y="144" type="curve" smooth="yes"/>
      <point x="333" y="86"/>
      <point x="288" y="50"/>
      <point x="241" y="50" type="curve" smooth="yes"/>
      <point x="193" y="50"/>
      <point x="150" y="86"/>
      <point x="115" y="144" type="curve" smooth="yes"/>
      <point x="80" y="201"/>
      <point x="59" y="279"/>
    </contour>
    <contour>
      <point x="174" y="582" type="line"/>
      <point x="174" y="153" type="line"/>
      <point x="235" y="153" type="line"/>
      <point x="235" y="318" type="line"/>
      <point x="260" y="153" type="line"/>
      <point x="323" y="153" type="line"/>
      <point x="292" y="348" type="line"/>
      <point x="291" y="348" type="line"/>
      <point x="316" y="385"/>
      <point x="317" y="415"/>
      <point x="317" y="456" type="curve" smooth="yes"/>
      <point x="317" y="535"/>
      <point x="295" y="582"/>
      <point x="241" y="582" type="curve" smooth="yes"/>
    </contour>
    <contour>
      <point x="239" y="519" type="line" smooth="yes"/>
      <point x="245" y="519"/>
      <point x="251" y="510"/>
      <point x="254" y="498" type="curve"/>
      <point x="258" y="486"/>
      <point x="259" y="470"/>
      <point x="259" y="455" type="curve" smooth="yes"/>
      <point x="259" y="401"/>
      <point x="245" y="393"/>
      <point x="239" y="393" type="curve" smooth="yes"/>
      <point x="235" y="393" type="line"/>
      <point x="235" y="519" type="line"/>
    </contour>
  </outline>
</glyph>
<glyph name="macron" format="1">
  <advance width="330"/>
  <unicode hex="00AF"/>
  <outline>
    <contour>
      <point x="83" y="642" type="line"/>
      <point x="217" y="642" type="line"/>
      <point x="217" y="721" type="line"/>
      <point x="83" y="721" type="line"/>
    </contour>
  </outline>
</glyph>
<glyph name="acute" format="1">
  <advance width="330"/>
  <unicode hex="00B4"/>
  <outline>
    <contour>
      <point x="142" y="727" type="line"/>
      <point x="111" y="637" type="line"/>
      <point x="175" y="637" type="line"/>
      <point x="222" y="727" type="line"/>
    </contour>
  </outline>
</glyph>
<glyph name="periodcentered" format="1">
  <advance width="93"/>
  <unicode hex="00B7"/>
  <outline>
    <contour>
      <point x="-9" y="317" type="line"/>
      <point x="72" y="317" type="line"/>
      <point x="72" y="428" type="line"/>
      <point x="-9" y="428" type="line"/>
    </contour>
  </outline>
</glyph>
<glyph name="cedilla" format="1">
  <advance width="330"/>
  <unicode hex="00B8"/>
  <outline>
    <contour>
      <point x="184" y="-54" type="line"/>
      <point x="116" y="-54" type="line"/>
      <point x="116" y="-123" type="line"/>
      <point x="138" y="-123" type="line"/>
      <point x="122" y="-188" type="line"/>
      <point x="171" y="-188" type="line"/>
      <point x="184" y="-123" type="line"/>
    </contour>
    <contour>
      <point x="150" y="0" type="move" name="_bottom"/>
    </contour>
  </outline>
</glyph>
<glyph name="questiondown" format="1">
  <advance width="219"/>
  <unicode hex="00BF"/>
  <outline>
    <contour>
      <point x="130" y="547" type="line"/>
      <point x="49" y="547" type="line"/>
      <point x="49" y="436" type="line"/>
      <point x="130" y="436" type="line"/>
    </contour>
    <contour>
      <point x="55" y="349" type="line"/>
      <point x="55" y="224" type="line" smooth="yes"/>
      <point x="55" y="205"/>
      <point x="55" y="188"/>
      <point x="52" y="171" type="curve" smooth="yes"/>
      <point x="47" y="139"/>
      <point x="38" y="111"/>
      <point x="28" y="87" type="curve" smooth="yes"/>
      <point x="23" y="76"/>
      <point x="19" y="65"/>
      <point x="15" y="55" type="curve" smooth="yes"/>
      <point x="0" y="19"/>
      <point x="-14" y="-21"/>
      <point x="-14" y="-62" type="curve" smooth="yes"/>
      <point x="-14" y="-116"/>
      <point x="-1" y="-192"/>
      <point x="78" y="-192" type="curve" smooth="yes"/>
      <point x="111" y="-192"/>
      <point x="136" y="-170"/>
      <point x="153" y="-143" type="curve" smooth="yes"/>
      <point x="170" y="-115"/>
      <point x="182" y="-84"/>
      <point x="185" y="-68" type="curve"/>
      <point x="125" y="-27" type="line"/>
      <point x="122" y="-36"/>
      <point x="118" y="-55"/>
      <point x="110" y="-71" type="curve" smooth="yes"/>
      <point x="102" y="-86"/>
      <point x="93" y="-98"/>
      <point x="80" y="-98" type="curve" smooth="yes"/>
      <point x="36" y="-98"/>
      <point x="66" y="-18"/>
      <point x="75" y="3" type="curve" smooth="yes"/>
      <point x="85" y="28"/>
      <point x="97" y="56"/>
      <point x="106" y="92" type="curve" smooth="yes"/>
      <point x="115" y="128"/>
      <point x="126" y="171"/>
      <point x="126" y="224" type="curve" smooth="yes"/>
      <point x="126" y="349" type="line"/>
    </contour>
  </outline>
</glyph>
<glyph name="Aacute" format="1">
  <advance width="254"/>
  <unicode hex="00C1"/>
  <outline>
    <contour>
      <point x="108" y="890" type="line"/>
      <point x="77" y="800" type="line"/>
      <point x="141" y="800" type="line"/>
      <point x="188" y="890" type="line"/>
    </contour>
    <contour>
      <point x="78" y="0" type="line"/>
      <point x="89" y="150" type="line"/>
      <point x="135" y="150" type="line"/>
      <point x="146" y="0" type="line"/>
      <point x="227" y="0" type="line"/>
      <point x="161" y="735" type="line"/>
      <point x="64" y="735" type="line"/>
      <point x="-3" y="0" type="line"/>
    </contour>
    <contour>
      <point x="128" y="264" type="line"/>
      <point x="97" y="264" type="line"/>
      <point x="112" y="556" type="line"/>
    </contour>
  </outline>
</glyph>
<glyph name="Acircumflex" format="1">
  <advance width="254"/>
  <unicode hex="00C2"/>
  <outline>
    <contour>
      <point x="73" y="890" type="line"/>
      <point x="31" y="800" type="line"/>
      <point x="96" y="800" type="line"/>
      <point x="113" y="839" type="line"/>
      <point x="130" y="800" type="line"/>
      <point x="195" y="800" type="line"/>
      <point x="154" y="890" type="line"/>
    </contour>
    <contour>
      <point x="78" y="0" type="line"/>
      <point x="89" y="150" type="line"/>
      <point x="135" y="150" type="line"/>
      <point x="146" y="0" type="line"/>
      <point x="227" y="0" type="line"/>
      <point x="161" y="735" type="line"/>
      <point x="64" y="735" type="line"/>
      <point x="-3" y="0" type="line"/>
    </contour>
    <contour>
      <point x="128" y="264" type="line"/>
      <point x="97" y="264" type="line"/>
      <point x="112" y="556" type="line"/>
    </contour>
  </outline>
</glyph>
<glyph name="Atilde" format="1">
  <advance width="254"/>
  <unicode hex="00C3"/>
  <outline>
    <contour>
      <point x="46" y="783" type="line"/>
      <point x="51" y="790"/>
      <point x="74" y="813"/>
      <point x="86" y="813" type="curve" smooth="yes"/>
      <point x="106" y="813"/>
      <point x="117" y="794"/>
      <point x="140" y="794" type="curve" smooth="yes"/>
      <point x="158" y="794"/>
      <point x="172" y="806"/>
      <point x="180" y="819" type="curve"/>
      <point x="180" y="902" type="line"/>
      <point x="174" y="892"/>
      <point x="153" y="873"/>
      <point x="140" y="873" type="curve" smooth="yes"/>
      <point x="121" y="873"/>
      <point x="110" y="890"/>
      <point x="87" y="890" type="curve" smooth="yes"/>
      <point x="72" y="890"/>
      <point x="55" y="882"/>
      <point x="46" y="869" type="curve"/>
    </contour>
    <contour>
      <point x="78" y="0" type="line"/>
      <point x="89" y="150" type="line"/>
      <point x="135" y="150" type="line"/>
      <point x="146" y="0" type="line"/>
      <point x="227" y="0" type="line"/>
      <point x="161" y="735" type="line"/>
      <point x="64" y="735" type="line"/>
      <point x="-3" y="0" type="line"/>
    </contour>
    <contour>
      <point x="128" y="264" type="line"/>
      <point x="97" y="264" type="line"/>
      <point x="112" y="556" type="line"/>
    </contour>
  </outline>
</glyph>
<glyph name="Adieresis" format="1">
  <advance width="254"/>
  <unicode hex="00C4"/>
  <outline>
    <contour>
      <point x="28" y="800" type="line"/>
      <point x="102" y="800" type="line"/>
      <point x="102" y="898" type="line"/>
      <point x="28" y="898" type="line"/>
    </contour>
    <contour>
      <point x="125" y="800" type="line"/>
      <point x="198" y="800" type="line"/>
      <point x="198" y="898" type="line"/>
      <point x="125" y="898" type="line"/>
    </contour>
    <contour>
      <point x="78" y="0" type="line"/>
      <point x="90" y="150" type="line"/>
      <point x="134" y="150" type="line"/>
      <point x="146" y="0" type="line"/>
      <point x="227" y="0" type="line"/>
      <point x="161" y="735" type="line"/>
      <point x="64" y="735" type="line"/>
      <point x="-3" y="0" type="line"/>
    </contour>
    <contour>
      <point x="127" y="264" type="line"/>
      <point x="98" y="264" type="line"/>
      <point x="112" y="526" type="line"/>
    </contour>
  </outline>
</glyph>
<glyph name="Aring" format="1">
  <advance width="254"/>
  <unicode hex="00C5"/>
  <outline>
    <contour>
      <point x="59" y="819"/>
      <point x="83" y="790"/>
      <point x="113" y="790" type="curve" smooth="yes"/>
      <point x="142" y="790"/>
      <point x="166" y="819"/>
      <point x="166" y="860" type="curve" smooth="yes"/>
      <point x="166" y="901"/>
      <point x="142" y="930"/>
      <point x="113" y="930" type="curve" smooth="yes"/>
      <point x="83" y="930"/>
      <point x="59" y="901"/>
      <point x="59" y="860" type="curve" smooth="yes"/>
    </contour>
    <contour>
      <point x="98" y="879"/>
      <point x="106" y="891"/>
      <point x="113" y="891" type="curve" smooth="yes"/>
      <point x="119" y="891"/>
      <point x="128" y="879"/>
      <point x="128" y="860" type="curve" smooth="yes"/>
      <point x="128" y="841"/>
      <point x="119" y="828"/>
      <point x="113" y="828" type="curve" smooth="yes"/>
      <point x="106" y="828"/>
      <point x="98" y="841"/>
      <point x="98" y="860" type="curve" smooth="yes"/>
    </contour>
    <contour>
      <point x="78" y="0" type="line"/>
      <point x="90" y="150" type="line"/>
      <point x="134" y="150" type="line"/>
      <point x="146" y="0" type="line"/>
      <point x="227" y="0" type="line"/>
      <point x="161" y="735" type="line"/>
      <point x="64" y="735" type="line"/>
      <point x="-3" y="0" type="line"/>
    </contour>
    <contour>
      <point x="127" y="264" type="line"/>
      <point x="98" y="264" type="line"/>
      <point x="112" y="526" type="line"/>
    </contour>
  </outline>
</glyph>
<glyph name="AE" format="1">
  <advance width="352"/>
  <unicode hex="00C6"/>
  <outline>
    <contour>
      <point x="153" y="0" type="line"/>
      <point x="319" y="0" type="line"/>
      <point x="319" y="111" type="line"/>
      <point x="236" y="111" type="line"/>
      <point x="236" y="313" type="line"/>
      <point x="296" y="313" type="line"/>
      <point x="296" y="431" type="line"/>
      <point x="236" y="431" type="line"/>
      <point x="236" y="624" type="line"/>
      <point x="319" y="624" type="line"/>
      <point x="319" y="735" type="line"/>
      <point x="119" y="735" type="line"/>
      <point x="-4" y="0" type="line"/>
      <point x="78" y="0" type="line"/>
      <point x="104" y="150" type="line"/>
      <point x="153" y="150" type="line"/>
    </contour>
    <contour>
      <point x="153" y="538" type="line"/>
      <point x="153" y="485"/>
      <point x="153" y="309"/>
      <point x="153" y="264" type="curve"/>
      <point x="121" y="264" type="line"/>
    </contour>
  </outline>
</glyph>
<glyph name="Ccedilla" format="1">
  <advance width="238"/>
  <unicode hex="00C7"/>
  <outline>
    <contour>
      <point x="138" y="-54" type="line"/>
      <point x="70" y="-54" type="line"/>
      <point x="70" y="-123" type="line"/>
      <point x="88" y="-123" type="line"/>
      <point x="76" y="-188" type="line"/>
      <point x="125" y="-188" type="line"/>
      <point x="138" y="-123" type="line"/>
    </contour>
    <contour>
      <point x="125" y="252" type="line"/>
      <point x="125" y="141" type="line" smooth="yes"/>
      <point x="125" y="127"/>
      <point x="124" y="97"/>
      <point x="108" y="97" type="curve" smooth="yes"/>
      <point x="96" y="97"/>
      <point x="94" y="127"/>
      <point x="94" y="141" type="curve" smooth="yes"/>
      <point x="94" y="598" type="line" smooth="yes"/>
      <point x="94" y="614"/>
      <point x="95" y="638"/>
      <point x="108" y="638" type="curve" smooth="yes"/>
      <point x="124" y="638"/>
      <point x="125" y="607"/>
      <point x="125" y="594" type="curve" smooth="yes"/>
      <point x="125" y="483" type="line"/>
      <point x="206" y="483" type="line"/>
      <point x="206" y="594" type="line" smooth="yes"/>
      <point x="206" y="646"/>
      <point x="187" y="743"/>
      <point x="107" y="743" type="curve" smooth="yes"/>
      <point x="32" y="743"/>
      <point x="9" y="659"/>
      <point x="9" y="594" type="curve" smooth="yes"/>
      <point x="9" y="141" type="line" smooth="yes"/>
      <point x="9" y="76"/>
      <point x="29" y="-8"/>
      <point x="107" y="-8" type="curve" smooth="yes"/>
      <point x="183" y="-8"/>
      <point x="206" y="64"/>
      <point x="206" y="141" type="curve" smooth="yes"/>
      <point x="206" y="252" type="line"/>
    </contour>
  </outline>
</glyph>
<glyph name="Egrave" format="1">
  <advance width="214"/>
  <unicode hex="00C8"/>
  <outline>
    <contour>
      <point x="24" y="890" type="line"/>
      <point x="72" y="800" type="line"/>
      <point x="136" y="800" type="line"/>
      <point x="104" y="890" type="line"/>
    </contour>
    <contour>
      <point x="15" y="0" type="line"/>
      <point x="181" y="0" type="line"/>
      <point x="181" y="111" type="line"/>
      <point x="98" y="111" type="line"/>
      <point x="98" y="313" type="line"/>
      <point x="158" y="313" type="line"/>
      <point x="158" y="431" type="line"/>
      <point x="98" y="431" type="line"/>
      <point x="98" y="624" type="line"/>
      <point x="181" y="624" type="line"/>
      <point x="181" y="735" type="line"/>
      <point x="15" y="735" type="line"/>
    </contour>
  </outline>
</glyph>
<glyph name="Eacute" format="1">
  <advance width="214"/>
  <unicode hex="00C9"/>
  <outline>
    <contour>
      <point x="91" y="890" type="line"/>
      <point x="60" y="800" type="line"/>
      <point x="124" y="800" type="line"/>
      <point x="171" y="890" type="line"/>
    </contour>
    <contour>
      <point x="15" y="0" type="line"/>
      <point x="181" y="0" type="line"/>
      <point x="181" y="111" type="line"/>
      <point x="98" y="111" type="line"/>
      <point x="98" y="313" type="line"/>
      <point x="158" y="313" type="line"/>
      <point x="158" y="431" type="line"/>
      <point x="98" y="431" type="line"/>
      <point x="98" y="624" type="line"/>
      <point x="181" y="624" type="line"/>
      <point x="181" y="735" type="line"/>
      <point x="15" y="735" type="line"/>
    </contour>
  </outline>
</glyph>
<glyph name="Ecircumflex" format="1">
  <advance width="214"/>
  <unicode hex="00CA"/>
  <outline>
    <contour>
      <point x="60" y="890" type="line"/>
      <point x="18" y="800" type="line"/>
      <point x="83" y="800" type="line"/>
      <point x="100" y="839" type="line"/>
      <point x="117" y="800" type="line"/>
      <point x="182" y="800" type="line"/>
      <point x="141" y="890" type="line"/>
    </contour>
    <contour>
      <point x="15" y="0" type="line"/>
      <point x="181" y="0" type="line"/>
      <point x="181" y="111" type="line"/>
      <point x="98" y="111" type="line"/>
      <point x="98" y="313" type="line"/>
      <point x="158" y="313" type="line"/>
      <point x="158" y="431" type="line"/>
      <point x="98" y="431" type="line"/>
      <point x="98" y="624" type="line"/>
      <point x="181" y="624" type="line"/>
      <point x="181" y="735" type="line"/>
      <point x="15" y="735" type="line"/>
    </contour>
  </outline>
</glyph>
<glyph name="Edieresis" format="1">
  <advance width="214"/>
  <unicode hex="00CB"/>
  <outline>
    <contour>
      <point x="15" y="0" type="line"/>
      <point x="181" y="0" type="line"/>
      <point x="181" y="111" type="line"/>
      <point x="98" y="111" type="line"/>
      <point x="98" y="313" type="line"/>
      <point x="158" y="313" type="line"/>
      <point x="158" y="431" type="line"/>
      <point x="98" y="431" type="line"/>
      <point x="98" y="624" type="line"/>
      <point x="181" y="624" type="line"/>
      <point x="181" y="735" type="line"/>
      <point x="15" y="735" type="line"/>
    </contour>
    <contour>
      <point x="15" y="800" type="line"/>
      <point x="89" y="800" type="line"/>
      <point x="89" y="898" type="line"/>
      <point x="15" y="898" type="line"/>
    </contour>
    <contour>
      <point x="112" y="800" type="line"/>
      <point x="185" y="800" type="line"/>
      <point x="185" y="898" type="line"/>
      <point x="112" y="898" type="line"/>
    </contour>
  </outline>
</glyph>
<glyph name="Igrave" format="1">
  <advance width="148"/>
  <unicode hex="00CC"/>
  <outline>
    <contour>
      <point x="-10" y="890" type="line"/>
      <point x="38" y="800" type="line"/>
      <point x="101" y="800" type="line"/>
      <point x="70" y="890" type="line"/>
    </contour>
    <contour>
      <point x="20" y="0" type="line"/>
      <point x="103" y="0" type="line"/>
      <point x="103" y="735" type="line"/>
      <point x="20" y="735" type="line"/>
    </contour>
  </outline>
</glyph>
<glyph name="Iacute" format="1">
  <advance width="148"/>
  <unicode hex="00CD"/>
  <outline>
    <contour>
      <point x="47" y="890" type="line"/>
      <point x="16" y="800" type="line"/>
      <point x="80" y="800" type="line"/>
      <point x="127" y="890" type="line"/>
    </contour>
    <contour>
      <point x="15" y="0" type="line"/>
      <point x="98" y="0" type="line"/>
      <point x="98" y="735" type="line"/>
      <point x="15" y="735" type="line"/>
    </contour>
  </outline>
</glyph>
<glyph name="Icircumflex" format="1">
  <advance width="139"/>
  <unicode hex="00CE"/>
  <outline>
    <contour>
      <point x="13" y="890" type="line"/>
      <point x="-29" y="800" type="line"/>
      <point x="36" y="800" type="line"/>
      <point x="53" y="839" type="line"/>
      <point x="70" y="800" type="line"/>
      <point x="135" y="800" type="line"/>
      <point x="94" y="890" type="line"/>
    </contour>
    <contour>
      <point x="13" y="0" type="line"/>
      <point x="95" y="0" type="line"/>
      <point x="95" y="735" type="line"/>
      <point x="13" y="735" type="line"/>
    </contour>
  </outline>
</glyph>
<glyph name="Idieresis" format="1">
  <advance width="139"/>
  <unicode hex="00CF"/>
  <outline>
    <contour>
      <point x="13" y="0" type="line"/>
      <point x="96" y="0" type="line"/>
      <point x="96" y="735" type="line"/>
      <point x="13" y="735" type="line"/>
    </contour>
    <contour>
      <point x="-29" y="800" type="line"/>
      <point x="45" y="800" type="line"/>
      <point x="45" y="898" type="line"/>
      <point x="-29" y="898" type="line"/>
    </contour>
    <contour>
      <point x="68" y="800" type="line"/>
      <point x="141" y="800" type="line"/>
      <point x="141" y="898" type="line"/>
      <point x="68" y="898" type="line"/>
    </contour>
  </outline>
</glyph>
<glyph name="Eth" format="1">
  <advance width="253"/>
  <unicode hex="00D0"/>
  <outline>
    <contour>
      <point x="15" y="735" type="line"/>
      <point x="15" y="431" type="line"/>
      <point x="-3" y="431" type="line"/>
      <point x="-3" y="320" type="line"/>
      <point x="15" y="320" type="line"/>
      <point x="15" y="0" type="line"/>
      <point x="75" y="0" type="line" smooth="yes"/>
      <point x="209" y="0"/>
      <point x="213" y="66"/>
      <point x="213" y="367" type="curve" smooth="yes"/>
      <point x="213" y="673"/>
      <point x="211" y="735"/>
      <point x="75" y="735" type="curve" smooth="yes"/>
    </contour>
    <contour>
      <point x="98" y="320" type="line"/>
      <point x="113" y="320" type="line"/>
      <point x="113" y="431" type="line"/>
      <point x="98" y="431" type="line"/>
      <point x="98" y="627" type="line"/>
      <point x="110" y="626"/>
      <point x="125" y="629"/>
      <point x="128" y="603" type="curve" smooth="yes"/>
      <point x="133" y="558"/>
      <point x="131" y="487"/>
      <point x="131" y="336" type="curve" smooth="yes"/>
      <point x="131" y="164"/>
      <point x="131" y="164"/>
      <point x="131" y="164" type="curve"/>
      <point x="131" y="105"/>
      <point x="111" y="108"/>
      <point x="98" y="108" type="curve"/>
    </contour>
  </outline>
</glyph>
<glyph name="Ntilde" format="1">
  <advance width="267"/>
  <unicode hex="00D1"/>
  <outline>
    <contour>
      <point x="51" y="783" type="line"/>
      <point x="56" y="790"/>
      <point x="79" y="813"/>
      <point x="91" y="813" type="curve" smooth="yes"/>
      <point x="111" y="813"/>
      <point x="122" y="794"/>
      <point x="145" y="794" type="curve" smooth="yes"/>
      <point x="163" y="794"/>
      <point x="177" y="806"/>
      <point x="185" y="819" type="curve"/>
      <point x="185" y="902" type="line"/>
      <point x="179" y="892"/>
      <point x="158" y="873"/>
      <point x="145" y="873" type="curve" smooth="yes"/>
      <point x="126" y="873"/>
      <point x="115" y="890"/>
      <point x="92" y="890" type="curve" smooth="yes"/>
      <point x="77" y="890"/>
      <point x="60" y="882"/>
      <point x="51" y="869" type="curve"/>
    </contour>
    <contour>
      <point x="152" y="0" type="line"/>
      <point x="222" y="0" type="line"/>
      <point x="222" y="735" type="line"/>
      <point x="145" y="735" type="line"/>
      <point x="145" y="388" type="line"/>
      <point x="85" y="735" type="line"/>
      <point x="15" y="735" type="line"/>
      <point x="15" y="0" type="line"/>
      <point x="92" y="0" type="line"/>
      <point x="92" y="357" type="line"/>
    </contour>
  </outline>
</glyph>
<glyph name="Ocircumflex" format="1">
  <advance width="242"/>
  <unicode hex="00D4"/>
  <outline>
    <contour>
      <point x="69" y="890" type="line"/>
      <point x="27" y="800" type="line"/>
      <point x="92" y="800" type="line"/>
      <point x="109" y="839" type="line"/>
      <point x="126" y="800" type="line"/>
      <point x="191" y="800" type="line"/>
      <point x="150" y="890" type="line"/>
    </contour>
    <contour>
      <point x="210" y="594" type="line" smooth="yes"/>
      <point x="210" y="654"/>
      <point x="190" y="743"/>
      <point x="110" y="743" type="curve" smooth="yes"/>
      <point x="35" y="743"/>
      <point x="9" y="670"/>
      <point x="9" y="594" type="curve" smooth="yes"/>
      <point x="9" y="141" type="line" smooth="yes"/>
      <point x="9" y="71"/>
      <point x="32" y="-8"/>
      <point x="110" y="-8" type="curve" smooth="yes"/>
      <point x="186" y="-8"/>
      <point x="210" y="65"/>
      <point x="210" y="141" type="curve" smooth="yes"/>
    </contour>
    <contour>
      <point x="127" y="141" type="line" smooth="yes"/>
      <point x="127" y="118"/>
      <point x="121" y="97"/>
      <point x="111" y="97" type="curve" smooth="yes"/>
      <point x="102" y="97"/>
      <point x="94" y="114"/>
      <point x="94" y="141" type="curve" smooth="yes"/>
      <point x="94" y="594" type="line" smooth="yes"/>
      <point x="94" y="618"/>
      <point x="100" y="638"/>
      <point x="111" y="638" type="curve" smooth="yes"/>
      <point x="122" y="638"/>
      <point x="127" y="617"/>
      <point x="127" y="594" type="curve" smooth="yes"/>
    </contour>
  </outline>
</glyph>
<glyph name="Otilde" format="1">
  <advance width="242"/>
  <unicode hex="00D5"/>
  <outline>
    <contour>
      <point x="39" y="783" type="line"/>
      <point x="44" y="790"/>
      <point x="67" y="813"/>
      <point x="79" y="813" type="curve" smooth="yes"/>
      <point x="99" y="813"/>
      <point x="110" y="794"/>
      <point x="133" y="794" type="curve" smooth="yes"/>
      <point x="151" y="794"/>
      <point x="165" y="806"/>
      <point x="173" y="819" type="curve"/>
      <point x="173" y="902" type="line"/>
      <point x="167" y="892"/>
      <point x="146" y="873"/>
      <point x="133" y="873" type="curve" smooth="yes"/>
      <point x="114" y="873"/>
      <point x="103" y="890"/>
      <point x="80" y="890" type="curve" smooth="yes"/>
      <point x="65" y="890"/>
      <point x="48" y="882"/>
      <point x="39" y="869" type="curve"/>
    </contour>
    <contour>
      <point x="210" y="594" type="line" smooth="yes"/>
      <point x="210" y="654"/>
      <point x="190" y="743"/>
      <point x="110" y="743" type="curve" smooth="yes"/>
      <point x="35" y="743"/>
      <point x="9" y="670"/>
      <point x="9" y="594" type="curve" smooth="yes"/>
      <point x="9" y="141" type="line" smooth="yes"/>
      <point x="9" y="71"/>
      <point x="32" y="-8"/>
      <point x="110" y="-8" type="curve" smooth="yes"/>
      <point x="186" y="-8"/>
      <point x="210" y="65"/>
      <point x="210" y="141" type="curve" smooth="yes"/>
    </contour>
    <contour>
      <point x="127" y="141" type="line" smooth="yes"/>
      <point x="127" y="118"/>
      <point x="121" y="97"/>
      <point x="111" y="97" type="curve" smooth="yes"/>
      <point x="102" y="97"/>
      <point x="94" y="114"/>
      <point x="94" y="141" type="curve" smooth="yes"/>
      <point x="94" y="594" type="line" smooth="yes"/>
      <point x="94" y="618"/>
      <point x="100" y="638"/>
      <point x="111" y="638" type="curve" smooth="yes"/>
      <point x="122" y="638"/>
      <point x="127" y="617"/>
      <point x="127" y="594" type="curve" smooth="yes"/>
    </contour>
  </outline>
</glyph>
<glyph name="Oslash" format="1">
  <advance width="242"/>
  <unicode hex="00D8"/>
  <outline>
    <contour>
      <point x="213" y="594" type="line" smooth="yes"/>
      <point x="213" y="621"/>
      <point x="209" y="654"/>
      <point x="197" y="682" type="curve"/>
      <point x="209" y="745" type="line"/>
      <point x="163" y="745" type="line"/>
      <point x="160" y="730" type="line"/>
      <point x="147" y="738"/>
      <point x="132" y="743"/>
      <point x="113" y="743" type="curve" smooth="yes"/>
      <point x="38" y="743"/>
      <point x="12" y="670"/>
      <point x="12" y="594" type="curve" smooth="yes"/>
      <point x="12" y="141" type="line" smooth="yes"/>
      <point x="12" y="111"/>
      <point x="16" y="79"/>
      <point x="27" y="53" type="curve"/>
      <point x="15" y="-10" type="line"/>
      <point x="63" y="-10" type="line"/>
      <point x="66" y="4" type="line"/>
      <point x="79" y="-3"/>
      <point x="94" y="-8"/>
      <point x="113" y="-8" type="curve" smooth="yes"/>
      <point x="189" y="-8"/>
      <point x="213" y="65"/>
      <point x="213" y="141" type="curve" smooth="yes"/>
    </contour>
    <contour>
      <point x="105" y="97"/>
      <point x="97" y="114"/>
      <point x="97" y="141" type="curve" smooth="yes"/>
      <point x="97" y="165" type="line"/>
      <point x="130" y="336" type="line"/>
      <point x="130" y="141" type="line" smooth="yes"/>
      <point x="130" y="118"/>
      <point x="124" y="97"/>
      <point x="114" y="97" type="curve" smooth="yes"/>
    </contour>
    <contour>
      <point x="130" y="576" type="line"/>
      <point x="97" y="408" type="line"/>
      <point x="97" y="594" type="line" smooth="yes"/>
      <point x="97" y="618"/>
      <point x="103" y="638"/>
      <point x="114" y="638" type="curve" smooth="yes"/>
      <point x="125" y="638"/>
      <point x="130" y="617"/>
      <point x="130" y="594" type="curve" smooth="yes"/>
    </contour>
    <contour>
      <point x="121" y="735" type="move" name="top"/>
    </contour>
  </outline>
</glyph>
<glyph name="Ucircumflex" format="1">
  <advance width="250"/>
  <unicode hex="00DB"/>
  <outline>
    <contour>
      <point x="122" y="735" type="line"/>
      <point x="122" y="141" type="line" smooth="yes"/>
      <point x="122" y="117"/>
      <point x="119" y="97"/>
      <point x="107" y="97" type="curve" smooth="yes"/>
      <point x="94" y="97"/>
      <point x="91" y="113"/>
      <point x="91" y="141" type="curve" smooth="yes"/>
      <point x="91" y="735" type="line"/>
      <point x="8" y="735" type="line"/>
      <point x="8" y="141" type="line" smooth="yes"/>
      <point x="8" y="66"/>
      <point x="27" y="-8"/>
      <point x="107" y="-8" type="curve" smooth="yes"/>
      <point x="182" y="-8"/>
      <point x="205" y="58"/>
      <point x="205" y="141" type="curve" smooth="yes"/>
      <point x="205" y="735" type="line"/>
    </contour>
    <contour>
      <point x="64" y="890" type="line"/>
      <point x="22" y="800" type="line"/>
      <point x="87" y="800" type="line"/>
      <point x="104" y="839" type="line"/>
      <point x="121" y="800" type="line"/>
      <point x="186" y="800" type="line"/>
      <point x="145" y="890" type="line"/>
    </contour>
  </outline>
</glyph>
<glyph name="Udieresis" format="1">
  <advance width="250"/>
  <unicode hex="00DC"/>
  <outline>
    <contour>
      <point x="122" y="735" type="line"/>
      <point x="122" y="141" type="line" smooth="yes"/>
      <point x="122" y="117"/>
      <point x="119" y="97"/>
      <point x="107" y="97" type="curve" smooth="yes"/>
      <point x="94" y="97"/>
      <point x="91" y="113"/>
      <point x="91" y="141" type="curve" smooth="yes"/>
      <point x="91" y="735" type="line"/>
      <point x="8" y="735" type="line"/>
      <point x="8" y="141" type="line" smooth="yes"/>
      <point x="8" y="66"/>
      <point x="27" y="-8"/>
      <point x="107" y="-8" type="curve" smooth="yes"/>
      <point x="182" y="-8"/>
      <point x="205" y="58"/>
      <point x="205" y="141" type="curve" smooth="yes"/>
      <point x="205" y="735" type="line"/>
    </contour>
    <contour>
      <point x="21" y="800" type="line"/>
      <point x="95" y="800" type="line"/>
      <point x="95" y="898" type="line"/>
      <point x="21" y="898" type="line"/>
    </contour>
    <contour>
      <point x="118" y="800" type="line"/>
      <point x="191" y="800" type="line"/>
      <point x="191" y="898" type="line"/>
      <point x="118" y="898" type="line"/>
    </contour>
  </outline>
</glyph>
<glyph name="Yacute" format="1">
  <advance width="236"/>
  <unicode hex="00DD"/>
  <outline>
    <contour>
      <point x="97" y="890" type="line"/>
      <point x="65" y="800" type="line"/>
      <point x="129" y="800" type="line"/>
      <point x="177" y="890" type="line"/>
    </contour>
    <contour>
      <point x="80" y="735" type="line"/>
      <point x="-2" y="735" type="line"/>
      <point x="67" y="313" type="line"/>
      <point x="67" y="0" type="line"/>
      <point x="150" y="0" type="line"/>
      <point x="150" y="313" type="line"/>
      <point x="219" y="735" type="line"/>
      <point x="137" y="735" type="line"/>
      <point x="128" y="663"/>
      <point x="117" y="592"/>
      <point x="108" y="521" type="curve"/>
    </contour>
  </outline>
</glyph>
<glyph name="Thorn" format="1">
  <advance width="242"/>
  <unicode hex="00DE"/>
  <outline>
    <contour>
      <point x="15" y="0" type="line"/>
      <point x="98" y="0" type="line"/>
      <point x="98" y="176" type="line"/>
      <point x="127" y="179"/>
      <point x="155" y="195"/>
      <point x="175" y="224" type="curve" smooth="yes"/>
      <point x="197" y="259"/>
      <point x="212" y="314"/>
      <point x="212" y="397" type="curve" smooth="yes"/>
      <point x="212" y="480"/>
      <point x="197" y="536"/>
      <point x="175" y="571" type="curve" smooth="yes"/>
      <point x="155" y="601"/>
      <point x="127" y="615"/>
      <point x="98" y="617" type="curve"/>
      <point x="98" y="735" type="line"/>
      <point x="15" y="735" type="line"/>
    </contour>
    <contour>
      <point x="98" y="507" type="line"/>
      <point x="107" y="505"/>
      <point x="115" y="499"/>
      <point x="121" y="484" type="curve" smooth="yes"/>
      <point x="129" y="466"/>
      <point x="130" y="434"/>
      <point x="130" y="393" type="curve" smooth="yes"/>
      <point x="130" y="352"/>
      <point x="129" y="322"/>
      <point x="121" y="306" type="curve"/>
      <point x="116" y="292"/>
      <point x="107" y="288"/>
      <point x="98" y="286" type="curve"/>
    </contour>
  </outline>
</glyph>
<glyph name="germandbls" format="1">
  <advance width="251"/>
  <unicode hex="00DF"/>
  <outline>
    <contour>
      <point x="109" y="478" type="line"/>
      <point x="121" y="478"/>
      <point x="132" y="471"/>
      <point x="138" y="443" type="curve" smooth="yes"/>
      <point x="144" y="415"/>
      <point x="147" y="366"/>
      <point x="147" y="281" type="curve" smooth="yes"/>
      <point x="147" y="201"/>
      <point x="144" y="154"/>
      <point x="138" y="127" type="curve" smooth="yes"/>
      <point x="132" y="100"/>
      <point x="121" y="94"/>
      <point x="109" y="94" type="curve"/>
      <point x="109" y="0" type="line"/>
      <point x="152" y="0"/>
      <point x="183" y="9"/>
      <point x="200" y="49" type="curve" smooth="yes"/>
      <point x="217" y="89"/>
      <point x="225" y="160"/>
      <point x="225" y="281" type="curve" smooth="yes"/>
      <point x="225" y="354"/>
      <point x="221" y="408"/>
      <point x="213" y="446" type="curve" smooth="yes"/>
      <point x="206" y="478"/>
      <point x="193" y="503"/>
      <point x="178" y="519" type="curve"/>
      <point x="196" y="541"/>
      <point x="207" y="571"/>
      <point x="207" y="604" type="curve" smooth="yes"/>
      <point x="207" y="667"/>
      <point x="186" y="743"/>
      <point x="108" y="743" type="curve" smooth="yes"/>
      <point x="37" y="743"/>
      <point x="7" y="674"/>
      <point x="7" y="603" type="curve" smooth="yes"/>
      <point x="7" y="0" type="line"/>
      <point x="86" y="0" type="line"/>
      <point x="86" y="603" type="line" smooth="yes"/>
      <point x="86" y="633"/>
      <point x="93" y="653"/>
      <point x="108" y="653" type="curve" smooth="yes"/>
      <point x="125" y="653"/>
      <point x="135" y="631"/>
      <point x="135" y="604" type="curve" smooth="yes"/>
      <point x="135" y="569"/>
      <point x="123" y="547"/>
      <point x="109" y="547" type="curve"/>
    </contour>
  </outline>
</glyph>
<glyph name="atilde" format="1">
  <advance width="230"/>
  <unicode hex="00E3"/>
  <outline>
    <contour>
      <point x="113" y="363" type="line"/>
      <point x="110" y="352"/>
      <point x="94" y="335"/>
      <point x="81" y="324" type="curve" smooth="yes"/>
      <point x="25" y="276"/>
      <point x="5" y="203"/>
      <point x="5" y="127" type="curve" smooth="yes"/>
      <point x="5" y="93"/>
      <point x="8" y="-8"/>
      <point x="62" y="-8" type="curve" smooth="yes"/>
      <point x="86" y="-8"/>
      <point x="105" y="12"/>
      <point x="113" y="33" type="curve"/>
      <point x="114" y="27"/>
      <point x="122" y="5"/>
      <point x="125" y="0" type="curve"/>
      <point x="192" y="0" type="line"/>
      <point x="189" y="24"/>
      <point x="187" y="46"/>
      <point x="187" y="95" type="curve" smooth="yes"/>
      <point x="187" y="431" type="line"/>
      <point x="189" y="482"/>
      <point x="164" y="555"/>
      <point x="103" y="555" type="curve" smooth="yes"/>
      <point x="37" y="555"/>
      <point x="10" y="480"/>
      <point x="10" y="419" type="curve" smooth="yes"/>
      <point x="10" y="386" type="line"/>
      <point x="86" y="386" type="line"/>
      <point x="86" y="422" type="line" smooth="yes"/>
      <point x="86" y="436"/>
      <point x="90" y="468"/>
      <point x="100" y="468" type="curve" smooth="yes"/>
      <point x="109" y="468"/>
      <point x="113" y="439"/>
      <point x="113" y="422" type="curve" smooth="yes"/>
    </contour>
    <contour>
      <point x="112" y="124" type="line" smooth="yes"/>
      <point x="112" y="105"/>
      <point x="104" y="87"/>
      <point x="91" y="87" type="curve" smooth="yes"/>
      <point x="77" y="87"/>
      <point x="77" y="125"/>
      <point x="77" y="128" type="curve" smooth="yes"/>
      <point x="77" y="172"/>
      <point x="94" y="228"/>
      <point x="112" y="251" type="curve"/>
    </contour>
    <contour>
      <point x="32" y="619" type="line"/>
      <point x="37" y="626"/>
      <point x="60" y="649"/>
      <point x="72" y="649" type="curve" smooth="yes"/>
      <point x="92" y="649"/>
      <point x="103" y="630"/>
      <point x="126" y="630" type="curve" smooth="yes"/>
      <point x="144" y="630"/>
      <point x="158" y="642"/>
      <point x="166" y="655" type="curve"/>
      <point x="166" y="738" type="line"/>
      <point x="160" y="728"/>
      <point x="139" y="709"/>
      <point x="126" y="709" type="curve" smooth="yes"/>
      <point x="107" y="709"/>
      <point x="96" y="726"/>
      <point x="73" y="726" type="curve" smooth="yes"/>
      <point x="58" y="726"/>
      <point x="41" y="718"/>
      <point x="32" y="705" type="curve"/>
    </contour>
  </outline>
</glyph>
<glyph name="aring" format="1">
  <advance width="230"/>
  <unicode hex="00E5"/>
  <outline>
    <contour>
      <point x="113" y="363" type="line"/>
      <point x="110" y="352"/>
      <point x="94" y="335"/>
      <point x="81" y="324" type="curve" smooth="yes"/>
      <point x="25" y="276"/>
      <point x="5" y="203"/>
      <point x="5" y="127" type="curve" smooth="yes"/>
      <point x="5" y="93"/>
      <point x="8" y="-8"/>
      <point x="62" y="-8" type="curve" smooth="yes"/>
      <point x="86" y="-8"/>
      <point x="105" y="12"/>
      <point x="113" y="33" type="curve"/>
      <point x="114" y="27"/>
      <point x="122" y="5"/>
      <point x="125" y="0" type="curve"/>
      <point x="192" y="0" type="line"/>
      <point x="189" y="24"/>
      <point x="187" y="46"/>
      <point x="187" y="95" type="curve" smooth="yes"/>
      <point x="187" y="431" type="line"/>
      <point x="189" y="482"/>
      <point x="164" y="555"/>
      <point x="103" y="555" type="curve" smooth="yes"/>
      <point x="37" y="555"/>
      <point x="10" y="480"/>
      <point x="10" y="419" type="curve" smooth="yes"/>
      <point x="10" y="386" type="line"/>
      <point x="86" y="386" type="line"/>
      <point x="86" y="422" type="line" smooth="yes"/>
      <point x="86" y="436"/>
      <point x="90" y="468"/>
      <point x="100" y="468" type="curve" smooth="yes"/>
      <point x="109" y="468"/>
      <point x="113" y="439"/>
      <point x="113" y="422" type="curve" smooth="yes"/>
    </contour>
    <contour>
      <point x="112" y="124" type="line" smooth="yes"/>
      <point x="112" y="105"/>
      <point x="104" y="87"/>
      <point x="91" y="87" type="curve" smooth="yes"/>
      <point x="77" y="87"/>
      <point x="77" y="125"/>
      <point x="77" y="128" type="curve" smooth="yes"/>
      <point x="77" y="172"/>
      <point x="94" y="228"/>
      <point x="112" y="251" type="curve"/>
    </contour>
    <contour>
      <point x="47" y="653"/>
      <point x="71" y="624"/>
      <point x="101" y="624" type="curve" smooth="yes"/>
      <point x="130" y="624"/>
      <point x="154" y="653"/>
      <point x="154" y="694" type="curve" smooth="yes"/>
      <point x="154" y="735"/>
      <point x="130" y="764"/>
      <point x="101" y="764" type="curve" smooth="yes"/>
      <point x="71" y="764"/>
      <point x="47" y="735"/>
      <point x="47" y="694" type="curve" smooth="yes"/>
    </contour>
    <contour>
      <point x="86" y="713"/>
      <point x="94" y="725"/>
      <point x="101" y="725" type="curve" smooth="yes"/>
      <point x="107" y="725"/>
      <point x="116" y="713"/>
      <point x="116" y="694" type="curve" smooth="yes"/>
      <point x="116" y="675"/>
      <point x="107" y="662"/>
      <point x="101" y="662" type="curve" smooth="yes"/>
      <point x="94" y="662"/>
      <point x="86" y="675"/>
      <point x="86" y="694" type="curve" smooth="yes"/>
    </contour>
  </outline>
</glyph>
<glyph name="ae" format="1">
  <advance width="333"/>
  <unicode hex="00E6"/>
  <outline>
    <contour>
      <point x="228" y="196" type="line"/>
      <point x="228" y="136" type="line" smooth="yes"/>
      <point x="228" y="117"/>
      <point x="225" y="81"/>
      <point x="209" y="81" type="curve" smooth="yes"/>
      <point x="198" y="81"/>
      <point x="194" y="114"/>
      <point x="194" y="136" type="curve" smooth="yes"/>
      <point x="194" y="255" type="line"/>
      <point x="303" y="255" type="line"/>
      <point x="303" y="418" type="line" smooth="yes"/>
      <point x="303" y="481"/>
      <point x="293" y="555"/>
      <point x="209" y="555" type="curve" smooth="yes"/>
      <point x="186" y="555"/>
      <point x="169" y="546"/>
      <point x="155" y="533" type="curve"/>
      <point x="142" y="546"/>
      <point x="126" y="555"/>
      <point x="105" y="555" type="curve" smooth="yes"/>
      <point x="39" y="555"/>
      <point x="12" y="480"/>
      <point x="12" y="419" type="curve" smooth="yes"/>
      <point x="12" y="386" type="line"/>
      <point x="88" y="386" type="line"/>
      <point x="88" y="422" type="line" smooth="yes"/>
      <point x="88" y="436"/>
      <point x="92" y="468"/>
      <point x="102" y="468" type="curve" smooth="yes"/>
      <point x="111" y="468"/>
      <point x="115" y="439"/>
      <point x="115" y="422" type="curve" smooth="yes"/>
      <point x="115" y="363" type="line"/>
      <point x="112" y="352"/>
      <point x="96" y="335"/>
      <point x="83" y="324" type="curve" smooth="yes"/>
      <point x="27" y="276"/>
      <point x="7" y="203"/>
      <point x="7" y="127" type="curve" smooth="yes"/>
      <point x="7" y="93"/>
      <point x="16" y="-8"/>
      <point x="82" y="-8" type="curve" smooth="yes"/>
      <point x="106" y="-8"/>
      <point x="132" y="2"/>
      <point x="145" y="19" type="curve"/>
      <point x="158" y="2"/>
      <point x="177" y="-8"/>
      <point x="204" y="-8" type="curve" smooth="yes"/>
      <point x="281" y="-8"/>
      <point x="303" y="56"/>
      <point x="303" y="127" type="curve" smooth="yes"/>
      <point x="303" y="196" type="line"/>
    </contour>
    <contour>
      <point x="194" y="411" type="line" smooth="yes"/>
      <point x="194" y="427"/>
      <point x="195" y="467"/>
      <point x="208" y="467" type="curve" smooth="yes"/>
      <point x="225" y="467"/>
      <point x="228" y="438"/>
      <point x="228" y="411" type="curve" smooth="yes"/>
      <point x="228" y="334" type="line"/>
      <point x="194" y="334" type="line"/>
    </contour>
    <contour>
      <point x="114" y="124" type="line" smooth="yes"/>
      <point x="114" y="105"/>
      <point x="106" y="87"/>
      <point x="93" y="87" type="curve" smooth="yes"/>
      <point x="79" y="87"/>
      <point x="79" y="125"/>
      <point x="79" y="128" type="curve" smooth="yes"/>
      <point x="79" y="172"/>
      <point x="96" y="228"/>
      <point x="114" y="251" type="curve"/>
    </contour>
  </outline>
</glyph>
<glyph name="igrave" format="1">
  <advance width="139"/>
  <unicode hex="00EC"/>
  <outline>
    <contour>
      <point x="-18" y="727" type="line"/>
      <point x="30" y="637" type="line"/>
      <point x="94" y="637" type="line"/>
      <point x="62" y="727" type="line"/>
    </contour>
    <contour>
      <point x="94" y="0" type="line"/>
      <point x="94" y="547" type="line"/>
      <point x="15" y="547" type="line"/>
      <point x="15" y="0" type="line"/>
    </contour>
  </outline>
</glyph>
<glyph name="iacute" format="1">
  <advance width="139"/>
  <unicode hex="00ED"/>
  <outline>
    <contour>
      <point x="46" y="727" type="line"/>
      <point x="15" y="637" type="line"/>
      <point x="79" y="637" type="line"/>
      <point x="126" y="727" type="line"/>
    </contour>
    <contour>
      <point x="94" y="0" type="line"/>
      <point x="94" y="547" type="line"/>
      <point x="15" y="547" type="line"/>
      <point x="15" y="0" type="line"/>
    </contour>
  </outline>
</glyph>
<glyph name="icircumflex" format="1">
  <advance width="139"/>
  <unicode hex="00EE"/>
  <outline>
    <contour>
      <point x="15" y="727" type="line"/>
      <point x="-27" y="637" type="line"/>
      <point x="38" y="637" type="line"/>
      <point x="55" y="676" type="line"/>
      <point x="72" y="637" type="line"/>
      <point x="137" y="637" type="line"/>
      <point x="96" y="727" type="line"/>
    </contour>
    <contour>
      <point x="94" y="0" type="line"/>
      <point x="94" y="547" type="line"/>
      <point x="15" y="547" type="line"/>
      <point x="15" y="0" type="line"/>
    </contour>
  </outline>
</glyph>
<glyph name="idieresis" format="1">
  <advance width="139"/>
  <unicode hex="00EF"/>
  <outline>
    <contour>
      <point x="-30" y="637" type="line"/>
      <point x="44" y="637" type="line"/>
      <point x="44" y="735" type="line"/>
      <point x="-30" y="735" type="line"/>
    </contour>
    <contour>
      <point x="67" y="637" type="line"/>
      <point x="140" y="637" type="line"/>
      <point x="140" y="735" type="line"/>
      <point x="67" y="735" type="line"/>
    </contour>
    <contour>
      <point x="94" y="0" type="line"/>
      <point x="94" y="547" type="line"/>
      <point x="15" y="547" type="line"/>
      <point x="15" y="0" type="line"/>
    </contour>
  </outline>
</glyph>
<glyph name="eth" format="1">
  <advance width="227"/>
  <unicode hex="00F0"/>
  <outline>
    <contour>
      <point x="71" y="687" type="line"/>
      <point x="71" y="686"/>
      <point x="82" y="671"/>
      <point x="87" y="657" type="curve"/>
      <point x="55" y="612" type="line"/>
      <point x="77" y="569" type="line"/>
      <point x="98" y="600" type="line"/>
      <point x="101" y="584"/>
      <point x="106" y="559"/>
      <point x="108" y="538" type="curve"/>
      <point x="97" y="548"/>
      <point x="84" y="555"/>
      <point x="73" y="555" type="curve" smooth="yes"/>
      <point x="14" y="555"/>
      <point x="9" y="468"/>
      <point x="8" y="419" type="curve"/>
      <point x="8" y="136" type="line" smooth="yes"/>
      <point x="8" y="75"/>
      <point x="27" y="-8"/>
      <point x="100" y="-8" type="curve" smooth="yes"/>
      <point x="169" y="-8"/>
      <point x="192" y="76"/>
      <point x="192" y="133" type="curve" smooth="yes"/>
      <point x="192" y="453" type="line" smooth="yes"/>
      <point x="192" y="550"/>
      <point x="168" y="623"/>
      <point x="150" y="671" type="curve"/>
      <point x="178" y="714" type="line"/>
      <point x="156" y="758" type="line"/>
      <point x="129" y="718" type="line"/>
      <point x="129" y="718"/>
      <point x="116" y="743"/>
      <point x="113" y="751" type="curve"/>
    </contour>
    <contour>
      <point x="117" y="126" type="line" smooth="yes"/>
      <point x="117" y="110"/>
      <point x="109" y="81"/>
      <point x="100" y="81" type="curve" smooth="yes"/>
      <point x="88" y="81"/>
      <point x="83" y="104"/>
      <point x="83" y="126" type="curve" smooth="yes"/>
      <point x="83" y="421" type="line" smooth="yes"/>
      <point x="83" y="429"/>
      <point x="89" y="467"/>
      <point x="100" y="467" type="curve" smooth="yes"/>
      <point x="111" y="467"/>
      <point x="117" y="446"/>
      <point x="117" y="421" type="curve" smooth="yes"/>
    </contour>
  </outline>
</glyph>
<glyph name="ntilde" format="1">
  <advance width="232"/>
  <unicode hex="00F1"/>
  <outline>
    <contour>
      <point x="34" y="623" type="line"/>
      <point x="39" y="630"/>
      <point x="62" y="653"/>
      <point x="74" y="653" type="curve" smooth="yes"/>
      <point x="94" y="653"/>
      <point x="105" y="634"/>
      <point x="128" y="634" type="curve" smooth="yes"/>
      <point x="146" y="634"/>
      <point x="160" y="646"/>
      <point x="168" y="659" type="curve"/>
      <point x="168" y="742" type="line"/>
      <point x="162" y="732"/>
      <point x="141" y="713"/>
      <point x="128" y="713" type="curve" smooth="yes"/>
      <point x="109" y="713"/>
      <point x="98" y="730"/>
      <point x="75" y="730" type="curve" smooth="yes"/>
      <point x="60" y="730"/>
      <point x="43" y="722"/>
      <point x="34" y="709" type="curve"/>
    </contour>
    <contour>
      <point x="94" y="431" type="line" smooth="yes"/>
      <point x="94" y="452"/>
      <point x="98" y="467"/>
      <point x="108" y="467" type="curve" smooth="yes"/>
      <point x="118" y="467"/>
      <point x="123" y="453"/>
      <point x="123" y="432" type="curve" smooth="yes"/>
      <point x="123" y="0" type="line"/>
      <point x="201" y="0" type="line"/>
      <point x="201" y="448" type="line" smooth="yes"/>
      <point x="201" y="481"/>
      <point x="197" y="555"/>
      <point x="147" y="555" type="curve" smooth="yes"/>
      <point x="130" y="555"/>
      <point x="104" y="534"/>
      <point x="94" y="519" type="curve"/>
      <point x="94" y="547" type="line"/>
      <point x="15" y="547" type="line"/>
      <point x="15" y="0" type="line"/>
      <point x="94" y="0" type="line"/>
    </contour>
  </outline>
</glyph>
<glyph name="otilde" format="1">
  <advance width="223"/>
  <unicode hex="00F5"/>
  <outline>
    <contour>
      <point x="29" y="622" type="line"/>
      <point x="34" y="629"/>
      <point x="57" y="652"/>
      <point x="69" y="652" type="curve" smooth="yes"/>
      <point x="89" y="652"/>
      <point x="100" y="633"/>
      <point x="123" y="633" type="curve" smooth="yes"/>
      <point x="141" y="633"/>
      <point x="155" y="645"/>
      <point x="163" y="658" type="curve"/>
      <point x="163" y="741" type="line"/>
      <point x="157" y="731"/>
      <point x="136" y="712"/>
      <point x="123" y="712" type="curve" smooth="yes"/>
      <point x="104" y="712"/>
      <point x="93" y="729"/>
      <point x="70" y="729" type="curve" smooth="yes"/>
      <point x="55" y="729"/>
      <point x="38" y="721"/>
      <point x="29" y="708" type="curve"/>
    </contour>
    <contour>
      <point x="195" y="414" type="line" smooth="yes"/>
      <point x="195" y="491"/>
      <point x="184" y="555"/>
      <point x="104" y="555" type="curve" smooth="yes"/>
      <point x="30" y="555"/>
      <point x="10" y="487"/>
      <point x="10" y="411" type="curve" smooth="yes"/>
      <point x="10" y="136" type="line" smooth="yes"/>
      <point x="10" y="68"/>
      <point x="23" y="-8"/>
      <point x="102" y="-8" type="curve" smooth="yes"/>
      <point x="174" y="-8"/>
      <point x="195" y="49"/>
      <point x="195" y="133" type="curve" smooth="yes"/>
    </contour>
    <contour>
      <point x="120" y="126" type="line"/>
      <point x="121" y="117"/>
      <point x="118" y="81"/>
      <point x="102" y="81" type="curve" smooth="yes"/>
      <point x="88" y="81"/>
      <point x="84" y="104"/>
      <point x="85" y="126" type="curve" smooth="yes"/>
      <point x="85" y="421" type="line" smooth="yes"/>
      <point x="85" y="448"/>
      <point x="89" y="467"/>
      <point x="103" y="467" type="curve" smooth="yes"/>
      <point x="119" y="467"/>
      <point x="121" y="446"/>
      <point x="120" y="421" type="curve"/>
    </contour>
  </outline>
</glyph>
<glyph name="oslash" format="1">
  <advance width="229"/>
  <unicode hex="00F8"/>
  <outline>
    <contour>
      <point x="141" y="550" type="line"/>
      <point x="131" y="553"/>
      <point x="120" y="555"/>
      <point x="107" y="555" type="curve" smooth="yes"/>
      <point x="33" y="555"/>
      <point x="13" y="487"/>
      <point x="13" y="411" type="curve" smooth="yes"/>
      <point x="13" y="136" type="line" smooth="yes"/>
      <point x="13" y="96"/>
      <point x="17" y="54"/>
      <point x="36" y="26" type="curve"/>
      <point x="24" y="-37" type="line"/>
      <point x="69" y="-37" type="line"/>
      <point x="75" y="-3" type="line"/>
      <point x="84" y="-6"/>
      <point x="94" y="-8"/>
      <point x="105" y="-8" type="curve" smooth="yes"/>
      <point x="177" y="-8"/>
      <point x="198" y="49"/>
      <point x="198" y="133" type="curve" smooth="yes"/>
      <point x="198" y="414" type="line" smooth="yes"/>
      <point x="198" y="456"/>
      <point x="195" y="495"/>
      <point x="178" y="521" type="curve"/>
      <point x="191" y="584" type="line"/>
      <point x="148" y="584" type="line"/>
    </contour>
    <contour>
      <point x="88" y="283" type="line"/>
      <point x="88" y="421" type="line" smooth="yes"/>
      <point x="88" y="448"/>
      <point x="92" y="467"/>
      <point x="106" y="467" type="curve" smooth="yes"/>
      <point x="115" y="467"/>
      <point x="119" y="461"/>
      <point x="121" y="451" type="curve"/>
    </contour>
    <contour>
      <point x="123" y="238" type="line"/>
      <point x="123" y="126" type="line"/>
      <point x="124" y="117"/>
      <point x="121" y="81"/>
      <point x="105" y="81" type="curve" smooth="yes"/>
      <point x="100" y="81"/>
      <point x="96" y="84"/>
      <point x="93" y="88" type="curve"/>
    </contour>
  </outline>
</glyph>
<glyph name="ucircumflex" format="1">
  <advance width="232"/>
  <unicode hex="00FB"/>
  <outline>
    <contour>
      <point x="62" y="727" type="line"/>
      <point x="20" y="637" type="line"/>
      <point x="85" y="637" type="line"/>
      <point x="102" y="676" type="line"/>
      <point x="119" y="637" type="line"/>
      <point x="184" y="637" type="line"/>
      <point x="143" y="727" type="line"/>
    </contour>
    <contour>
      <point x="118" y="116" type="line" smooth="yes"/>
      <point x="118" y="95"/>
      <point x="114" y="80"/>
      <point x="104" y="80" type="curve" smooth="yes"/>
      <point x="94" y="80"/>
      <point x="89" y="94"/>
      <point x="89" y="115" type="curve" smooth="yes"/>
      <point x="89" y="547" type="line"/>
      <point x="11" y="547" type="line"/>
      <point x="11" y="99" type="line" smooth="yes"/>
      <point x="11" y="66"/>
      <point x="15" y="-8"/>
      <point x="65" y="-8" type="curve" smooth="yes"/>
      <point x="82" y="-8"/>
      <point x="108" y="13"/>
      <point x="118" y="28" type="curve"/>
      <point x="118" y="0" type="line"/>
      <point x="197" y="0" type="line"/>
      <point x="197" y="547" type="line"/>
      <point x="118" y="547" type="line"/>
    </contour>
  </outline>
</glyph>
<glyph name="udieresis" format="1">
  <advance width="232"/>
  <unicode hex="00FC"/>
  <outline>
    <contour>
      <point x="17" y="637" type="line"/>
      <point x="91" y="637" type="line"/>
      <point x="91" y="735" type="line"/>
      <point x="17" y="735" type="line"/>
    </contour>
    <contour>
      <point x="114" y="637" type="line"/>
      <point x="187" y="637" type="line"/>
      <point x="187" y="735" type="line"/>
      <point x="114" y="735" type="line"/>
    </contour>
    <contour>
      <point x="118" y="116" type="line" smooth="yes"/>
      <point x="118" y="95"/>
      <point x="114" y="80"/>
      <point x="104" y="80" type="curve" smooth="yes"/>
      <point x="94" y="80"/>
      <point x="89" y="94"/>
      <point x="89" y="115" type="curve" smooth="yes"/>
      <point x="89" y="547" type="line"/>
      <point x="11" y="547" type="line"/>
      <point x="11" y="99" type="line" smooth="yes"/>
      <point x="11" y="66"/>
      <point x="15" y="-8"/>
      <point x="65" y="-8" type="curve" smooth="yes"/>
      <point x="82" y="-8"/>
      <point x="108" y="13"/>
      <point x="118" y="28" type="curve"/>
      <point x="118" y="0" type="line"/>
      <point x="197" y="0" type="line"/>
      <point x="197" y="547" type="line"/>
      <point x="118" y="547" type="line"/>
    </contour>
  </outline>
</glyph>
<glyph name="thorn" format="1">
  <advance width="231"/>
  <unicode hex="00FE"/>
  <outline>
    <contour>
      <point x="14" y="-188" type="line"/>
      <point x="93" y="-188" type="line"/>
      <point x="93" y="30" type="line"/>
      <point x="98" y="18"/>
      <point x="124" y="-8"/>
      <point x="150" y="-8" type="curve" smooth="yes"/>
      <point x="199" y="-8"/>
      <point x="194" y="60"/>
      <point x="195" y="99" type="curve" smooth="yes"/>
      <point x="195" y="448" type="line" smooth="yes"/>
      <point x="195" y="493"/>
      <point x="185" y="555"/>
      <point x="134" y="555" type="curve" smooth="yes"/>
      <point x="120" y="555"/>
      <point x="96" y="537"/>
      <point x="93" y="524" type="curve"/>
      <point x="93" y="735" type="line"/>
      <point x="14" y="735" type="line"/>
    </contour>
    <contour>
      <point x="93" y="431" type="line" smooth="yes"/>
      <point x="93" y="447"/>
      <point x="97" y="467"/>
      <point x="107" y="467" type="curve" smooth="yes"/>
      <point x="116" y="467"/>
      <point x="121" y="450"/>
      <point x="121" y="431" type="curve" smooth="yes"/>
      <point x="121" y="125" type="line" smooth="yes"/>
      <point x="121" y="105"/>
      <point x="118" y="87"/>
      <point x="107" y="87" type="curve" smooth="yes"/>
      <point x="97" y="87"/>
      <point x="93" y="106"/>
      <point x="93" y="125" type="curve" smooth="yes"/>
    </contour>
  </outline>
</glyph>
<glyph name="ydieresis" format="1">
  <advance width="216"/>
  <unicode hex="00FF"/>
  <outline>
    <contour>
      <point x="17" y="637" type="line"/>
      <point x="91" y="637" type="line"/>
      <point x="91" y="735" type="line"/>
      <point x="17" y="735" type="line"/>
    </contour>
    <contour>
      <point x="114" y="637" type="line"/>
      <point x="187" y="637" type="line"/>
      <point x="187" y="735" type="line"/>
      <point x="114" y="735" type="line"/>
    </contour>
    <contour>
      <point x="11" y="-193" type="line"/>
      <point x="49" y="-208"/>
      <point x="89" y="-190"/>
      <point x="112" y="-147" type="curve" smooth="yes"/>
      <point x="128" y="-119"/>
      <point x="137" y="-77"/>
      <point x="140" y="-41" type="curve" smooth="yes"/>
      <point x="208" y="547" type="line"/>
      <point x="130" y="547" type="line"/>
      <point x="125" y="473"/>
      <point x="109" y="299"/>
      <point x="104" y="224" type="curve"/>
      <point x="75" y="547" type="line"/>
      <point x="-2" y="547" type="line"/>
      <point x="64" y="-16" type="line"/>
      <point x="64" y="-41"/>
      <point x="62" y="-75"/>
      <point x="46" y="-99" type="curve"/>
      <point x="38" y="-109"/>
      <point x="26" y="-110"/>
      <point x="11" y="-104" type="curve"/>
    </contour>
  </outline>
</glyph>
<glyph name="Amacron" format="1">
  <advance width="254"/>
  <unicode hex="0100"/>
  <outline>
    <contour>
      <point x="46" y="830" type="line"/>
      <point x="180" y="830" type="line"/>
      <point x="180" y="909" type="line"/>
      <point x="46" y="909" type="line"/>
    </contour>
    <contour>
      <point x="78" y="0" type="line"/>
      <point x="89" y="150" type="line"/>
      <point x="135" y="150" type="line"/>
      <point x="146" y="0" type="line"/>
      <point x="227" y="0" type="line"/>
      <point x="161" y="735" type="line"/>
      <point x="64" y="735" type="line"/>
      <point x="-3" y="0" type="line"/>
    </contour>
    <contour>
      <point x="128" y="264" type="line"/>
      <point x="97" y="264" type="line"/>
      <point x="112" y="556" type="line"/>
    </contour>
  </outline>
</glyph>
<glyph name="Abreve" format="1">
  <advance width="254"/>
  <unicode hex="0102"/>
  <outline>
    <contour>
      <point x="78" y="0" type="line"/>
      <point x="89" y="150" type="line"/>
      <point x="135" y="150" type="line"/>
      <point x="146" y="0" type="line"/>
      <point x="227" y="0" type="line"/>
      <point x="161" y="735" type="line"/>
      <point x="64" y="735" type="line"/>
      <point x="-3" y="0" type="line"/>
    </contour>
    <contour>
      <point x="128" y="264" type="line"/>
      <point x="97" y="264" type="line"/>
      <point x="112" y="556" type="line"/>
    </contour>
    <contour>
      <point x="149" y="925" type="line"/>
      <point x="149" y="925"/>
      <point x="130" y="894"/>
      <point x="114" y="894" type="curve" smooth="yes"/>
      <point x="96" y="894"/>
      <point x="81" y="926"/>
      <point x="81" y="926" type="curve"/>
      <point x="40" y="869" type="line"/>
      <point x="53" y="843"/>
      <point x="83" y="821"/>
      <point x="114" y="821" type="curve" smooth="yes"/>
      <point x="145" y="821"/>
      <point x="170" y="841"/>
      <point x="188" y="869" type="curve"/>
    </contour>
  </outline>
</glyph>
<glyph name="Aogonek" format="1">
  <advance width="254"/>
  <unicode hex="0104"/>
  <outline>
    <contour>
      <point x="227" y="0" type="line"/>
      <point x="161" y="735" type="line"/>
      <point x="64" y="735" type="line"/>
      <point x="-3" y="0" type="line"/>
      <point x="78" y="0" type="line"/>
      <point x="89" y="150" type="line"/>
      <point x="135" y="150" type="line"/>
      <point x="146" y="0" type="line"/>
      <point x="154" y="0" type="line"/>
      <point x="146" y="-11"/>
      <point x="140" y="-21"/>
      <point x="136" y="-28" type="curve"/>
      <point x="136" y="-29"/>
      <point x="135" y="-30"/>
      <point x="134" y="-31" type="curve"/>
      <point x="124" y="-50"/>
      <point x="113" y="-79"/>
      <point x="113" y="-103" type="curve" smooth="yes"/>
      <point x="113" y="-148"/>
      <point x="138" y="-188"/>
      <point x="183" y="-188" type="curve" smooth="yes"/>
      <point x="196" y="-188"/>
      <point x="207" y="-185"/>
      <point x="223" y="-176" type="curve"/>
      <point x="227" y="-101" type="line"/>
      <point x="212" y="-112"/>
      <point x="198" y="-121"/>
      <point x="193" y="-121" type="curve" smooth="yes"/>
      <point x="183" y="-121"/>
      <point x="172" y="-112"/>
      <point x="172" y="-83" type="curve" smooth="yes"/>
      <point x="172" y="-71"/>
      <point x="173" y="-60"/>
      <point x="176" y="-50" type="curve" smooth="yes"/>
      <point x="182" y="-30"/>
      <point x="190" y="-13"/>
      <point x="198" y="0" type="curve"/>
    </contour>
    <contour>
      <point x="128" y="264" type="line"/>
      <point x="97" y="264" type="line"/>
      <point x="112" y="556" type="line"/>
    </contour>
  </outline>
</glyph>
<glyph name="aogonek" format="1">
  <advance width="230"/>
  <unicode hex="0105"/>
  <outline>
    <contour>
      <point x="112" y="124" type="line" smooth="yes"/>
      <point x="112" y="105"/>
      <point x="104" y="87"/>
      <point x="91" y="87" type="curve" smooth="yes"/>
      <point x="77" y="87"/>
      <point x="77" y="125"/>
      <point x="77" y="128" type="curve" smooth="yes"/>
      <point x="77" y="172"/>
      <point x="94" y="228"/>
      <point x="112" y="251" type="curve"/>
    </contour>
    <contour>
      <point x="113" y="363" type="line"/>
      <point x="110" y="352"/>
      <point x="94" y="335"/>
      <point x="81" y="324" type="curve" smooth="yes"/>
      <point x="25" y="276"/>
      <point x="5" y="203"/>
      <point x="5" y="127" type="curve" smooth="yes"/>
      <point x="5" y="93"/>
      <point x="8" y="-8"/>
      <point x="62" y="-8" type="curve" smooth="yes"/>
      <point x="86" y="-8"/>
      <point x="105" y="12"/>
      <point x="113" y="33" type="curve"/>
      <point x="114" y="27"/>
      <point x="122" y="5"/>
      <point x="125" y="0" type="curve"/>
      <point x="115" y="-2"/>
      <point x="101" y="-23"/>
      <point x="96" y="-31" type="curve"/>
      <point x="85" y="-51"/>
      <point x="76" y="-77"/>
      <point x="76" y="-103" type="curve" smooth="yes"/>
      <point x="76" y="-148"/>
      <point x="101" y="-188"/>
      <point x="146" y="-188" type="curve" smooth="yes"/>
      <point x="158" y="-188"/>
      <point x="168" y="-186"/>
      <point x="185" y="-176" type="curve"/>
      <point x="190" y="-101" type="line"/>
      <point x="175" y="-112"/>
      <point x="161" y="-121"/>
      <point x="156" y="-121" type="curve" smooth="yes"/>
      <point x="146" y="-121"/>
      <point x="135" y="-112"/>
      <point x="135" y="-83" type="curve" smooth="yes"/>
      <point x="135" y="-71"/>
      <point x="136" y="-60"/>
      <point x="139" y="-50" type="curve" smooth="yes"/>
      <point x="145" y="-30"/>
      <point x="153" y="-13"/>
      <point x="161" y="0" type="curve"/>
      <point x="192" y="0" type="line"/>
      <point x="189" y="24"/>
      <point x="187" y="46"/>
      <point x="187" y="95" type="curve" smooth="yes"/>
      <point x="187" y="431" type="line"/>
      <point x="189" y="482"/>
      <point x="164" y="555"/>
      <point x="103" y="555" type="curve" smooth="yes"/>
      <point x="37" y="555"/>
      <point x="10" y="480"/>
      <point x="10" y="419" type="curve" smooth="yes"/>
      <point x="10" y="386" type="line"/>
      <point x="86" y="386" type="line"/>
      <point x="86" y="422" type="line" smooth="yes"/>
      <point x="86" y="436"/>
      <point x="90" y="468"/>
      <point x="100" y="468" type="curve" smooth="yes"/>
      <point x="109" y="468"/>
      <point x="113" y="439"/>
      <point x="113" y="422" type="curve" smooth="yes"/>
    </contour>
  </outline>
</glyph>
<glyph name="Cacute" format="1">
  <advance width="238"/>
  <unicode hex="0106"/>
  <outline>
    <contour>
      <point x="80" y="915" type="line"/>
      <point x="49" y="825" type="line"/>
      <point x="112" y="825" type="line"/>
      <point x="160" y="915" type="line"/>
    </contour>
    <contour>
      <point x="125" y="252" type="line"/>
      <point x="125" y="141" type="line" smooth="yes"/>
      <point x="125" y="127"/>
      <point x="124" y="97"/>
      <point x="108" y="97" type="curve" smooth="yes"/>
      <point x="96" y="97"/>
      <point x="94" y="127"/>
      <point x="94" y="141" type="curve" smooth="yes"/>
      <point x="94" y="598" type="line" smooth="yes"/>
      <point x="94" y="614"/>
      <point x="95" y="638"/>
      <point x="108" y="638" type="curve" smooth="yes"/>
      <point x="124" y="638"/>
      <point x="125" y="607"/>
      <point x="125" y="594" type="curve" smooth="yes"/>
      <point x="125" y="483" type="line"/>
      <point x="206" y="483" type="line"/>
      <point x="206" y="594" type="line" smooth="yes"/>
      <point x="206" y="646"/>
      <point x="187" y="743"/>
      <point x="107" y="743" type="curve" smooth="yes"/>
      <point x="32" y="743"/>
      <point x="9" y="659"/>
      <point x="9" y="594" type="curve" smooth="yes"/>
      <point x="9" y="141" type="line" smooth="yes"/>
      <point x="9" y="76"/>
      <point x="29" y="-8"/>
      <point x="107" y="-8" type="curve" smooth="yes"/>
      <point x="183" y="-8"/>
      <point x="206" y="64"/>
      <point x="206" y="141" type="curve" smooth="yes"/>
      <point x="206" y="252" type="line"/>
    </contour>
  </outline>
</glyph>
<glyph name="cdotaccent" format="1">
  <advance width="219"/>
  <unicode hex="010B"/>
  <outline>
    <contour>
      <point x="66" y="634" type="line"/>
      <point x="144" y="634" type="line"/>
      <point x="144" y="735" type="line"/>
      <point x="66" y="735" type="line"/>
    </contour>
    <contour>
      <point x="89" y="427" type="line" smooth="yes"/>
      <point x="89" y="447"/>
      <point x="96" y="467"/>
      <point x="105" y="467" type="curve" smooth="yes"/>
      <point x="114" y="467"/>
      <point x="120" y="460"/>
      <point x="120" y="427" type="curve" smooth="yes"/>
      <point x="120" y="355" type="line"/>
      <point x="196" y="355" type="line"/>
      <point x="196" y="408" type="line" smooth="yes"/>
      <point x="196" y="479"/>
      <point x="193" y="555"/>
      <point x="103" y="555" type="curve" smooth="yes"/>
      <point x="27" y="555"/>
      <point x="11" y="466"/>
      <point x="10" y="403" type="curve"/>
      <point x="10" y="144" type="line" smooth="yes"/>
      <point x="10" y="87"/>
      <point x="23" y="-8"/>
      <point x="101" y="-8" type="curve" smooth="yes"/>
      <point x="189" y="-8"/>
      <point x="195" y="62"/>
      <point x="196" y="139" type="curve" smooth="yes"/>
      <point x="196" y="202" type="line"/>
      <point x="120" y="202" type="line"/>
      <point x="120" y="126" type="line" smooth="yes"/>
      <point x="120" y="93"/>
      <point x="114" y="83"/>
      <point x="104" y="83" type="curve" smooth="yes"/>
      <point x="94" y="83"/>
      <point x="89" y="106"/>
      <point x="89" y="126" type="curve" smooth="yes"/>
    </contour>
  </outline>
</glyph>
<glyph name="dcroat" format="1">
  <advance width="231"/>
  <unicode hex="0111"/>
  <outline>
    <contour>
      <point x="200" y="692" type="line"/>
      <point x="186" y="692" type="line"/>
      <point x="186" y="735" type="line"/>
      <point x="107" y="735" type="line"/>
      <point x="107" y="692" type="line"/>
      <point x="95" y="692" type="line"/>
      <point x="95" y="597" type="line"/>
      <point x="107" y="597" type="line"/>
      <point x="107" y="535" type="line"/>
      <point x="96" y="545"/>
      <point x="84" y="555"/>
      <point x="68" y="555" type="curve" smooth="yes"/>
      <point x="47" y="555"/>
      <point x="31" y="537"/>
      <point x="24" y="519" type="curve" smooth="yes"/>
      <point x="16" y="498"/>
      <point x="13" y="471"/>
      <point x="13" y="448" type="curve" smooth="yes"/>
      <point x="13" y="99" type="line" smooth="yes"/>
      <point x="13" y="76"/>
      <point x="16" y="49"/>
      <point x="24" y="29" type="curve" smooth="yes"/>
      <point x="31" y="9"/>
      <point x="47" y="-8"/>
      <point x="68" y="-8" type="curve" smooth="yes"/>
      <point x="76" y="-8"/>
      <point x="86" y="-5"/>
      <point x="92" y="-1" type="curve" smooth="yes"/>
      <point x="95" y="1"/>
      <point x="104" y="10"/>
      <point x="107" y="13" type="curve"/>
      <point x="107" y="0" type="line"/>
      <point x="186" y="0" type="line"/>
      <point x="186" y="597" type="line"/>
      <point x="200" y="597" type="line"/>
    </contour>
    <contour>
      <point x="107" y="120" type="line" smooth="yes"/>
      <point x="107" y="101"/>
      <point x="102" y="87"/>
      <point x="98" y="87" type="curve" smooth="yes"/>
      <point x="94" y="87"/>
      <point x="91" y="101"/>
      <point x="91" y="120" type="curve" smooth="yes"/>
      <point x="91" y="427" type="line" smooth="yes"/>
      <point x="91" y="446"/>
      <point x="94" y="460"/>
      <point x="98" y="460" type="curve" smooth="yes"/>
      <point x="102" y="460"/>
      <point x="107" y="443"/>
      <point x="107" y="427" type="curve" smooth="yes"/>
    </contour>
  </outline>
</glyph>
<glyph name="Emacron" format="1">
  <advance width="214"/>
  <unicode hex="0112"/>
  <outline>
    <contour>
      <point x="26" y="830" type="line"/>
      <point x="160" y="830" type="line"/>
      <point x="160" y="909" type="line"/>
      <point x="26" y="909" type="line"/>
    </contour>
    <contour>
      <point x="15" y="0" type="line"/>
      <point x="181" y="0" type="line"/>
      <point x="181" y="111" type="line"/>
      <point x="98" y="111" type="line"/>
      <point x="98" y="313" type="line"/>
      <point x="158" y="313" type="line"/>
      <point x="158" y="431" type="line"/>
      <point x="98" y="431" type="line"/>
      <point x="98" y="624" type="line"/>
      <point x="181" y="624" type="line"/>
      <point x="181" y="735" type="line"/>
      <point x="15" y="735" type="line"/>
    </contour>
  </outline>
</glyph>
<glyph name="Ebreve" format="1">
  <advance width="214"/>
  <unicode hex="0114"/>
  <outline>
    <contour>
      <point x="128" y="928" type="line"/>
      <point x="113" y="905" type="line"/>
      <point x="107" y="899"/>
      <point x="99" y="894"/>
      <point x="93" y="894" type="curve" smooth="yes"/>
      <point x="90" y="894"/>
      <point x="86" y="895"/>
      <point x="82" y="897" type="curve"/>
      <point x="77" y="899"/>
      <point x="70" y="911"/>
      <point x="60" y="929" type="curve"/>
      <point x="19" y="870" type="line"/>
      <point x="21" y="866"/>
      <point x="28" y="857"/>
      <point x="37" y="847" type="curve"/>
      <point x="49" y="835"/>
      <point x="66" y="824"/>
      <point x="93" y="824" type="curve" smooth="yes"/>
      <point x="106" y="824"/>
      <point x="118" y="826"/>
      <point x="126" y="831" type="curve"/>
      <point x="125" y="831" type="line"/>
      <point x="146" y="842"/>
      <point x="159" y="856"/>
      <point x="167" y="870" type="curve"/>
    </contour>
    <contour>
      <point x="15" y="0" type="line"/>
      <point x="181" y="0" type="line"/>
      <point x="181" y="111" type="line"/>
      <point x="98" y="111" type="line"/>
      <point x="98" y="313" type="line"/>
      <point x="158" y="313" type="line"/>
      <point x="158" y="431" type="line"/>
      <point x="98" y="431" type="line"/>
      <point x="98" y="624" type="line"/>
      <point x="181" y="624" type="line"/>
      <point x="181" y="735" type="line"/>
      <point x="15" y="735" type="line"/>
    </contour>
  </outline>
</glyph>
<glyph name="Edotaccent" format="1">
  <advance width="214"/>
  <unicode hex="0116"/>
  <outline>
    <contour>
      <point x="53" y="822" type="line"/>
      <point x="132" y="822" type="line"/>
      <point x="132" y="923" type="line"/>
      <point x="53" y="923" type="line"/>
    </contour>
    <contour>
      <point x="15" y="0" type="line"/>
      <point x="181" y="0" type="line"/>
      <point x="181" y="111" type="line"/>
      <point x="98" y="111" type="line"/>
      <point x="98" y="313" type="line"/>
      <point x="158" y="313" type="line"/>
      <point x="158" y="431" type="line"/>
      <point x="98" y="431" type="line"/>
      <point x="98" y="624" type="line"/>
      <point x="181" y="624" type="line"/>
      <point x="181" y="735" type="line"/>
      <point x="15" y="735" type="line"/>
    </contour>
  </outline>
</glyph>
<glyph name="Eogonek" format="1">
  <advance width="214"/>
  <unicode hex="0118"/>
  <outline>
    <contour>
      <point x="181" y="0" type="line"/>
      <point x="181" y="111" type="line"/>
      <point x="98" y="111" type="line"/>
      <point x="98" y="313" type="line"/>
      <point x="158" y="313" type="line"/>
      <point x="158" y="431" type="line"/>
      <point x="98" y="431" type="line"/>
      <point x="98" y="624" type="line"/>
      <point x="181" y="624" type="line"/>
      <point x="181" y="735" type="line"/>
      <point x="15" y="735" type="line"/>
      <point x="15" y="0" type="line"/>
      <point x="110" y="0" type="line"/>
      <point x="101" y="-11"/>
      <point x="94" y="-22"/>
      <point x="90" y="-28" type="curve"/>
      <point x="90" y="-29"/>
      <point x="89" y="-30"/>
      <point x="88" y="-31" type="curve"/>
      <point x="78" y="-50"/>
      <point x="67" y="-80"/>
      <point x="67" y="-103" type="curve" smooth="yes"/>
      <point x="67" y="-148"/>
      <point x="92" y="-188"/>
      <point x="137" y="-188" type="curve" smooth="yes"/>
      <point x="151" y="-188"/>
      <point x="161" y="-185"/>
      <point x="177" y="-176" type="curve"/>
      <point x="182" y="-101" type="line"/>
      <point x="167" y="-112"/>
      <point x="153" y="-121"/>
      <point x="148" y="-121" type="curve" smooth="yes"/>
      <point x="138" y="-121"/>
      <point x="127" y="-112"/>
      <point x="127" y="-83" type="curve" smooth="yes"/>
      <point x="127" y="-71"/>
      <point x="128" y="-60"/>
      <point x="131" y="-50" type="curve" smooth="yes"/>
      <point x="137" y="-28"/>
      <point x="144" y="-11"/>
      <point x="152" y="0" type="curve"/>
    </contour>
  </outline>
</glyph>
<glyph name="eogonek" format="1">
  <advance width="223"/>
  <unicode hex="0119"/>
  <outline>
    <contour>
      <point x="87" y="411" type="line" smooth="yes"/>
      <point x="87" y="427"/>
      <point x="88" y="467"/>
      <point x="101" y="467" type="curve" smooth="yes"/>
      <point x="118" y="467"/>
      <point x="121" y="438"/>
      <point x="121" y="411" type="curve" smooth="yes"/>
      <point x="121" y="334" type="line"/>
      <point x="87" y="334" type="line"/>
    </contour>
    <contour>
      <point x="121" y="196" type="line"/>
      <point x="121" y="136" type="line" smooth="yes"/>
      <point x="121" y="117"/>
      <point x="118" y="81"/>
      <point x="102" y="81" type="curve" smooth="yes"/>
      <point x="91" y="81"/>
      <point x="87" y="114"/>
      <point x="87" y="136" type="curve" smooth="yes"/>
      <point x="87" y="255" type="line"/>
      <point x="196" y="255" type="line"/>
      <point x="196" y="418" type="line" smooth="yes"/>
      <point x="196" y="481"/>
      <point x="186" y="555"/>
      <point x="102" y="555" type="curve" smooth="yes"/>
      <point x="35" y="555"/>
      <point x="10" y="480"/>
      <point x="10" y="415" type="curve" smooth="yes"/>
      <point x="10" y="130" type="line" smooth="yes"/>
      <point x="10" y="68"/>
      <point x="26" y="-5"/>
      <point x="93" y="-8" type="curve"/>
      <point x="97" y="-8" type="line" smooth="yes"/>
      <point x="102" y="-8"/>
      <point x="103" y="-9"/>
      <point x="106" y="-8" type="curve"/>
      <point x="102" y="-14"/>
      <point x="95" y="-24"/>
      <point x="92" y="-31" type="curve"/>
      <point x="82" y="-50"/>
      <point x="71" y="-79"/>
      <point x="71" y="-103" type="curve" smooth="yes"/>
      <point x="71" y="-148"/>
      <point x="97" y="-188"/>
      <point x="142" y="-188" type="curve" smooth="yes"/>
      <point x="154" y="-188"/>
      <point x="164" y="-186"/>
      <point x="181" y="-176" type="curve"/>
      <point x="186" y="-101" type="line"/>
      <point x="171" y="-112"/>
      <point x="157" y="-121"/>
      <point x="152" y="-121" type="curve" smooth="yes"/>
      <point x="142" y="-121"/>
      <point x="131" y="-112"/>
      <point x="131" y="-83" type="curve" smooth="yes"/>
      <point x="131" y="-71"/>
      <point x="132" y="-60"/>
      <point x="135" y="-50" type="curve" smooth="yes"/>
      <point x="141" y="-28"/>
      <point x="148" y="-14"/>
      <point x="157" y="0" type="curve"/>
      <point x="139" y="0" type="line"/>
      <point x="182" y="19"/>
      <point x="196" y="71"/>
      <point x="196" y="127" type="curve" smooth="yes"/>
      <point x="196" y="196" type="line"/>
    </contour>
  </outline>
</glyph>
<glyph name="Ecaron" format="1">
  <advance width="214"/>
  <unicode hex="011A"/>
  <outline>
    <contour>
      <point x="15" y="0" type="line"/>
      <point x="181" y="0" type="line"/>
      <point x="181" y="111" type="line"/>
      <point x="98" y="111" type="line"/>
      <point x="98" y="313" type="line"/>
      <point x="158" y="313" type="line"/>
      <point x="158" y="431" type="line"/>
      <point x="98" y="431" type="line"/>
      <point x="98" y="624" type="line"/>
      <point x="181" y="624" type="line"/>
      <point x="181" y="735" type="line"/>
      <point x="15" y="735" type="line"/>
    </contour>
    <contour>
      <point x="138" y="825" type="line"/>
      <point x="179" y="915" type="line"/>
      <point x="114" y="915" type="line"/>
      <point x="97" y="876" type="line"/>
      <point x="80" y="915" type="line"/>
      <point x="15" y="915" type="line"/>
      <point x="57" y="825" type="line"/>
    </contour>
  </outline>
</glyph>
<glyph name="ecaron" format="1">
  <advance width="223"/>
  <unicode hex="011B"/>
  <outline>
    <contour>
      <point x="143" y="637" type="line"/>
      <point x="184" y="727" type="line"/>
      <point x="119" y="727" type="line"/>
      <point x="102" y="688" type="line"/>
      <point x="85" y="727" type="line"/>
      <point x="20" y="727" type="line"/>
      <point x="62" y="637" type="line"/>
    </contour>
    <contour>
      <point x="121" y="196" type="line"/>
      <point x="121" y="136" type="line" smooth="yes"/>
      <point x="121" y="117"/>
      <point x="118" y="81"/>
      <point x="102" y="81" type="curve" smooth="yes"/>
      <point x="91" y="81"/>
      <point x="87" y="114"/>
      <point x="87" y="136" type="curve" smooth="yes"/>
      <point x="87" y="255" type="line"/>
      <point x="196" y="255" type="line"/>
      <point x="196" y="418" type="line" smooth="yes"/>
      <point x="196" y="481"/>
      <point x="186" y="555"/>
      <point x="102" y="555" type="curve" smooth="yes"/>
      <point x="35" y="555"/>
      <point x="10" y="480"/>
      <point x="10" y="415" type="curve" smooth="yes"/>
      <point x="10" y="130" type="line" smooth="yes"/>
      <point x="10" y="67"/>
      <point x="27" y="-8"/>
      <point x="97" y="-8" type="curve" smooth="yes"/>
      <point x="174" y="-8"/>
      <point x="196" y="56"/>
      <point x="196" y="127" type="curve" smooth="yes"/>
      <point x="196" y="196" type="line"/>
    </contour>
    <contour>
      <point x="87" y="411" type="line" smooth="yes"/>
      <point x="87" y="427"/>
      <point x="88" y="467"/>
      <point x="101" y="467" type="curve" smooth="yes"/>
      <point x="118" y="467"/>
      <point x="121" y="438"/>
      <point x="121" y="411" type="curve" smooth="yes"/>
      <point x="121" y="334" type="line"/>
      <point x="87" y="334" type="line"/>
    </contour>
  </outline>
</glyph>
<glyph name="gdotaccent" format="1">
  <advance width="235"/>
  <unicode hex="0121"/>
  <outline>
    <contour>
      <point x="64" y="634" type="line"/>
      <point x="143" y="634" type="line"/>
      <point x="143" y="735" type="line"/>
      <point x="64" y="735" type="line"/>
    </contour>
    <contour>
      <point x="191" y="429" type="line" smooth="yes"/>
      <point x="191" y="435"/>
      <point x="189" y="449"/>
      <point x="187" y="453" type="curve"/>
      <point x="192" y="460"/>
      <point x="205" y="465"/>
      <point x="224" y="465" type="curve"/>
      <point x="224" y="555" type="line"/>
      <point x="197" y="555"/>
      <point x="178" y="541"/>
      <point x="161" y="521" type="curve"/>
      <point x="149" y="543"/>
      <point x="129" y="555"/>
      <point x="99" y="555" type="curve" smooth="yes"/>
      <point x="32" y="555"/>
      <point x="9" y="474"/>
      <point x="8" y="416" type="curve"/>
      <point x="8" y="267" type="line" smooth="yes"/>
      <point x="8" y="221"/>
      <point x="21" y="186"/>
      <point x="46" y="148" type="curve"/>
      <point x="25" y="129"/>
      <point x="5" y="96"/>
      <point x="5" y="66" type="curve" smooth="yes"/>
      <point x="5" y="25"/>
      <point x="25" y="4"/>
      <point x="48" y="-7" type="curve"/>
      <point x="47" y="-7" type="line"/>
      <point x="21" y="-26"/>
      <point x="-5" y="-52"/>
      <point x="-5" y="-90" type="curve" smooth="yes"/>
      <point x="-5" y="-154"/>
      <point x="32" y="-196"/>
      <point x="101" y="-196" type="curve" smooth="yes"/>
      <point x="183" y="-196"/>
      <point x="214" y="-129"/>
      <point x="214" y="-56" type="curve" smooth="yes"/>
      <point x="214" y="-11"/>
      <point x="201" y="18"/>
      <point x="183" y="40" type="curve" smooth="yes"/>
      <point x="167" y="58"/>
      <point x="145" y="65"/>
      <point x="123" y="71" type="curve" smooth="yes"/>
      <point x="108" y="75"/>
      <point x="83" y="85"/>
      <point x="83" y="105" type="curve" smooth="yes"/>
      <point x="83" y="115"/>
      <point x="86" y="124"/>
      <point x="89" y="129" type="curve"/>
      <point x="94" y="129" type="line" smooth="yes"/>
      <point x="162" y="129"/>
      <point x="188" y="206"/>
      <point x="191" y="264" type="curve"/>
    </contour>
    <contour>
      <point x="114" y="262" type="line" smooth="yes"/>
      <point x="114" y="248"/>
      <point x="112" y="213"/>
      <point x="99" y="213" type="curve" smooth="yes"/>
      <point x="89" y="213"/>
      <point x="86" y="243"/>
      <point x="86" y="262" type="curve" smooth="yes"/>
      <point x="86" y="417" type="line" smooth="yes"/>
      <point x="86" y="437"/>
      <point x="89" y="467"/>
      <point x="99" y="467" type="curve" smooth="yes"/>
      <point x="112" y="467"/>
      <point x="114" y="439"/>
      <point x="114" y="417" type="curve" smooth="yes"/>
    </contour>
    <contour>
      <point x="113" y="-35" type="line" smooth="yes"/>
      <point x="126" y="-40"/>
      <point x="139" y="-50"/>
      <point x="139" y="-74" type="curve" smooth="yes"/>
      <point x="139" y="-94"/>
      <point x="124" y="-111"/>
      <point x="102" y="-111" type="curve" smooth="yes"/>
      <point x="80" y="-111"/>
      <point x="71" y="-94"/>
      <point x="71" y="-73" type="curve" smooth="yes"/>
      <point x="71" y="-52"/>
      <point x="80" y="-37"/>
      <point x="89" y="-27" type="curve"/>
    </contour>
  </outline>
</glyph>
<glyph name="Gcommaaccent" format="1">
  <advance width="246"/>
  <unicode hex="0122"/>
  <outline>
    <contour>
      <point x="138" y="-54" type="line"/>
      <point x="70" y="-54" type="line"/>
      <point x="70" y="-123" type="line"/>
      <point x="92" y="-123" type="line"/>
      <point x="76" y="-188" type="line"/>
      <point x="125" y="-188" type="line"/>
      <point x="138" y="-123" type="line"/>
    </contour>
    <contour>
      <point x="207" y="471" type="line"/>
      <point x="207" y="594" type="line" smooth="yes"/>
      <point x="207" y="653"/>
      <point x="188" y="743"/>
      <point x="108" y="743" type="curve" smooth="yes"/>
      <point x="33" y="743"/>
      <point x="9" y="660"/>
      <point x="9" y="594" type="curve" smooth="yes"/>
      <point x="9" y="141" type="line" smooth="yes"/>
      <point x="9" y="89"/>
      <point x="26" y="-8"/>
      <point x="100" y="-8" type="curve" smooth="yes"/>
      <point x="118" y="-8"/>
      <point x="146" y="9"/>
      <point x="155" y="27" type="curve"/>
      <point x="164" y="0" type="line"/>
      <point x="207" y="0" type="line"/>
      <point x="207" y="366" type="line"/>
      <point x="112" y="366" type="line"/>
      <point x="112" y="275" type="line"/>
      <point x="130" y="275" type="line"/>
      <point x="130" y="132" type="line" smooth="yes"/>
      <point x="130" y="114"/>
      <point x="128" y="88"/>
      <point x="110" y="88" type="curve" smooth="yes"/>
      <point x="98" y="88"/>
      <point x="93" y="109"/>
      <point x="93" y="132" type="curve" smooth="yes"/>
      <point x="93" y="594" type="line" smooth="yes"/>
      <point x="93" y="612"/>
      <point x="97" y="638"/>
      <point x="108" y="638" type="curve" smooth="yes"/>
      <point x="122" y="638"/>
      <point x="124" y="609"/>
      <point x="124" y="594" type="curve" smooth="yes"/>
      <point x="124" y="471" type="line"/>
    </contour>
  </outline>
</glyph>
<glyph name="Hcircumflex" format="1">
  <advance width="258"/>
  <unicode hex="0124"/>
  <outline>
    <contour>
      <point x="75" y="890" type="line"/>
      <point x="33" y="800" type="line"/>
      <point x="98" y="800" type="line"/>
      <point x="115" y="839" type="line"/>
      <point x="132" y="800" type="line"/>
      <point x="197" y="800" type="line"/>
      <point x="156" y="890" type="line"/>
    </contour>
    <contour>
      <point x="130" y="0" type="line"/>
      <point x="213" y="0" type="line"/>
      <point x="213" y="735" type="line"/>
      <point x="130" y="735" type="line"/>
      <point x="130" y="431" type="line"/>
      <point x="98" y="431" type="line"/>
      <point x="98" y="735" type="line"/>
      <point x="15" y="735" type="line"/>
      <point x="15" y="0" type="line"/>
      <point x="98" y="0" type="line"/>
      <point x="98" y="320" type="line"/>
      <point x="130" y="320" type="line"/>
    </contour>
  </outline>
</glyph>
<glyph name="hcircumflex" format="1">
  <advance width="232"/>
  <unicode hex="0125"/>
  <outline>
    <contour>
      <point x="101" y="657" type="line"/>
      <point x="112" y="637" type="line"/>
      <point x="184" y="637" type="line"/>
      <point x="143" y="727" type="line"/>
      <point x="94" y="727" type="line"/>
      <point x="94" y="735" type="line"/>
      <point x="15" y="735" type="line"/>
      <point x="15" y="0" type="line"/>
      <point x="94" y="0" type="line"/>
      <point x="94" y="431" type="line" smooth="yes"/>
      <point x="94" y="444"/>
      <point x="96" y="467"/>
      <point x="107" y="467" type="curve" smooth="yes"/>
      <point x="119" y="467"/>
      <point x="120" y="443"/>
      <point x="120" y="431" type="curve" smooth="yes"/>
      <point x="120" y="0" type="line"/>
      <point x="195" y="0" type="line"/>
      <point x="195" y="448" type="line" smooth="yes"/>
      <point x="195" y="481"/>
      <point x="187" y="555"/>
      <point x="137" y="555" type="curve" smooth="yes"/>
      <point x="120" y="555"/>
      <point x="97" y="538"/>
      <point x="94" y="525" type="curve"/>
      <point x="94" y="639" type="line"/>
    </contour>
  </outline>
</glyph>
<glyph name="Hbar" format="1">
  <advance width="258"/>
  <unicode hex="0126"/>
  <outline>
    <contour>
      <point x="237" y="627" type="line"/>
      <point x="213" y="627" type="line"/>
      <point x="213" y="735" type="line"/>
      <point x="130" y="735" type="line"/>
      <point x="130" y="627" type="line"/>
      <point x="98" y="627" type="line"/>
      <point x="98" y="735" type="line"/>
      <point x="15" y="735" type="line"/>
      <point x="15" y="627" type="line"/>
      <point x="-8" y="627" type="line"/>
      <point x="-8" y="548" type="line"/>
      <point x="15" y="548" type="line"/>
      <point x="15" y="0" type="line"/>
      <point x="98" y="0" type="line"/>
      <point x="98" y="320" type="line"/>
      <point x="130" y="320" type="line"/>
      <point x="130" y="0" type="line"/>
      <point x="213" y="0" type="line"/>
      <point x="213" y="548" type="line"/>
      <point x="237" y="548" type="line"/>
    </contour>
    <contour>
      <point x="130" y="431" type="line"/>
      <point x="98" y="431" type="line"/>
      <point x="98" y="548" type="line"/>
      <point x="130" y="548" type="line"/>
    </contour>
  </outline>
</glyph>
<glyph name="hbar" format="1">
  <advance width="232"/>
  <unicode hex="0127"/>
  <outline>
    <contour>
      <point x="94" y="431" type="line" smooth="yes"/>
      <point x="94" y="444"/>
      <point x="96" y="467"/>
      <point x="107" y="467" type="curve" smooth="yes"/>
      <point x="119" y="467"/>
      <point x="120" y="443"/>
      <point x="120" y="431" type="curve" smooth="yes"/>
      <point x="120" y="0" type="line"/>
      <point x="195" y="0" type="line"/>
      <point x="195" y="448" type="line" smooth="yes"/>
      <point x="195" y="481"/>
      <point x="187" y="555"/>
      <point x="137" y="555" type="curve" smooth="yes"/>
      <point x="120" y="555"/>
      <point x="97" y="538"/>
      <point x="94" y="525" type="curve"/>
      <point x="94" y="612" type="line"/>
      <point x="127" y="612" type="line"/>
      <point x="127" y="691" type="line"/>
      <point x="94" y="691" type="line"/>
      <point x="94" y="735" type="line"/>
      <point x="15" y="735" type="line"/>
      <point x="15" y="691" type="line"/>
      <point x="-8" y="691" type="line"/>
      <point x="-8" y="612" type="line"/>
      <point x="15" y="612" type="line"/>
      <point x="15" y="0" type="line"/>
      <point x="94" y="0" type="line"/>
    </contour>
  </outline>
</glyph>
<glyph name="Itilde" format="1">
  <advance width="143"/>
  <unicode hex="0128"/>
  <outline>
    <contour>
      <point x="-10" y="810" type="line"/>
      <point x="-5" y="817"/>
      <point x="18" y="840"/>
      <point x="30" y="840" type="curve" smooth="yes"/>
      <point x="50" y="840"/>
      <point x="61" y="821"/>
      <point x="84" y="821" type="curve" smooth="yes"/>
      <point x="102" y="821"/>
      <point x="116" y="833"/>
      <point x="124" y="846" type="curve"/>
      <point x="124" y="929" type="line"/>
      <point x="118" y="919"/>
      <point x="97" y="900"/>
      <point x="84" y="900" type="curve" smooth="yes"/>
      <point x="65" y="900"/>
      <point x="54" y="917"/>
      <point x="31" y="917" type="curve" smooth="yes"/>
      <point x="16" y="917"/>
      <point x="-1" y="909"/>
      <point x="-10" y="896" type="curve"/>
    </contour>
    <contour>
      <point x="15" y="0" type="line"/>
      <point x="98" y="0" type="line"/>
      <point x="98" y="735" type="line"/>
      <point x="15" y="735" type="line"/>
    </contour>
  </outline>
</glyph>
<glyph name="itilde" format="1">
  <advance width="139"/>
  <unicode hex="0129"/>
  <outline>
    <contour>
      <point x="94" y="0" type="line"/>
      <point x="94" y="547" type="line"/>
      <point x="15" y="547" type="line"/>
      <point x="15" y="0" type="line"/>
    </contour>
    <contour>
      <point x="-12" y="623" type="line"/>
      <point x="-7" y="630"/>
      <point x="16" y="653"/>
      <point x="28" y="653" type="curve" smooth="yes"/>
      <point x="48" y="653"/>
      <point x="59" y="634"/>
      <point x="82" y="634" type="curve" smooth="yes"/>
      <point x="100" y="634"/>
      <point x="114" y="646"/>
      <point x="122" y="659" type="curve"/>
      <point x="122" y="742" type="line"/>
      <point x="116" y="732"/>
      <point x="95" y="713"/>
      <point x="82" y="713" type="curve" smooth="yes"/>
      <point x="63" y="713"/>
      <point x="52" y="730"/>
      <point x="29" y="730" type="curve" smooth="yes"/>
      <point x="14" y="730"/>
      <point x="-3" y="722"/>
      <point x="-12" y="709" type="curve"/>
    </contour>
  </outline>
</glyph>
<glyph name="Imacron" format="1">
  <advance width="143"/>
  <unicode hex="012A"/>
  <outline>
    <contour>
      <point x="-10" y="830" type="line"/>
      <point x="124" y="830" type="line"/>
      <point x="124" y="909" type="line"/>
      <point x="-10" y="909" type="line"/>
    </contour>
    <contour>
      <point x="15" y="0" type="line"/>
      <point x="98" y="0" type="line"/>
      <point x="98" y="735" type="line"/>
      <point x="15" y="735" type="line"/>
    </contour>
  </outline>
</glyph>
<glyph name="imacron" format="1">
  <advance width="139"/>
  <unicode hex="012B"/>
  <outline>
    <contour>
      <point x="-12" y="642" type="line"/>
      <point x="122" y="642" type="line"/>
      <point x="122" y="721" type="line"/>
      <point x="-12" y="721" type="line"/>
    </contour>
    <contour>
      <point x="94" y="0" type="line"/>
      <point x="94" y="547" type="line"/>
      <point x="15" y="547" type="line"/>
      <point x="15" y="0" type="line"/>
    </contour>
  </outline>
</glyph>
<glyph name="Ibreve" format="1">
  <advance width="143"/>
  <unicode hex="012C"/>
  <outline>
    <contour>
      <point x="92" y="928" type="line"/>
      <point x="92" y="928"/>
      <point x="73" y="897"/>
      <point x="57" y="897" type="curve" smooth="yes"/>
      <point x="39" y="897"/>
      <point x="24" y="929"/>
      <point x="24" y="929" type="curve"/>
      <point x="-17" y="872" type="line"/>
      <point x="-4" y="846"/>
      <point x="26" y="824"/>
      <point x="57" y="824" type="curve" smooth="yes"/>
      <point x="88" y="824"/>
      <point x="113" y="844"/>
      <point x="131" y="872" type="curve"/>
    </contour>
    <contour>
      <point x="15" y="0" type="line"/>
      <point x="98" y="0" type="line"/>
      <point x="98" y="735" type="line"/>
      <point x="15" y="735" type="line"/>
    </contour>
  </outline>
</glyph>
<glyph name="ibreve" format="1">
  <advance width="139"/>
  <unicode hex="012D"/>
  <outline>
    <contour>
      <point x="93" y="740" type="line"/>
      <point x="93" y="740"/>
      <point x="74" y="709"/>
      <point x="58" y="709" type="curve" smooth="yes"/>
      <point x="40" y="709"/>
      <point x="25" y="741"/>
      <point x="25" y="741" type="curve"/>
      <point x="-16" y="684" type="line"/>
      <point x="-3" y="658"/>
      <point x="27" y="636"/>
      <point x="58" y="636" type="curve" smooth="yes"/>
      <point x="89" y="636"/>
      <point x="114" y="656"/>
      <point x="132" y="684" type="curve"/>
    </contour>
    <contour>
      <point x="94" y="0" type="line"/>
      <point x="94" y="547" type="line"/>
      <point x="15" y="547" type="line"/>
      <point x="15" y="0" type="line"/>
    </contour>
  </outline>
</glyph>
<glyph name="Iogonek" format="1">
  <advance width="143"/>
  <unicode hex="012E"/>
  <outline>
    <contour>
      <point x="98" y="0" type="line"/>
      <point x="98" y="735" type="line"/>
      <point x="15" y="735" type="line"/>
      <point x="15" y="0" type="line"/>
      <point x="25" y="0" type="line"/>
      <point x="17" y="-11"/>
      <point x="11" y="-21"/>
      <point x="7" y="-28" type="curve"/>
      <point x="7" y="-29"/>
      <point x="6" y="-30"/>
      <point x="5" y="-31" type="curve"/>
      <point x="-5" y="-50"/>
      <point x="-16" y="-79"/>
      <point x="-16" y="-103" type="curve" smooth="yes"/>
      <point x="-16" y="-148"/>
      <point x="9" y="-188"/>
      <point x="54" y="-188" type="curve" smooth="yes"/>
      <point x="67" y="-188"/>
      <point x="78" y="-185"/>
      <point x="94" y="-176" type="curve"/>
      <point x="98" y="-101" type="line"/>
      <point x="83" y="-112"/>
      <point x="69" y="-121"/>
      <point x="64" y="-121" type="curve" smooth="yes"/>
      <point x="54" y="-121"/>
      <point x="43" y="-112"/>
      <point x="43" y="-83" type="curve" smooth="yes"/>
      <point x="43" y="-71"/>
      <point x="44" y="-60"/>
      <point x="47" y="-50" type="curve" smooth="yes"/>
      <point x="53" y="-30"/>
      <point x="61" y="-13"/>
      <point x="69" y="0" type="curve"/>
    </contour>
  </outline>
</glyph>
<glyph name="iogonek" format="1">
  <advance width="139"/>
  <unicode hex="012F"/>
  <outline>
    <contour>
      <point x="94" y="735" type="line"/>
      <point x="15" y="735" type="line"/>
      <point x="15" y="634" type="line"/>
      <point x="94" y="634" type="line"/>
    </contour>
    <contour>
      <point x="94" y="0" type="line"/>
      <point x="94" y="547" type="line"/>
      <point x="15" y="547" type="line"/>
      <point x="15" y="0" type="line"/>
      <point x="40" y="0" type="line"/>
      <point x="31" y="-11"/>
      <point x="26" y="-19"/>
      <point x="22" y="-25" type="curve" smooth="yes"/>
      <point x="18" y="-31" type="line"/>
      <point x="8" y="-50"/>
      <point x="-2" y="-79"/>
      <point x="-2" y="-103" type="curve" smooth="yes"/>
      <point x="-2" y="-148"/>
      <point x="23" y="-188"/>
      <point x="68" y="-188" type="curve" smooth="yes"/>
      <point x="80" y="-188"/>
      <point x="90" y="-186"/>
      <point x="107" y="-176" type="curve"/>
      <point x="112" y="-101" type="line"/>
      <point x="97" y="-112"/>
      <point x="83" y="-121"/>
      <point x="78" y="-121" type="curve" smooth="yes"/>
      <point x="68" y="-121"/>
      <point x="57" y="-112"/>
      <point x="57" y="-83" type="curve" smooth="yes"/>
      <point x="57" y="-71"/>
      <point x="58" y="-60"/>
      <point x="61" y="-50" type="curve" smooth="yes"/>
      <point x="67" y="-30"/>
      <point x="75" y="-13"/>
      <point x="83" y="0" type="curve"/>
    </contour>
  </outline>
</glyph>
<glyph name="Idotaccent" format="1">
  <advance width="143"/>
  <unicode hex="0130"/>
  <outline>
    <contour>
      <point x="18" y="822" type="line"/>
      <point x="97" y="822" type="line"/>
      <point x="97" y="923" type="line"/>
      <point x="18" y="923" type="line"/>
    </contour>
    <contour>
      <point x="15" y="0" type="line"/>
      <point x="98" y="0" type="line"/>
      <point x="98" y="735" type="line"/>
      <point x="15" y="735" type="line"/>
    </contour>
  </outline>
</glyph>
<glyph name="IJ" format="1">
  <advance width="267"/>
  <unicode hex="0132"/>
  <outline>
    <contour>
      <point x="15" y="0" type="line"/>
      <point x="98" y="0" type="line"/>
      <point x="98" y="735" type="line"/>
      <point x="15" y="735" type="line"/>
    </contour>
    <contour>
      <point x="116" y="-6" type="line"/>
      <point x="210" y="-15"/>
      <point x="236" y="51"/>
      <point x="236" y="136" type="curve" smooth="yes"/>
      <point x="236" y="735" type="line"/>
      <point x="153" y="735" type="line"/>
      <point x="153" y="153" type="line" smooth="yes"/>
      <point x="153" y="133"/>
      <point x="149" y="95"/>
      <point x="116" y="102" type="curve"/>
    </contour>
  </outline>
</glyph>
<glyph name="ij" format="1">
  <advance width="245"/>
  <unicode hex="0133"/>
  <outline>
    <contour>
      <point x="15" y="634" type="line"/>
      <point x="94" y="634" type="line"/>
      <point x="94" y="735" type="line"/>
      <point x="15" y="735" type="line"/>
    </contour>
    <contour>
      <point x="123" y="634" type="line"/>
      <point x="202" y="634" type="line"/>
      <point x="202" y="735" type="line"/>
      <point x="123" y="735" type="line"/>
    </contour>
    <contour>
      <point x="94" y="0" type="line"/>
      <point x="94" y="547" type="line"/>
      <point x="15" y="547" type="line"/>
      <point x="15" y="0" type="line"/>
    </contour>
    <contour>
      <point x="123" y="547" type="line"/>
      <point x="123" y="-36" type="line" smooth="yes"/>
      <point x="123" y="-59"/>
      <point x="126" y="-101"/>
      <point x="90" y="-89" type="curve"/>
      <point x="88" y="-180" type="line"/>
      <point x="103" y="-187"/>
      <point x="112" y="-188"/>
      <point x="123" y="-188" type="curve" smooth="yes"/>
      <point x="161" y="-188"/>
      <point x="184" y="-157"/>
      <point x="193" y="-122" type="curve" smooth="yes"/>
      <point x="202" y="-86"/>
      <point x="202" y="-42"/>
      <point x="202" y="-14" type="curve" smooth="yes"/>
      <point x="202" y="547" type="line"/>
    </contour>
  </outline>
</glyph>
<glyph name="Jcircumflex" format="1">
  <advance width="154"/>
  <unicode hex="0134"/>
  <outline>
    <contour>
      <point x="28" y="890" type="line"/>
      <point x="-14" y="800" type="line"/>
      <point x="51" y="800" type="line"/>
      <point x="68" y="839" type="line"/>
      <point x="85" y="800" type="line"/>
      <point x="150" y="800" type="line"/>
      <point x="109" y="890" type="line"/>
    </contour>
    <contour>
      <point x="-7" y="-6" type="line"/>
      <point x="87" y="-15"/>
      <point x="113" y="51"/>
      <point x="113" y="136" type="curve" smooth="yes"/>
      <point x="113" y="735" type="line"/>
      <point x="30" y="735" type="line"/>
      <point x="30" y="153" type="line" smooth="yes"/>
      <point x="30" y="133"/>
      <point x="26" y="95"/>
      <point x="-7" y="102" type="curve"/>
    </contour>
  </outline>
</glyph>
